<?xml version="1.0" encoding="utf-8"?>
<!-- Generator: Adobe Illustrator 25.3.1, SVG Export Plug-In . SVG Version: 6.00 Build 0)  -->
<svg version="1.1" xmlns="http://www.w3.org/2000/svg" xmlns:xlink="http://www.w3.org/1999/xlink" x="0px" y="0px"
	 viewBox="0 0 425.1968384 425.1968384" style="enable-background:new 0 0 425.1968384 425.1968384;" xml:space="preserve">
<style type="text/css">
	.st6{fill:#FF0000;}
</style>
<g id="SLICE">
	<g id="OUTLINE">
		<path class="st6" d="M192.1496887,43.067997c0.7335968,0,1.4237671,0.0621376,2.1203156,0.1820107
			c0.6699982,0.119976,1.8000031,0.2699547,2.5,0.3299522c0.8789368,0.0856247,2.4877777,0.132164,4.0191803,0.132164
			c1.1517944,0,2.2596741-0.0263138,2.9808197-0.0821152c0.3899536-0.027298,0.6827087-0.0424309,0.9384918-0.0424347
			c0.400177-0.0000076,0.7100677,0.0370102,1.1614838,0.1223869c1.289978,0.25,1.5700226,0.340023,2.8300323,0.8800011
			c0.6199951,0.2700233,1.4500122,0.5700226,1.8399811,0.6800003c0.3899994,0.1100464,0.75,0.2300453,0.780014,0.2800217
			c0.0599976,0.0600014,0.3900299,55.7199745,0.7999725,136.2799683
			c0.0999908,18.6100464,0.1300354,29.7700348,0.0800323,29.8200073c-0.0599976,0-1.1400299-0.5899506-2.4400024-1.3399506
			c-0.6600189-0.3800354-2.4500275-1.4100494-4.7999725-2.75c-2.3400574-1.3500519-5.25-3.0200348-8.1500549-4.6800079
			c-23.8199921-13.6700439-31.4000244-18.0200195-37.7299805-21.6500244
			c-3.6600189-2.0999756-11.5699921-6.6400146-17.5699921-10.0800171s-15.210022-8.7299805-20.460022-11.739975
			c-5.2600021-3.019989-13.9500046-8.010025-19.3199997-11.0899811c-13.1699982-7.5700073-13.6499786-7.8400269-14.510025-8.3300171
			c-0.4099731-0.2299805-3.6299286-2.0700073-7.1499557-4.0999908c-3.5300217-2.0200195-7.2399979-4.1500092-8.2600174-4.730011
			c-2.5200043-1.4300079-2.9000244-1.8600006-2.9000244-3.2400055c0-0.7799759,0.1000443-1,0.8000641-1.710022
			c1.2799606-1.289978,1.8699799-2.5199509,2.3099823-4.8199539c0.5-2.6700439,1.1199951-3.6000214,6.1900177-9.4200439
			c0.5299606-0.5899582,1.1900024-1.3299561,1.4699554-1.6399994c0.5300446-0.5799561,2.5900269-3.1200027,6.0600052-7.4599762
			c1.25-1.5699997,1.8500443-2.25,3.2700195-3.6900024c1.3499756-1.3899994,2.0599976-1.989975,4.7199783-4.0599976
			c2.6700439-2.0800018,3.6700439-3,5.3400192-4.8599777c0.789978-0.8800049,1.9500046-2.0800247,2.5800247-2.6600266
			c0.6299973-0.5700226,1.3499756-1.3200226,1.6099777-1.6499786c0.2600021-0.3300171,0.8099976-0.9800415,1.2299805-1.4499969
			c0.4199753-0.470047,1.0200195-1.1600494,1.3300171-1.5400467c0.2999802-0.3899536,0.8499756-0.9899979,1.210022-1.3399734
			c0.6200027-0.600029,4.2299805-3.5400238,5.5600052-4.5200043c1.4399948-1.0700226,3.2299728-2.539978,4.7999725-3.9599762
			c0.9400024-0.8400192,1.9500275-1.7300262,2.260025-1.9800262c1.1900024-0.9699707,3.8899536-2.8800201,5.6699753-4.0199738
			c1.039978-0.6500244,3.2299805-2.0800018,4.8800049-3.1600227c3.3999786-2.2199783,4.0599976-2.6199989,6.6599731-4.0699997
			c2.1999969-1.2299995,3.4000244-1.7099762,5.5400391-2.25c0.8800049-0.2199783,2.0799561-0.5999794,2.6599579-0.8499794
			c2.8700104-1.2000198,5.7000275-2.1099968,10.0400085-3.2200432c2.8199921-0.7199783,3.480011-0.9599533,7.030014-2.539978
			c4.9499969-2.1899986,8.1200104-3.3899994,9.8700104-3.7200241c0.460022-0.0899773,1.5799866-0.2099762,2.489975-0.2699547
			c1.960022-0.1199989,3.3600006-0.3699989,4.7399902-0.8500443c2.4100342-0.8399773,6-1.9699783,7.3100128-2.289978
			C188.899353,43.3386192,190.618927,43.067997,192.1496887,43.067997 M192.1496887,42.3593483
			c-1.5687714,0-3.2971497,0.2609558-5.7792511,0.8725433c-1.2866364,0.3142967-4.8707886,1.4365463-7.3736725,2.3088875
			c-1.3214569,0.4596825-2.6398315,0.694931-4.5500793,0.8118858c-0.8482513,0.0559082-2.0440826,0.1764565-2.5827026,0.2818184
			c-1.7883606,0.3372269-4.973999,1.5346603-10.0207062,3.7674332c-3.5113983,1.5628395-4.1578827,1.796566-6.9185791,2.5014076
			c-4.3710327,1.1179771-7.2133942,2.0299797-10.138092,3.2528648c-0.5325012,0.2294998-1.7008667,0.6019096-2.5584412,0.8162956
			c-2.214798,0.5588875-3.4960938,1.0789299-5.7139893,2.3189545c-2.642807,1.4738617-3.3318024,1.8949089-6.7015991,4.0951805
			c-1.7306061,1.1327515-3.8472519,2.5143433-4.8681793,3.1524582c-1.8269806,1.1699753-4.56073,3.1086578-5.7421112,4.0716095
			c-0.3428879,0.2765045-1.4454117,1.2510681-2.2844772,2.0009079c-1.513092,1.3684998-3.2877731,2.8327103-4.7504349,3.9195709
			c-1.3349762,0.9836121-4.9671173,3.9378891-5.6301575,4.5795898c-0.3683853,0.3580704-0.9467545,0.9853439-1.2789078,1.4171143
			c-0.2944794,0.3605194-0.8912048,1.0460434-1.2967758,1.4999771c-0.416069,0.4655685-0.9804993,1.131134-1.2581787,1.4836121
			c-0.2330017,0.2956848-0.9363251,1.0269775-1.5287781,1.5630493c-0.6285248,0.5785675-1.8071594,1.7933655-2.6319046,2.7120895
			c-1.6660004,1.8555679-2.6469803,2.7479782-5.2481842,4.7743378c-2.7384109,2.1310501-3.4551392,2.7479553-4.7928391,4.1253204
			c-1.4198456,1.4398193-2.0403671,2.1400452-3.3160706,3.7423172c-3.5538406,4.4448853-5.5261383,6.873436-6.0286789,7.4232941
			l-0.6917496,0.771431l-0.7822952,0.8730927c-4.9743881,5.7100906-5.8117294,6.8385468-6.3593903,9.7631836
			c-0.4106598,2.1465454-0.9448395,3.2704315-2.116478,4.4512482c-0.7794952,0.7906418-1.0056839,1.1760941-1.0056839,2.2091599
			c0,1.8513641,0.7961426,2.4588013,3.258934,3.8563385c0.5597534,0.3182831,1.9320908,1.1047974,3.6403198,2.0838013
			l4.6174774,2.6449585c3.4672699,1.9995575,6.7136612,3.8552704,7.1552277,4.1029663l0.1141586,0.065033
			c0.8132477,0.4631958,1.8305664,1.0426025,14.3894119,8.2613373c4.5514755,2.6104736,11.4867935,6.592453,16.6980896,9.5845947
			l2.6222229,1.5055389c2.5376816,1.4549561,6.0000229,3.4422455,9.5778809,5.4958649
			c3.825119,2.1955414,7.7823029,4.4668884,10.8825073,6.244339c4.5664978,2.6181183,10.2393799,5.8734589,14.302887,8.2052765
			l3.2669067,1.8746338c6.3300629,3.6300507,13.9100494,7.9799957,37.7299347,21.6499786
			c2.8999786,1.6599579,5.8091736,3.3294983,8.1486359,4.6791992c2.3517914,1.3410034,4.1408386,2.3704834,4.8005066,2.7503052
			c2.4863739,1.4344788,2.5890656,1.4344788,2.7936096,1.4344788h0.2934265l0.20755-0.2074585
			c0.2459564-0.2458191,0.2459564-0.2458191,0.2239075-8.4530945c-0.0137482-5.1229248-0.0462799-12.5660858-0.0962524-21.871933
			c-0.1958771-38.4903107-0.3845367-73.4105682-0.5312195-98.3278427
			c-0.0706482-11.9966125-0.1303253-21.4774971-0.1761169-27.9630203c-0.0228882-3.2433167-0.0423279-5.7376595-0.0578918-7.4230423
			c-0.0246429-2.6685143-0.0261841-2.8361092-0.2041168-3.0244408c-0.1571045-0.1900406-0.4203033-0.3004837-1.1268616-0.499855
			c-0.352066-0.0992966-1.1570892-0.3897057-1.7494659-0.6477051c-1.3196716-0.5655479-1.6532288-0.6692276-2.9781494-0.9260025
			c-0.4429016-0.0837708-0.8126373-0.1353149-1.2963104-0.1353149c-0.2536163,0-0.5398712,0.0127945-0.9879761,0.0441589
			c-0.662323,0.0512276-1.7288513,0.0803833-2.9313507,0.0803833c-1.5964203,0-3.1470795-0.0505676-3.95047-0.1288185
			c-0.6741638-0.0578384-1.7895203-0.2050438-2.4438019-0.3222046
			C193.6383667,42.4222336,192.9055023,42.3593483,192.1496887,42.3593483L192.1496887,42.3593483z"/>
	</g>
</g>
</svg>
