<?xml version="1.0" encoding="utf-8"?>
<!-- Generator: Adobe Illustrator 25.3.1, SVG Export Plug-In . SVG Version: 6.00 Build 0)  -->
<svg version="1.1" id="Layer_1" xmlns="http://www.w3.org/2000/svg" xmlns:xlink="http://www.w3.org/1999/xlink" x="0px" y="0px"
	 viewBox="0 0 170.0787354 170.0787354" style="enable-background:new 0 0 170.0787354 170.0787354;" xml:space="preserve">
<g>
	<polygon points="80.1820068,29.2753296 81.598938,29.2753296 80.887146,27.616394 	"/>
	<path d="M72.4094238,28.184021h1.1904297c0.137207,0,0.2597656-0.0449219,0.3686523-0.1342773
		c0.1088867-0.0898438,0.1630859-0.2197266,0.1630859-0.3901367c0-0.203125-0.0507812-0.3505859-0.1523438-0.4428711
		c-0.1015625-0.0917969-0.2348633-0.1381836-0.4003906-0.1381836h-1.1694336V28.184021z"/>
	<path d="M64.0187988,27.1674194c-0.0849609-0.0732422-0.1723633-0.1098633-0.262207-0.1098633h-1.2329102v1.565918h1.2329102
		c0.0898438,0,0.1772461-0.0375977,0.262207-0.1132812s0.1557617-0.1738281,0.2124023-0.2939453
		c0.0566406-0.1206055,0.0849609-0.2470703,0.0849609-0.3793945c0-0.1367188-0.0283203-0.2646484-0.0849609-0.3828125
		C64.1745605,27.3363647,64.1037598,27.2406616,64.0187988,27.1674194z"/>
	<path d="M86.6755371,27.0575562H85.123291v1.6083984h1.5522461c0.0849609,0,0.1669922-0.0390625,0.2480469-0.1166992
		c0.0800781-0.078125,0.1464844-0.1845703,0.1982422-0.3188477c0.0517578-0.1347656,0.078125-0.2822266,0.078125-0.4428711
		c0-0.2080078-0.0556641-0.3818359-0.1669922-0.5209961C86.9226074,27.1273804,86.8024902,27.0575562,86.6755371,27.0575562z"/>
	<path d="M109.6350098,23.949707H59.7610474c-1.3267822,0-2.4024048,1.0756226-2.4024048,2.4024658v4.7765503
		c0,1.3267822,1.0756226,2.4024048,2.4024048,2.4024048h49.8739624c1.3267822,0,2.4024048-1.0756226,2.4024048-2.4024048v-4.7765503
		C112.0374146,25.0253296,110.961792,23.949707,109.6350098,23.949707z M64.9685059,28.6376343
		c-0.1323242,0.2412109-0.3061523,0.4335938-0.5209961,0.5776367s-0.4453125,0.2163086-0.690918,0.2163086h-1.2329102v1.3393555
		c0,0.1225586-0.0380859,0.2255859-0.1137695,0.3081055s-0.1748047,0.1240234-0.2973633,0.1240234
		c-0.1181641,0-0.215332-0.0415039-0.2905273-0.1240234c-0.0756836-0.0825195-0.1132812-0.1855469-0.1132812-0.3081055v-4.0961914
		c0-0.1230469,0.0410156-0.2255859,0.1235352-0.3081055c0.0830078-0.0830078,0.1855469-0.1240234,0.3085938-0.1240234h1.6157227
		c0.2456055,0,0.4760742,0.0708008,0.690918,0.2124023s0.3886719,0.3330078,0.5209961,0.5742188
		c0.1318359,0.2407227,0.1982422,0.5102539,0.1982422,0.8076172C65.166748,28.1298218,65.1003418,28.3969116,64.9685059,28.6376343z
		 M69.9934082,30.9974976c-0.1230469,0.0615234-0.2495117,0.1123047-0.3793945,0.1523438s-0.2612305,0.0708008-0.3930664,0.0922852
		c-0.1323242,0.0209961-0.2670898,0.0317383-0.4042969,0.0317383c-0.3398438,0-0.6625977-0.0541992-0.9672852-0.1630859
		c-0.3046875-0.1083984-0.5761719-0.269043-0.8149414-0.4819336c-0.2382812-0.2124023-0.4262695-0.4780273-0.5634766-0.796875
		c-0.1367188-0.3188477-0.2050781-0.6884766-0.2050781-1.109375c0-0.3637695,0.0625-0.6992188,0.1875-1.0063477
		c0.125-0.3066406,0.3022461-0.5727539,0.5317383-0.796875c0.2290039-0.2246094,0.4995117-0.3994141,0.8110352-0.5244141
		c0.3120117-0.1254883,0.6523438-0.1879883,1.0205078-0.1879883c0.2080078,0,0.4111328,0.0239258,0.6098633,0.0708008
		c0.1982422,0.0473633,0.3847656,0.1157227,0.5595703,0.2055664c0.1230469,0.0615234,0.1948242,0.1582031,0.2163086,0.2905273
		c0.0209961,0.1323242-0.0131836,0.2529297-0.1030273,0.3613281c-0.0615234,0.0849609-0.140625,0.1323242-0.2373047,0.1420898
		c-0.0966797,0.0092773-0.1948242-0.0097656-0.2939453-0.0571289c-0.1132812-0.0517578-0.2329102-0.0917969-0.3579102-0.1201172
		c-0.1254883-0.0283203-0.2563477-0.0424805-0.3935547-0.0424805c-0.2548828,0-0.4829102,0.0400391-0.6835938,0.1201172
		c-0.2011719,0.0805664-0.3720703,0.1953125-0.5136719,0.34375c-0.1420898,0.1489258-0.2495117,0.3251953-0.3227539,0.5283203
		s-0.1098633,0.4272461-0.1098633,0.6728516c0,0.2885742,0.0415039,0.5385742,0.1240234,0.7514648
		c0.0825195,0.2124023,0.1972656,0.3896484,0.34375,0.53125c0.1464844,0.1420898,0.3188477,0.2470703,0.5175781,0.3154297
		c0.1982422,0.0683594,0.4130859,0.1030273,0.6445312,0.1030273c0.1279297,0,0.2553711-0.012207,0.3828125-0.0356445
		s0.2504883-0.065918,0.3686523-0.1274414c0.0991211-0.0473633,0.1972656-0.0639648,0.2939453-0.0498047
		s0.1782227,0.0639648,0.2446289,0.1489258c0.0942383,0.1181641,0.128418,0.2397461,0.1025391,0.3647461
		C70.1833496,30.8500366,70.111084,30.9408569,69.9934082,30.9974976z M75.1628418,30.4589233
		c-0.1015625,0.1982422-0.2353516,0.3520508-0.4003906,0.4604492c-0.1655273,0.1088867-0.3427734,0.1835938-0.5317383,0.2236328
		s-0.3710938,0.0600586-0.5454102,0.0600586h-1.7646484c-0.1230469,0-0.2255859-0.0415039-0.3085938-0.1240234
		c-0.0825195-0.0825195-0.1235352-0.1855469-0.1235352-0.3081055v-4.0961914c0-0.1230469,0.0410156-0.2255859,0.1235352-0.3081055
		c0.0830078-0.0830078,0.1855469-0.1240234,0.3085938-0.1240234h1.7856445c0.4536133,0,0.7915039,0.105957,1.0136719,0.3188477
		c0.2216797,0.2124023,0.3330078,0.5268555,0.3330078,0.9423828c0,0.222168-0.0546875,0.4169922-0.1630859,0.5844727
		c-0.1045532,0.1612549-0.2596436,0.2852783-0.4595947,0.3768311c0.0905151,0.0352173,0.1838989,0.0548706,0.2716064,0.1051025
		c0.1772461,0.1015625,0.3237305,0.2436523,0.4394531,0.425293c0.1157227,0.1821289,0.1738281,0.4145508,0.1738281,0.6982422
		C75.3151855,30.0053101,75.2644043,30.2606812,75.1628418,30.4589233z M82.979248,31.124939
		c-0.0825195,0.0756836-0.1738281,0.1137695-0.2729492,0.1137695c-0.0849609,0-0.1616211-0.0263672-0.2304688-0.078125
		c-0.0683594-0.0517578-0.121582-0.1230469-0.1591797-0.2124023l-0.368103-0.8579102h-2.1129761l-0.3675537,0.8647461
		c-0.0332031,0.0898438-0.0839844,0.159668-0.1523438,0.2089844c-0.0688477,0.0498047-0.1430664,0.074707-0.2236328,0.074707
		c-0.1274414,0-0.222168-0.0356445-0.2832031-0.1064453c-0.0615234-0.0708008-0.0922852-0.1582031-0.0922852-0.262207
		c0-0.0424805,0.0073242-0.0874023,0.0214844-0.1347656l1.7646484-4.237793
		c0.0375977-0.0942383,0.0952148-0.1674805,0.1733398-0.2197266c0.078125-0.0517578,0.1616211-0.0732422,0.2514648-0.0634766
		c0.0849609,0,0.1640625,0.0244141,0.237793,0.0742188c0.0727539,0.0498047,0.1259766,0.1191406,0.1591797,0.2089844
		l1.7431641,4.152832c0.0239258,0.0615234,0.0356445,0.1181641,0.0356445,0.1699219
		C83.1032715,30.9481812,83.0617676,31.0497437,82.979248,31.124939z M88.2419434,31.0824585
		c-0.0527344,0.0615234-0.1181641,0.1005859-0.1992188,0.1171875c-0.0800781,0.0166016-0.1601562,0.0166016-0.2402344,0
		c-0.0810547-0.0166016-0.1464844-0.0390625-0.1992188-0.0673828c-0.0800781-0.0473633-0.1601562-0.1171875-0.2402344-0.2089844
		c-0.0810547-0.0922852-0.1455078-0.2163086-0.1953125-0.3720703c-0.0498047-0.15625-0.0742188-0.3569336-0.0742188-0.6025391
		c0-0.0800781-0.0146484-0.1547852-0.0429688-0.2231445s-0.0683594-0.1274414-0.1201172-0.1772461
		c-0.0517578-0.0493164-0.1181641-0.0874023-0.1982422-0.1132812s-0.175293-0.0390625-0.2836914-0.0390625H85.123291v1.375
		c0,0.1225586-0.0332031,0.2255859-0.0996094,0.3081055c-0.065918,0.0825195-0.1582031,0.1240234-0.2763672,0.1240234
		c-0.1323242,0-0.25-0.0415039-0.3540039-0.1240234s-0.1557617-0.1855469-0.1557617-0.3081055v-4.0961914
		c0-0.1230469,0.0410156-0.2255859,0.1235352-0.3081055c0.0830078-0.0830078,0.1855469-0.1240234,0.3085938-0.1240234h2.0410156
		c0.2460938,0,0.4755859,0.0649414,0.6914062,0.1948242c0.2148438,0.1298828,0.3876953,0.3095703,0.5205078,0.5385742
		c0.1318359,0.2290039,0.1982422,0.4921875,0.1982422,0.7900391c0,0.1796875-0.0361328,0.3544922-0.109375,0.5244141
		s-0.1728516,0.3237305-0.2978516,0.4604492c-0.0922241,0.1012573-0.2020264,0.1677246-0.3112793,0.2352905
		c0.0811157,0.0541382,0.1660767,0.1061401,0.2263184,0.1724243c0.0869141,0.0966797,0.1552734,0.2006836,0.2050781,0.3115234
		c0.0498047,0.1113281,0.0791016,0.2304688,0.0888672,0.3579102c0.0185547,0.1181641,0.0322266,0.222168,0.0390625,0.3120117
		s0.0214844,0.1655273,0.0419922,0.2265625c0.0214844,0.0615234,0.0625,0.1088867,0.1240234,0.1420898
		c0.1044922,0.0615234,0.1689453,0.1499023,0.1953125,0.265625S88.3220215,30.993103,88.2419434,31.0824585z M93.0993652,26.9476929
		c-0.0830078,0.0732422-0.1855469,0.1098633-0.3085938,0.1098633h-1.1123047v3.7133789
		c0,0.1225586-0.0439453,0.2255859-0.1308594,0.3081055c-0.0878906,0.0825195-0.2001953,0.1240234-0.3369141,0.1240234
		c-0.1328125,0-0.2412109-0.0415039-0.3261719-0.1240234s-0.1279297-0.1855469-0.1279297-0.3081055v-3.7133789h-1.1123047
		c-0.1230469,0-0.2255859-0.0380859-0.3085938-0.1137695c-0.0820312-0.0751953-0.1240234-0.1743164-0.1240234-0.2973633
		s0.0419922-0.2207031,0.1240234-0.2939453c0.0830078-0.0732422,0.1855469-0.1098633,0.3085938-0.1098633h3.1464844
		c0.1230469,0,0.2255859,0.0375977,0.3085938,0.1132812c0.0820312,0.0756836,0.1240234,0.1748047,0.1240234,0.2973633
		C93.2233887,26.7763062,93.1813965,26.8744507,93.0993652,26.9476929z M100.689209,30.4589233
		c-0.1015625,0.1982422-0.2353516,0.3520508-0.4003906,0.4604492c-0.1660156,0.1088867-0.3427734,0.1835938-0.5322266,0.2236328
		c-0.1884766,0.0400391-0.3710938,0.0600586-0.5449219,0.0600586h-1.7646484c-0.1230469,0-0.2255859-0.0415039-0.3085938-0.1240234
		s-0.1240234-0.1855469-0.1240234-0.3081055v-4.0961914c0-0.1230469,0.0410156-0.2255859,0.1240234-0.3081055
		c0.0830078-0.0830078,0.1855469-0.1240234,0.3085938-0.1240234h1.7851562c0.4541016,0,0.7919922,0.105957,1.0136719,0.3188477
		c0.2216797,0.2124023,0.3330078,0.5268555,0.3330078,0.9423828c0,0.222168-0.0546875,0.4169922-0.1630859,0.5844727
		c-0.1040649,0.1612549-0.2595825,0.2852783-0.4591064,0.3768311c0.0904541,0.0352173,0.1836548,0.0548706,0.2716064,0.1051025
		c0.1767578,0.1015625,0.3232422,0.2436523,0.4394531,0.425293c0.1152344,0.1821289,0.1738281,0.4145508,0.1738281,0.6982422
		C100.8415527,30.0053101,100.7907715,30.2606812,100.689209,30.4589233z M105.5935059,26.7914429
		c-0.0117188,0.0449219-0.0322266,0.0888672-0.0605469,0.1313477l-1.4814453,2.1213989v1.7267456
		c0,0.1225586-0.0410156,0.2255859-0.1240234,0.3081055c-0.0820312,0.0825195-0.1777344,0.1240234-0.2861328,0.1240234
		c-0.1181641,0-0.21875-0.0415039-0.3017578-0.1240234s-0.1240234-0.1855469-0.1240234-0.3081055v-1.8257446l-1.4736328-1.9584351
		c-0.0478516-0.0615234-0.0810547-0.1206055-0.0996094-0.1772461s-0.0283203-0.1088867-0.0283203-0.15625
		c0-0.1274414,0.0498047-0.2314453,0.1494141-0.3115234c0.0986328-0.0805664,0.2001953-0.1206055,0.3046875-0.1206055
		c0.1318359,0,0.2480469,0.0664062,0.3466797,0.1982422l1.24823,1.7236328l1.1687622-1.7094727
		c0.0986328-0.1416016,0.2167969-0.2124023,0.3535156-0.2124023c0.109375,0,0.2070312,0.0415039,0.2949219,0.1240234
		c0.0869141,0.0825195,0.1308594,0.1879883,0.1308594,0.3154297
		C105.611084,26.703064,105.6052246,26.7470093,105.5935059,26.7914429z M107.6872559,30.777771
		c0,0.137207-0.0371094,0.2421875-0.1103516,0.3154297s-0.1777344,0.1098633-0.3154297,0.1098633h-0.0917969
		c-0.1367188,0-0.2421875-0.0366211-0.3154297-0.1098633s-0.109375-0.1782227-0.109375-0.3154297v-0.1206055
		c0-0.1367188,0.0361328-0.2416992,0.109375-0.3149414s0.1787109-0.1098633,0.3154297-0.1098633h0.0917969
		c0.1376953,0,0.2421875,0.0366211,0.3154297,0.1098633s0.1103516,0.1782227,0.1103516,0.3149414V30.777771z
		 M107.6872559,28.0067749c0,0.137207-0.0371094,0.2421875-0.1103516,0.3154297s-0.1777344,0.1098633-0.3154297,0.1098633
		h-0.0917969c-0.1367188,0-0.2421875-0.0366211-0.3154297-0.1098633s-0.109375-0.1782227-0.109375-0.3154297v-0.1201172
		c0-0.137207,0.0361328-0.2421875,0.109375-0.3154297s0.1787109-0.1098633,0.3154297-0.1098633h0.0917969
		c0.1376953,0,0.2421875,0.0366211,0.3154297,0.1098633s0.1103516,0.1782227,0.1103516,0.3154297V28.0067749z"/>
	<path d="M73.9616699,29.055603c-0.1181641-0.0234375-0.2270508-0.0351562-0.3261719-0.0351562h-1.2260742v1.3676758h1.2758789
		c0.2172852,0,0.3896484-0.0576172,0.5170898-0.1738281c0.1274414-0.1157227,0.1914062-0.2890625,0.1914062-0.5205078
		c0-0.2128906-0.0424805-0.3662109-0.1274414-0.4609375C74.1813965,29.1386108,74.0793457,29.0795288,73.9616699,29.055603z"/>
	<path d="M97.9353027,28.184021h1.1904297c0.1376953,0,0.2597656-0.0449219,0.3691406-0.1342773
		c0.1083984-0.0898438,0.1630859-0.2197266,0.1630859-0.3901367c0-0.203125-0.0507812-0.3505859-0.1523438-0.4428711
		c-0.1015625-0.0917969-0.2353516-0.1381836-0.4003906-0.1381836h-1.1699219V28.184021z"/>
	<path d="M99.4880371,29.055603c-0.1181641-0.0234375-0.2275391-0.0351562-0.3261719-0.0351562h-1.2265625v1.3676758h1.2763672
		c0.2167969,0,0.3896484-0.0576172,0.5166016-0.1738281c0.1279297-0.1157227,0.1914062-0.2890625,0.1914062-0.5205078
		c0-0.2128906-0.0419922-0.3662109-0.1269531-0.4609375C99.7077637,29.1386108,99.6052246,29.0795288,99.4880371,29.055603z"/>
</g>
</svg>
