<?xml version="1.0" encoding="UTF-8"?>
<svg id="Layer_1" data-name="Layer 1" xmlns="http://www.w3.org/2000/svg" version="1.1" xmlns:inkscape="http://www.inkscape.org/namespaces/inkscape" xmlns:sodipodi="http://sodipodi.sourceforge.net/DTD/sodipodi-0.dtd" xmlns:svg="http://www.w3.org/2000/svg" xmlns:xlink="http://www.w3.org/1999/xlink" viewBox="0 0 2314.8 797.9">
  <defs>
    <style>
      .cls-1 {
        fill: url(#linear-gradient-12);
      }

      .cls-1, .cls-2, .cls-3, .cls-4, .cls-5, .cls-6, .cls-7, .cls-8, .cls-9, .cls-10, .cls-11, .cls-12, .cls-13, .cls-14, .cls-15, .cls-16, .cls-17, .cls-18, .cls-19, .cls-20, .cls-21, .cls-22, .cls-23, .cls-24, .cls-25, .cls-26, .cls-27, .cls-28, .cls-29, .cls-30, .cls-31, .cls-32 {
        stroke-width: 0px;
      }

      .cls-2 {
        fill: url(#linear-gradient-17);
      }

      .cls-3 {
        fill: url(#linear-gradient-19);
      }

      .cls-4 {
        fill: url(#linear-gradient);
      }

      .cls-5 {
        fill: url(#linear-gradient-6);
      }

      .cls-6 {
        fill: url(#linear-gradient-15);
      }

      .cls-7 {
        fill: url(#linear-gradient-11);
      }

      .cls-8, .cls-11 {
        fill: #e73545;
      }

      .cls-8, .cls-15, .cls-32 {
        fill-rule: evenodd;
      }

      .cls-9 {
        fill: url(#linear-gradient-5);
      }

      .cls-10 {
        fill: none;
      }

      .cls-12 {
        fill: url(#linear-gradient-13);
      }

      .cls-13 {
        fill: url(#linear-gradient-23);
      }

      .cls-14 {
        fill: url(#linear-gradient-25);
      }

      .cls-15, .cls-21 {
        fill: #1d497a;
      }

      .cls-16 {
        fill: url(#linear-gradient-16);
      }

      .cls-17 {
        fill: url(#linear-gradient-22);
      }

      .cls-18 {
        fill: url(#linear-gradient-20);
      }

      .cls-19 {
        fill: url(#linear-gradient-14);
      }

      .cls-20 {
        fill: url(#linear-gradient-2);
      }

      .cls-22 {
        fill: url(#linear-gradient-7);
      }

      .cls-23 {
        fill: url(#linear-gradient-3);
      }

      .cls-24 {
        fill: #fff;
        fill-opacity: 0;
      }

      .cls-33 {
        clip-path: url(#clippath);
      }

      .cls-25 {
        fill: url(#linear-gradient-9);
      }

      .cls-26 {
        fill: url(#linear-gradient-8);
      }

      .cls-27 {
        fill: url(#linear-gradient-24);
      }

      .cls-28 {
        fill: url(#linear-gradient-26);
      }

      .cls-29 {
        fill: url(#linear-gradient-18);
      }

      .cls-30 {
        fill: url(#linear-gradient-10);
      }

      .cls-31 {
        fill: url(#linear-gradient-4);
      }

      .cls-32 {
        fill: url(#linear-gradient-21);
      }
    </style>
    <linearGradient id="linear-gradient" x1="33.4" y1="169.5" x2="831.6" y2="169.5" gradientTransform="translate(-33.6 568.3) scale(1 -1)" gradientUnits="userSpaceOnUse">
      <stop offset="0" stop-color="#1c3760"/>
      <stop offset=".2" stop-color="#3d375b"/>
      <stop offset=".5" stop-color="#773446"/>
      <stop offset="1" stop-color="#c81d1c"/>
      <stop offset="1" stop-color="#cd181b"/>
    </linearGradient>
    <linearGradient id="linear-gradient-2" x1="190.8" y1="287.7" x2="325.8" y2="287.7" gradientTransform="translate(-69.8 521.2) rotate(1) scale(1 -1) skewX(-2.1)" gradientUnits="userSpaceOnUse">
      <stop offset="0" stop-color="#1c3760"/>
      <stop offset=".2" stop-color="#3d375b"/>
      <stop offset=".5" stop-color="#773446"/>
      <stop offset="1" stop-color="#c81d1c"/>
      <stop offset="1" stop-color="#cd181b"/>
    </linearGradient>
    <linearGradient id="linear-gradient-3" x1="182.9" y1="314.4" x2="467.1" y2="314.4" gradientTransform="translate(-58.4 596) rotate(-.2) scale(1 -1) skewX(-.5)" gradientUnits="userSpaceOnUse">
      <stop offset="0" stop-color="#1c3760"/>
      <stop offset=".2" stop-color="#3d375b"/>
      <stop offset=".5" stop-color="#773446"/>
      <stop offset="1" stop-color="#c81d1c"/>
      <stop offset="1" stop-color="#cd181b"/>
    </linearGradient>
    <linearGradient id="linear-gradient-4" x1="422.2" y1="269.2" x2="701.7" y2="269.2" gradientTransform="translate(-26.6 543.8) rotate(.6) scale(1 -1) skewX(-.3)" gradientUnits="userSpaceOnUse">
      <stop offset="0" stop-color="#1c3760"/>
      <stop offset=".2" stop-color="#3d375b"/>
      <stop offset=".5" stop-color="#773446"/>
      <stop offset="1" stop-color="#c81d1c"/>
      <stop offset="1" stop-color="#cd181b"/>
    </linearGradient>
    <linearGradient id="linear-gradient-5" x1="156.4" y1="44.7" x2="708.4" y2="44.7" gradientTransform="translate(-31.9 569.7) scale(1 -1)" gradientUnits="userSpaceOnUse">
      <stop offset="0" stop-color="#1c3760"/>
      <stop offset=".2" stop-color="#3d375b"/>
      <stop offset=".5" stop-color="#773446"/>
      <stop offset="1" stop-color="#c81d1c"/>
      <stop offset="1" stop-color="#cd181b"/>
    </linearGradient>
    <linearGradient id="linear-gradient-6" x1="170.2" y1="148.7" x2="172" y2="148.7" gradientTransform="translate(-48.3 508.1) rotate(-.2) scale(1 -1)" gradientUnits="userSpaceOnUse">
      <stop offset="0" stop-color="#1c3760"/>
      <stop offset=".2" stop-color="#3d375b"/>
      <stop offset=".5" stop-color="#773446"/>
      <stop offset="1" stop-color="#c81d1c"/>
      <stop offset="1" stop-color="#cd181b"/>
    </linearGradient>
    <linearGradient id="linear-gradient-7" x1="441.6" y1="458.2" x2="717.8" y2="458.2" gradientTransform="translate(-36.8 581) rotate(-.6) scale(1 -1) skewX(.5)" gradientUnits="userSpaceOnUse">
      <stop offset="0" stop-color="#1c3760"/>
      <stop offset=".2" stop-color="#3d375b"/>
      <stop offset=".5" stop-color="#773446"/>
      <stop offset="1" stop-color="#c81d1c"/>
      <stop offset="1" stop-color="#cd181b"/>
    </linearGradient>
    <linearGradient id="linear-gradient-8" x1="569.6" y1="329.2" x2="704.7" y2="329.2" gradientTransform="translate(-33.6 568.3) scale(1 -1)" gradientUnits="userSpaceOnUse">
      <stop offset="0" stop-color="#1c3760"/>
      <stop offset=".2" stop-color="#3d375b"/>
      <stop offset=".5" stop-color="#773446"/>
      <stop offset="1" stop-color="#c81d1c"/>
      <stop offset="1" stop-color="#cd181b"/>
    </linearGradient>
    <linearGradient id="linear-gradient-9" x1="417.1" y1="-29.5" x2="693.1" y2="-29.5" gradientTransform="translate(-14 570.5) rotate(.3) scale(1 -1) skewX(-.2)" gradientUnits="userSpaceOnUse">
      <stop offset="0" stop-color="#1c3760"/>
      <stop offset=".2" stop-color="#3d375b"/>
      <stop offset=".5" stop-color="#773446"/>
      <stop offset="1" stop-color="#c81d1c"/>
      <stop offset="1" stop-color="#cd181b"/>
    </linearGradient>
    <linearGradient id="linear-gradient-10" x1="445.5" y1="-5752.5" x2="475.6" y2="-5752.5" gradientTransform="translate(1136.9 5950) rotate(-180) scale(1 -1)" gradientUnits="userSpaceOnUse">
      <stop offset="0" stop-color="#1c3760"/>
      <stop offset=".2" stop-color="#3d375b"/>
      <stop offset=".5" stop-color="#773446"/>
      <stop offset="1" stop-color="#c81d1c"/>
      <stop offset="1" stop-color="#cd181b"/>
    </linearGradient>
    <linearGradient id="linear-gradient-11" x1="354.4" y1="-5911.1" x2="384.5" y2="-5911.1" gradientTransform="translate(769.4 6591.7) rotate(-180) scale(1 -1)" gradientUnits="userSpaceOnUse">
      <stop offset="0" stop-color="#1c3760"/>
      <stop offset=".2" stop-color="#3d375b"/>
      <stop offset=".5" stop-color="#773446"/>
      <stop offset="1" stop-color="#c81d1c"/>
      <stop offset="1" stop-color="#cd181b"/>
    </linearGradient>
    <linearGradient id="linear-gradient-12" x1="3206.3" y1="-5112.3" x2="3236.4" y2="-5112.3" gradientTransform="translate(-3529.1 5015.6) rotate(-110.6) scale(1 -1)" gradientUnits="userSpaceOnUse">
      <stop offset="0" stop-color="#1c3760"/>
      <stop offset=".2" stop-color="#3d375b"/>
      <stop offset=".5" stop-color="#773446"/>
      <stop offset="1" stop-color="#c81d1c"/>
      <stop offset="1" stop-color="#cd181b"/>
    </linearGradient>
    <linearGradient id="linear-gradient-13" x1="209.6" y1="406.7" x2="224.6" y2="406.7" gradientTransform="translate(-33.6 568.3) scale(1 -1)" gradientUnits="userSpaceOnUse">
      <stop offset="0" stop-color="#1c3760"/>
      <stop offset=".2" stop-color="#3d375b"/>
      <stop offset=".5" stop-color="#773446"/>
      <stop offset="1" stop-color="#c81d1c"/>
      <stop offset="1" stop-color="#cd181b"/>
    </linearGradient>
    <linearGradient id="linear-gradient-14" x1="261.9" y1="437" x2="276.9" y2="437" gradientTransform="translate(-33.6 568.3) scale(1 -1)" gradientUnits="userSpaceOnUse">
      <stop offset="0" stop-color="#1c3760"/>
      <stop offset=".2" stop-color="#3d375b"/>
      <stop offset=".5" stop-color="#773446"/>
      <stop offset="1" stop-color="#c81d1c"/>
      <stop offset="1" stop-color="#cd181b"/>
    </linearGradient>
    <linearGradient id="linear-gradient-15" x1="314.6" y1="467.2" x2="329.6" y2="467.2" gradientTransform="translate(-33.6 568.3) scale(1 -1)" gradientUnits="userSpaceOnUse">
      <stop offset="0" stop-color="#1c3760"/>
      <stop offset=".2" stop-color="#3d375b"/>
      <stop offset=".5" stop-color="#773446"/>
      <stop offset="1" stop-color="#c81d1c"/>
      <stop offset="1" stop-color="#cd181b"/>
    </linearGradient>
    <linearGradient id="linear-gradient-16" x1="366.2" y1="497.6" x2="381.2" y2="497.6" gradientTransform="translate(-33.6 568.3) scale(1 -1)" gradientUnits="userSpaceOnUse">
      <stop offset="0" stop-color="#1c3760"/>
      <stop offset=".2" stop-color="#3d375b"/>
      <stop offset=".5" stop-color="#773446"/>
      <stop offset="1" stop-color="#c81d1c"/>
      <stop offset="1" stop-color="#cd181b"/>
    </linearGradient>
    <linearGradient id="linear-gradient-17" x1="704.2" y1="121.6" x2="719.3" y2="121.6" gradientTransform="translate(-33.6 568.3) scale(1 -1)" gradientUnits="userSpaceOnUse">
      <stop offset="0" stop-color="#1c3760"/>
      <stop offset=".2" stop-color="#3d375b"/>
      <stop offset=".5" stop-color="#773446"/>
      <stop offset="1" stop-color="#c81d1c"/>
      <stop offset="1" stop-color="#cd181b"/>
    </linearGradient>
    <linearGradient id="linear-gradient-18" x1="704.2" y1="183.4" x2="719.3" y2="183.4" gradientTransform="translate(-33.6 568.3) scale(1 -1)" gradientUnits="userSpaceOnUse">
      <stop offset="0" stop-color="#1c3760"/>
      <stop offset=".2" stop-color="#3d375b"/>
      <stop offset=".5" stop-color="#773446"/>
      <stop offset="1" stop-color="#c81d1c"/>
      <stop offset="1" stop-color="#cd181b"/>
    </linearGradient>
    <linearGradient id="linear-gradient-19" x1="704.2" y1="245" x2="719.3" y2="245" gradientTransform="translate(-33.6 568.3) scale(1 -1)" gradientUnits="userSpaceOnUse">
      <stop offset="0" stop-color="#1c3760"/>
      <stop offset=".2" stop-color="#3d375b"/>
      <stop offset=".5" stop-color="#773446"/>
      <stop offset="1" stop-color="#c81d1c"/>
      <stop offset="1" stop-color="#cd181b"/>
    </linearGradient>
    <linearGradient id="linear-gradient-20" x1="704.2" y1="303.3" x2="719.3" y2="303.3" gradientTransform="translate(-33.6 568.3) scale(1 -1)" gradientUnits="userSpaceOnUse">
      <stop offset="0" stop-color="#1c3760"/>
      <stop offset=".2" stop-color="#3d375b"/>
      <stop offset=".5" stop-color="#773446"/>
      <stop offset="1" stop-color="#c81d1c"/>
      <stop offset="1" stop-color="#cd181b"/>
    </linearGradient>
    <linearGradient id="linear-gradient-21" x1="329" y1="223.3" x2="627.1" y2="223.3" gradientTransform="translate(-33.6 568.3) scale(1 -1)" gradientUnits="userSpaceOnUse">
      <stop offset="0" stop-color="#1c3760"/>
      <stop offset=".2" stop-color="#3d375b"/>
      <stop offset=".5" stop-color="#773446"/>
      <stop offset="1" stop-color="#c81d1c"/>
      <stop offset="1" stop-color="#cd181b"/>
    </linearGradient>
    <clipPath id="clippath">
      <path class="cls-10" d="M349.2,446.4c-.8-.8-1.4-1-2.1-.2-1.5,1.4-2.8.4-3-2.3-.1-1.3-.5-2.3-1.1-2.3s-.6.3-.4.6c.7,1.1-.7,3-2.1,2.5-1.5-.4-2.4-6.9-1-7,.4,0,.6-2.9.3-6.9-.4-6.2-.3-7.1,1.7-10.3,2.2-3.5,2.1-6-.1-5.8-1.6,0-2.4-2.1-1.4-3.6.6-1,.6-2.9,0-6.6-1.5-8.7-2-9.8-4.4-10.7-2-.6-2.3-1.2-2.5-4.4-.2-2.6.1-4,1.1-4.7,1.3-.8,1.3-1.1,0-1.8-2.1-1.3-.1-5.6,2.8-6.1,2.5-.5,3,.7.8,2.9s-1.7,3.9,1.5,4.9c2,.5,3.8.5,6.1-.2,3.8-1.2,3.5-.8,4.9-4.1.6-1.6,2.9-3.7,5.7-5.5l4.7-3,3.2,3.1c1.7,1.7,3.2,3.6,3.3,4.2,0,.6.8,1.2,1.7,1.1,1.2-.1,1.7.4,1.8,1.9.1,1.5-.3,2.1-1.5,2.1-.8.1-1.6.5-1.6,1s1,.7,2,.6c2-.1,2.2,0,3.9,7.6.6,3,.4,3.8-1.5,6.7-2.6,3.9-3,6-1.1,8.4,1.3,1.6,1.4,2.2.1,8.1-1.1,4.8-1.2,7.2-.5,9.6.7,2.6.6,3.5-.4,4.5-.7.7-1.2,1.9-1,2.8.2.7-.2,1.7-.8,2-.6.3-1.2,1.5-1.1,2.5.2,2.6-1.5,2.5-4.4-.2-4.1-3.7-7.1-2.3-6.7,3.1.2,2.5-.2,3.3-2.4,4.9-2,1.4-3.5,1.6-4.5.6ZM530.3,469.4c-1.6-.5-1.1-8.5.8-12.2,1.2-2.2,1.3-4.1.8-8-.7-5.8.4-7.7,4.8-8,3-.2,3.7-4.1,1.3-6.6-1-.8-2.4-4.2-3.5-7.5-1.3-4.1-2.5-6.3-4.1-7.4-1.7-1.2-2.8-3.3-4.2-8.3-2.9-9.7-5.6-12.8-7.5-8.5-.4,1-1.3,1.8-1.8,1.8-1.4.1-5.1-2.6-5.2-3.8,0-.5-1.7-1.3-3.8-1.7-5.1-1.1-5.2-1.3-4.1-5.3.8-3.1.7-3.8-1.1-6.9-1.9-3.3-2-3.4-5-2.5-1.7.5-4.4,1.3-6.2,1.7l-3.2.8v-7.4h-3.7c-3.1,0-3.9-.4-4.9-2.2-.6-1.3-2.9-4.1-4.8-6.6-3.6-4.2-3.7-4.3-6.9-3.5-1.8.4-3.8.4-4.3,0-1.3-.8-5.7.1-5.7,1.2s-.8.8-2,1c-1.6,0-2.6-.7-4.3-3.2-1.8-2.6-2.8-3.4-5.4-3.6-2.6-.2-4.1-1.3-8.4-5.7-3.3-3.5-5.2-6.2-5.3-7.7-.1-1.5-.6-2.2-1.5-2.1-2.4.2-9.2-4.5-11.2-7.7-1.4-2.3-2.9-3.5-5.6-4.3-2.5-.8-3.8-.8-4.2-.2-.3.6-1.3.7-3.3.2-2.9-.7-3.7-2.8-2.1-4.7,1.2-1.4-3.5-6.7-6.2-7.2-1.4-.2-2.2-1.2-2.8-3.2-.6-2.3-1.3-3-3.5-3.4-1.9-.3-3.1-2.6-3.7-6.9-.5-4-1.5-7.2-2.5-8.6-1-1.2-1.8-3.5-1.9-5.2-.3-4.8-2.4-11.2-4.2-12.6-.8-.6-3.3-1.7-5.4-2.3-2.1-.5-5.4-1.9-7.4-3s-6.1-3.3-9.1-4.9c-3-1.6-7-3-8.9-3.2-3.4-.3-3.7,0-7.4,4.4-2.1,2.6-4.5,5.8-5.5,7.2-2.5,3.8-7.7,6.5-13.5,6.9l-5.1.3.4-2.9c.2-1.6,1.1-4,1.8-5.3,1.8-3.3.8-3.9-6.2-4.1l-5.9-.2-3.3-6.7c-3-5.9-3.2-6.8-2-7.7,1.6-1.4,2.3-7.4.8-7.3-.5,0-1.7-1.3-2.6-2.9-.8-1.6-2.3-3.1-3.2-3.3-1.2-.3-1.7-1.3-1.8-3.4l-.2-3.1,3.8.3c3.4.2,4,0,5.8-2,1.2-1.3,2.4-2.3,3-2.4,2.2,0,.4-5.4-3.3-9.7l-3.8-4.5,2.6-3.1c2.2-2.6,3.2-3.2,6.8-3.4,2.3-.2,5.8-.8,7.9-1.5,2.6-.8,4.3-1.1,5.8-.5,3,1.2,6.7-1.9,7.7-6.3.4-1.9,1.5-3.9,2.4-4.5.8-.5,1.6-1.8,1.5-2.8-.1-2,1.4-2.2,3.7-.6,1.3.8,1.6,1.8,1.4,3.9-.2,2.1.2,3.4,1.5,4.9l1.8,2,1.9-2c2.1-2.3,3.1-2.5,4.7-1.3.7.7.8,1.5,0,3.3-1.2,2.6-.2,7,1.6,7.4.7.2,1-1.1.7-4-.2-3.7,0-4.5,2-6.2,1.5-1.3,2.6-3.3,3.2-5.8.7-3.5,1.1-4,3.3-4.1,2.2-.1,2.4,0,2.6,3,.2,2.9.4,3.1,2.1,2.4,1.1-.4,3.3-1.1,5-1.4,2.8-.6,3.3-.4,4.3,1.5.6,1.2,1.5,2.1,1.8,2.1,1.6,0,1.3-1.5-1-4.3l-2.4-3.2,2-2.3c1.9-2.2,2.3-2.3,4.8-1.5,3.6,1.3,4.4.3,4.1-4.5l-.3-4.2,3.6-.2c2.4-.2,4.2.3,5.6,1.5,2.5,2,4,1.1,5.2-3.6.7-2.8,1.1-3,4.3-3.3,2-.1,4.1,0,4.7.6.7.6,1.7.6,3.6-.3,1.9-1,2.9-1.1,3.7-.4,1,.6,1.7.3,3.1-1.4,2.4-3,9.2-3.8,9.3-1.2.1,1-1.1,2.5-2.5,3.6l-2.6,2h2.3c1.7-.2,2.5.2,3,1.7.3,1.1,2.5,3.3,4.9,4.8,4.2,2.8,4.3,2.9,15.1,2.6,6,0,11,0,11.2.3s.2,1.5.1,2.8c-.2,1.6-1.2,2.8-3.5,4-3.4,1.8-3.5,3.3-.1,3,1.2,0,2.5.5,3.1,1.5,1.5,2.4,1.3,3.4-.6,3.5-2.8.2-2.9,2.6-.2,4.9,1.3,1.1,2.4,2.6,2.5,3.5.1.8.8,2.1,1.8,2.9,1.1.8,1.6,2.1,1.5,3.5-.3,2.8-2,2.9-3.9.3-1.4-1.8-1.9-1.9-5.2-1.3-2,.4-4.4.4-5.4,0-2.4-1.1-4.1-.1-2.4,1.4.7.6,1.4,1.6,1.4,2,.1,1.2-7.5,5.4-9.2,5.2-.7-.1-1.8.4-2.3,1.1-.8,1.2-1.3,1.2-3.3.3-3-1.3-3.5-.8-4.4,3.4-.7,3.2-.6,3.6,1.2,5.3,1.1,1.1,2,2.6,2.1,3.6s.7,2,1.5,2.2c.8.3,1.4,1.6,1.6,3.8.2,3.3-.6,4.5-1.9,2.8-1.3-1.8-3.8,1.5-3.5,4.5.3,4.3,3.1,13.3,4.5,14.9,6.1,6.9,7.8,8.3,9.7,8.1,1.3,0,3.3,1,5.4,3,2,1.9,5,3.5,7.6,4.2,5.8,1.5,7.1,2.4,8.1,6,.4,1.6,1.8,4.2,3,5.8,1.4,1.8,2.5,4.9,3.2,8.4,1.6,9.1,4.8,14.4,12.3,20.6,3.6,3.1,7,5.5,7.4,5.5s2.4,1.2,4.4,2.6c2,1.4,4.1,2.8,4.8,2.6.5,0,2.1.6,3.5,1.6,2.2,1.5,2.8,1.5,5.7.4,2.2-.8,4.3-1.1,6.9-.6,2.6.4,4.4.2,6.8-.8,2.8-1.2,3.4-1.2,5.8,0,3.5,1.9,3.2,4.2-1.1,7.3-4.5,3.4-3.7,8.4,1.3,8,1.1,0,3,.7,4,1.7,1.2,1.1,5.2,2.6,9.4,3.8,8.5,2.1,21.5,7.7,23.3,10.1,1.5,1.9,7.7,3.7,11.6,3.4,2.3-.2,3.2.2,4.1,2.1.6,1.3,3.4,4.1,6,6.5,5.6,4.9,6.2,6.5,5.9,14,0,4.2-.6,5.8-1.8,6.6-2.3,1.5-6.7-1.5-9-5.9-1.1-2-2.8-4.8-3.9-6-1.9-2.2-2.5-2.4-7.1-2.1-5.7.4-9.7-1.2-10.7-4-.5-1.6-3.9-3.6-5.8-3.5-.8,0-2,3.7-2.5,7.5-.2,1.6-1.1,3.1-2.1,3.6-1.5.7-1.9,1.9-2.1,5.5,0,2.4-1,5.9-1.9,7.7-1.6,3.1-1.6,3.3,0,4.8s3.3,1.7,5.8,1.8c3.1.2,4.3.7,4.8,1.8.3.8,1.7,2,3.1,2.6,2.2,1,2.5,1.6,3.4,7.3.5,3.4,1.2,7.1,1.4,8.3.3,1.9,0,2.2-5.5,3.7-7.6,2-8.7,3.6-8.3,11,.3,5.3.2,5.6-2.8,8.6-1.8,1.8-3.3,4.2-3.5,5.7s-1.3,3.8-2.3,5.3c-1.7,2.3-2.5,2.8-6.3,3-2.9-.5-5.3-.5-5.9-.7h-.1ZM514.3,511.9c-1.1-1-3.3-1.3-7.4-1.3s-6.4-1-7.7-3.1c-2.3-3.8-6.9-5.9-13-5.9s-4.8-.3-6.7-2.6c-1.8-2.3-2.5-2.6-5.5-2.4-3.1.2-3.6,0-4.7-2.1-1.4-2.6-5.1-5.3-7.4-5.2-.8,0-2-.3-2.5-.7-.7-.6-1.6-.6-3.3.2-2.1,1.1-2.5,1-5.4-1.5-4.2-3.5-4.9-5.9-3-11,.8-2.2,2-4.1,2.6-4.2.6,0,1.5-.8,2-1.8,1.2-2.3,1.7-2.2,3.1.6,1.6,3.1,4,3,5-.2.5-1.9,1.3-2.5,3.6-3.1,1.6-.3,3.5-1,4.2-1.3,1-.4,1.5,0,1.9,1.8.5,2.1,1.1,2.4,3.2,2.2,1.4,0,2.6.3,3,.8.4.8,2.9,1,10.4.4,10.5-.6,11.4-1.1,15.8-5.6,1.8-1.9,2.3-2.1,4.2-1.4,3.3,1.3,6.3.7,7.4-1.3.5-1.1,1.5-1.6,2.2-1.4.6.2,2.3-.2,3.6-1.1,2.9-1.7,5.9-1.3,5.2.7-.2.7-.6,2.1-.7,3.1-.2,1-1,2.6-1.7,3.9-.7,1.3-1.3,2.5-1.3,3s-1.1,1.8-2.3,3.1c-1.9,1.9-2.2,2.8-1.7,4.4.4,1.4.2,2.8-.8,4.2-1.9,2.9-1.7,5.4.4,7.2,1.8,1.5,2.4,3.5,1.1,3.6-1.5,0-.7,2.4,1.1,3.2,2.4,1.2,2.4,4.4,0,5.3-1.8.6-1.9,1.1-1.7,5.5.4,5.5-.4,6.5-3.2,4Z"/>
    </clipPath>
    <linearGradient id="linear-gradient-22" x1="325.9" y1="223.5" x2="629.9" y2="223.5" gradientTransform="translate(-33.6 568.3) scale(1 -1)" gradientUnits="userSpaceOnUse">
      <stop offset="0" stop-color="#1c3760"/>
      <stop offset=".2" stop-color="#3d375b"/>
      <stop offset=".5" stop-color="#773446"/>
      <stop offset="1" stop-color="#c81d1c"/>
      <stop offset="1" stop-color="#cd181b"/>
    </linearGradient>
    <linearGradient id="linear-gradient-23" x1="-1604.7" y1="-5242.7" x2="-1574.5" y2="-5242.7" gradientTransform="translate(2178.5 5602) rotate(141.1) scale(1 -1)" gradientUnits="userSpaceOnUse">
      <stop offset="0" stop-color="#1c3760"/>
      <stop offset=".2" stop-color="#3d375b"/>
      <stop offset=".5" stop-color="#773446"/>
      <stop offset="1" stop-color="#c81d1c"/>
      <stop offset="1" stop-color="#cd181b"/>
    </linearGradient>
    <linearGradient id="linear-gradient-24" x1="445.5" y1="-5858.7" x2="475.6" y2="-5858.7" gradientTransform="translate(1136.9 6383.8) rotate(-180) scale(1 -1)" gradientUnits="userSpaceOnUse">
      <stop offset="0" stop-color="#1c3760"/>
      <stop offset=".2" stop-color="#3d375b"/>
      <stop offset=".5" stop-color="#773446"/>
      <stop offset="1" stop-color="#c81d1c"/>
      <stop offset="1" stop-color="#cd181b"/>
    </linearGradient>
    <linearGradient id="linear-gradient-25" x1="354.4" y1="-5700.2" x2="384.5" y2="-5700.2" gradientTransform="translate(769.4 5736.2) rotate(-180) scale(1 -1)" gradientUnits="userSpaceOnUse">
      <stop offset="0" stop-color="#1c3760"/>
      <stop offset=".2" stop-color="#3d375b"/>
      <stop offset=".5" stop-color="#773446"/>
      <stop offset="1" stop-color="#c81d1c"/>
      <stop offset="1" stop-color="#cd181b"/>
    </linearGradient>
    <linearGradient id="linear-gradient-26" x1="424.9" y1="-53.9" x2="439.9" y2="-53.9" gradientTransform="translate(-33.6 568.3) scale(1 -1)" gradientUnits="userSpaceOnUse">
      <stop offset="0" stop-color="#1c3760"/>
      <stop offset=".2" stop-color="#3d375b"/>
      <stop offset=".5" stop-color="#773446"/>
      <stop offset="1" stop-color="#c81d1c"/>
      <stop offset="1" stop-color="#cd181b"/>
    </linearGradient>
  </defs>
  <sodipodi:namedview id="namedview488" bordercolor="#000000" borderopacity="0.25" inkscape:current-layer="g485" inkscape:cx="1197.2263" inkscape:cy="283.76696" inkscape:deskcolor="#d1d1d1" inkscape:pagecheckerboard="0" inkscape:pageopacity="0.0" inkscape:showpageshadow="2" inkscape:window-height="1360" inkscape:window-maximized="0" inkscape:window-width="2147" inkscape:window-x="1711" inkscape:window-y="3" inkscape:zoom="0.55503291" pagecolor="#ffffff" showgrid="false">
    <inkscape:grid id="grid4501" type="xygrid"/>
  </sodipodi:namedview>
  <path id="circle4" class="cls-24" d="M399,1.6c219.2-2,402.1,184.3,397.3,402.4-1.2,211.8-175.7,388.4-387.3,392.3-159.2,5.7-312.7-92.7-374.7-239.1C-79.1,296.1,112.8,1.4,398.8,1.6h.2Z"/>
  <path id="path17" class="cls-4" d="M398.7,797.9c-142.4,1.3-281-80.5-348.9-205.5C-78.5,360.1,51.5,68.8,310.3,9.9c246.1-56.4,484.3,129.9,487.7,382.7,1.4,75.2-19.1,150.6-58.5,214.7-71.1,117.6-203,191.7-340.3,190.6h-.4ZM398.7,3.2C49.7,5.6-126.4,421.4,113.6,673.1c74.6,78.4,182.4,123.9,291.2,121.7,213.7-1.9,390.5-180.3,390-394.3C797.6,184.8,615.6,1.3,399.1,3.2h-.4Z"/>
  <g id="g381">
    <g id="g34">
      <polygon id="polygon32" class="cls-20" points="122.1 196.7 261.9 277.7 261 279.3 121.1 198.3 122.1 196.7"/>
    </g>
    <g id="g49">
      <polygon id="polygon47" class="cls-23" points="399.2 35.5 400.7 36.5 125.2 525.4 123.6 524.4 399.2 35.5"/>
    </g>
    <g id="g64">
      <polygon id="polygon62" class="cls-31" points="400.7 35.5 677.1 524.6 675.5 525.6 399.2 36.5 400.7 35.5"/>
    </g>
    <g id="g79">
      <rect id="rect77" class="cls-9" x="124.5" y="524" width="552" height="1.9"/>
    </g>
    <g id="g94">
      <polygon id="polygon92" class="cls-5" points="122.5 197.6 123.5 519.9 121.7 519.9 120.7 197.6 122.5 197.6"/>
    </g>
    <g id="g109">
      <polygon id="polygon107" class="cls-22" points="401.7 36.7 675.5 195.3 674.6 196.9 400.9 38.3 401.7 36.7"/>
    </g>
    <g id="g124">
      <polygon id="polygon122" class="cls-26" points="670.2 199.7 671.1 201.4 536.8 278.6 536 277.1 670.2 199.7"/>
    </g>
    <g id="g139">
      <polygon id="polygon137" class="cls-25" points="675.8 524.3 676.8 525.9 402 681.4 401.2 679.7 675.8 524.3"/>
    </g>
    <ellipse id="ellipse152" class="cls-30" cx="676.4" cy="197.5" rx="15" ry="15.1"/>
    <ellipse id="ellipse165" class="cls-7" cx="400" cy="680.6" rx="15" ry="15.1"/>
    <ellipse id="ellipse178" class="cls-1" cx="121.5" cy="197.6" rx="15" ry="15.1"/>
    <circle id="ellipse191" class="cls-12" cx="183.4" cy="161.6" r="7.5"/>
    <circle id="ellipse204" class="cls-19" cx="235.8" cy="131.3" r="7.5"/>
    <circle id="ellipse217" class="cls-6" cx="288.5" cy="101.1" r="7.5"/>
    <circle id="ellipse230" class="cls-16" cx="340.1" cy="70.7" r="7.5"/>
    <circle id="ellipse243" class="cls-2" cx="678.2" cy="446.7" r="7.5"/>
    <circle id="ellipse256" class="cls-29" cx="678.2" cy="384.9" r="7.5"/>
    <circle id="ellipse269" class="cls-3" cx="678.2" cy="323.3" r="7.5"/>
    <circle id="ellipse282" class="cls-18" cx="678.2" cy="265" r="7.5"/>
    <g id="g319">
      <g id="g296">
        <path id="SVGID" class="cls-32" d="M349.2,446.4c-.8-.8-1.4-1-2.1-.2-1.5,1.4-2.8.4-3-2.3-.1-1.3-.5-2.3-1.1-2.3s-.6.3-.4.6c.7,1.1-.7,3-2.1,2.5-1.5-.4-2.4-6.9-1-7,.4,0,.6-2.9.3-6.9-.4-6.2-.3-7.1,1.7-10.3,2.2-3.5,2.1-6-.1-5.8-1.6.1-2.4-2.1-1.4-3.6.6-1,.6-2.9,0-6.6-1.5-8.7-2-9.8-4.4-10.7-2-.6-2.3-1.2-2.5-4.4-.2-2.6.1-4,1.1-4.7,1.3-.8,1.3-1.1,0-1.8-2.1-1.3-.1-5.6,2.8-6.1,2.5-.5,3,.7.8,2.9-2.2,2.2-1.7,3.9,1.5,4.9,2,.5,3.8.5,6.1-.2,3.8-1.2,3.5-.8,4.9-4.1.6-1.6,2.9-3.7,5.7-5.5l4.7-3,3.2,3.1c1.7,1.7,3.2,3.6,3.3,4.2,0,.6.8,1.2,1.7,1.1,1.2-.1,1.7.4,1.8,1.9.1,1.5-.3,2.1-1.5,2.1-.8.1-1.6.5-1.6,1s1,.7,2,.6c2-.1,2.2.1,3.9,7.6.6,3,.4,3.8-1.5,6.7-2.6,3.9-3,6-1.1,8.4,1.3,1.6,1.4,2.2.1,8.1-1.1,4.8-1.2,7.2-.5,9.6.7,2.6.6,3.5-.4,4.5s-1.2,1.9-1,2.8c.2.7-.2,1.7-.8,2-.6.3-1.2,1.5-1.1,2.5.2,2.6-1.5,2.5-4.4-.2-4.1-3.7-7.1-2.3-6.7,3.1.2,2.5-.2,3.3-2.4,4.9-2,1.4-3.5,1.6-4.5.6h0ZM530.3,469.4c-1.6-.5-1.1-8.5.8-12.2,1.2-2.2,1.3-4.1.8-8-.7-5.8.4-7.7,4.8-8,3-.2,3.7-4.1,1.3-6.6-1-.8-2.4-4.2-3.5-7.5-1.3-4.1-2.5-6.3-4.1-7.4-1.7-1.2-2.8-3.3-4.2-8.3-2.9-9.7-5.6-12.8-7.5-8.5-.4,1-1.3,1.8-1.8,1.8-1.4.1-5.1-2.6-5.2-3.8,0-.5-1.7-1.3-3.8-1.7-5.1-1.1-5.2-1.3-4.1-5.3.8-3.1.7-3.8-1.1-6.9-1.9-3.3-2-3.4-5-2.5-1.7.5-4.4,1.3-6.2,1.7l-3.2.8v-7.4h-3.7c-3.1,0-3.9-.4-4.9-2.2-.6-1.3-2.9-4.1-4.8-6.6-3.6-4.2-3.7-4.3-6.9-3.5-1.8.4-3.8.4-4.3,0-1.3-.8-5.7.1-5.7,1.2s-.8.8-2,1c-1.6.1-2.6-.7-4.3-3.2-1.8-2.6-2.8-3.4-5.4-3.6s-4.1-1.3-8.4-5.7c-3.3-3.5-5.2-6.2-5.3-7.7-.1-1.5-.6-2.2-1.5-2.1-2.4.2-9.2-4.5-11.2-7.7-1.4-2.3-2.9-3.5-5.6-4.3-2.5-.8-3.8-.8-4.2-.2-.3.6-1.3.7-3.3.2-2.9-.7-3.7-2.8-2.1-4.7,1.2-1.4-3.5-6.7-6.2-7.2-1.4-.2-2.2-1.2-2.8-3.2-.6-2.3-1.3-3-3.5-3.4-1.9-.3-3.1-2.6-3.7-6.9-.5-4-1.5-7.2-2.5-8.6-1-1.2-1.8-3.5-1.9-5.2-.3-4.8-2.4-11.2-4.2-12.6-.8-.6-3.3-1.7-5.4-2.3-2.1-.5-5.4-1.9-7.4-3s-6.1-3.3-9.1-4.9-7-3-8.9-3.2c-3.4-.3-3.7-.1-7.4,4.4-2.1,2.6-4.5,5.8-5.5,7.2-2.5,3.8-7.7,6.5-13.5,6.9l-5.1.3.4-2.9c.2-1.6,1.1-4,1.8-5.3,1.8-3.3.8-3.9-6.2-4.1l-5.9-.2-3.3-6.7c-3-5.9-3.2-6.8-2-7.7,1.6-1.4,2.3-7.4.8-7.3-.5,0-1.7-1.3-2.6-2.9-.8-1.6-2.3-3.1-3.2-3.3-1.2-.3-1.7-1.3-1.8-3.4l-.2-3.1,3.8.3c3.4.2,4,0,5.8-2,1.2-1.3,2.4-2.3,3-2.4,2.2-.1.4-5.4-3.3-9.7l-3.8-4.5,2.6-3.1c2.2-2.6,3.2-3.2,6.8-3.4,2.3-.2,5.8-.8,7.9-1.5,2.6-.8,4.3-1.1,5.8-.5,3,1.2,6.7-1.9,7.7-6.3.4-1.9,1.5-3.9,2.4-4.5.8-.5,1.6-1.8,1.5-2.8-.1-2,1.4-2.2,3.7-.6,1.3.8,1.6,1.8,1.4,3.9-.2,2.1.2,3.4,1.5,4.9l1.8,2,1.9-2c2.1-2.3,3.1-2.5,4.7-1.3.7.7.8,1.5,0,3.3-1.2,2.6-.2,7,1.6,7.4.7.2,1-1.1.7-4-.2-3.7,0-4.5,2-6.2,1.5-1.3,2.6-3.3,3.2-5.8.7-3.5,1.1-4,3.3-4.1,2.2-.1,2.4.1,2.6,3s.4,3.1,2.1,2.4c1.1-.4,3.3-1.1,5-1.4,2.8-.6,3.3-.4,4.3,1.5.6,1.2,1.5,2.1,1.8,2.1,1.6-.1,1.3-1.5-1-4.3l-2.4-3.2,2-2.3c1.9-2.2,2.3-2.3,4.8-1.5,3.6,1.3,4.4.3,4.1-4.5l-.3-4.2,3.6-.2c2.4-.2,4.2.3,5.6,1.5,2.5,2,4,1.1,5.2-3.6.7-2.8,1.1-3,4.3-3.3,2-.1,4.1.1,4.7.6.7.6,1.7.6,3.6-.3,1.9-1,2.9-1.1,3.7-.4,1,.6,1.7.3,3.1-1.4,2.4-3,9.2-3.8,9.3-1.2.1,1-1.1,2.5-2.5,3.6l-2.6,2h2.3c1.7-.2,2.5.2,3,1.7.3,1.1,2.5,3.3,4.9,4.8,4.2,2.8,4.3,2.9,15.1,2.6,6-.1,11,0,11.2.3s.2,1.5.1,2.8c-.2,1.6-1.2,2.8-3.5,4-3.4,1.8-3.5,3.3-.1,3,1.2-.1,2.5.5,3.1,1.5,1.5,2.4,1.3,3.4-.6,3.5-2.8.2-2.9,2.6-.2,4.9,1.3,1.1,2.4,2.6,2.5,3.5.1.8.8,2.1,1.8,2.9,1.1.8,1.6,2.1,1.5,3.5-.3,2.8-2,2.9-3.9.3-1.4-1.8-1.9-1.9-5.2-1.3-2,.4-4.4.4-5.4,0-2.4-1.1-4.1-.1-2.4,1.4.7.6,1.4,1.6,1.4,2,.1,1.2-7.5,5.4-9.2,5.2-.7-.1-1.8.4-2.3,1.1-.8,1.2-1.3,1.2-3.3.3-3-1.3-3.5-.8-4.4,3.4-.7,3.2-.6,3.6,1.2,5.3,1.1,1.1,2,2.6,2.1,3.6s.7,2,1.5,2.2c.8.3,1.4,1.6,1.6,3.8.2,3.3-.6,4.5-1.9,2.8-1.3-1.8-3.8,1.5-3.5,4.5.3,4.3,3.1,13.3,4.5,14.9,6.1,6.9,7.8,8.3,9.7,8.1,1.3-.1,3.3,1,5.4,3,2,1.9,5,3.5,7.6,4.2,5.8,1.5,7.1,2.4,8.1,6,.4,1.6,1.8,4.2,3,5.8,1.4,1.8,2.5,4.9,3.2,8.4,1.6,9.1,4.8,14.4,12.3,20.6,3.6,3.1,7,5.5,7.4,5.5s2.4,1.2,4.4,2.6,4.1,2.8,4.8,2.6c.5,0,2.1.6,3.5,1.6,2.2,1.5,2.8,1.5,5.7.4,2.2-.8,4.3-1.1,6.9-.6,2.6.4,4.4.2,6.8-.8,2.8-1.2,3.4-1.2,5.8.1,3.5,1.9,3.2,4.2-1.1,7.3-4.5,3.4-3.7,8.4,1.3,8,1.1-.1,3,.7,4,1.7,1.2,1.1,5.2,2.6,9.4,3.8,8.5,2.1,21.5,7.7,23.3,10.1,1.5,1.9,7.7,3.7,11.6,3.4,2.3-.2,3.2.2,4.1,2.1.6,1.3,3.4,4.1,6,6.5,5.6,4.9,6.2,6.5,5.9,14,0,4.2-.6,5.8-1.8,6.6-2.3,1.5-6.7-1.5-9-5.9-1.1-2-2.8-4.8-3.9-6-1.9-2.2-2.5-2.4-7.1-2.1-5.7.4-9.7-1.2-10.7-4-.5-1.6-3.9-3.6-5.8-3.5-.8.1-2,3.7-2.5,7.5-.2,1.6-1.1,3.1-2.1,3.6-1.5.7-1.9,1.9-2.1,5.5,0,2.4-1,5.9-1.9,7.7-1.6,3.1-1.6,3.3,0,4.8s3.3,1.7,5.8,1.8c3.1.2,4.3.7,4.8,1.8.3.8,1.7,2,3.1,2.6,2.2,1,2.5,1.6,3.4,7.3.5,3.4,1.2,7.1,1.4,8.3.3,1.9,0,2.2-5.5,3.7-7.6,2-8.7,3.6-8.3,11,.3,5.3.2,5.6-2.8,8.6s-3.3,4.2-3.5,5.7-1.3,3.8-2.3,5.3c-1.7,2.3-2.5,2.8-6.3,3-2.9-.5-5.3-.5-5.9-.7h-.1ZM514.3,511.9c-1.1-1-3.3-1.3-7.4-1.3s-6.4-1-7.7-3.1c-2.3-3.8-6.9-5.9-13-5.9s-4.8-.3-6.7-2.6c-1.8-2.3-2.5-2.6-5.5-2.4-3.1.2-3.6,0-4.7-2.1-1.4-2.6-5.1-5.3-7.4-5.2-.8,0-2-.3-2.5-.7-.7-.6-1.6-.6-3.3.2-2.1,1.1-2.5,1-5.4-1.5-4.2-3.5-4.9-5.9-3-11,.8-2.2,2-4.1,2.6-4.2.6,0,1.5-.8,2-1.8,1.2-2.3,1.7-2.2,3.1.6,1.6,3.1,4,3,5-.2.5-1.9,1.3-2.5,3.6-3.1,1.6-.3,3.5-1,4.2-1.3,1-.4,1.5,0,1.9,1.8.5,2.1,1.1,2.4,3.2,2.2,1.4-.1,2.6.3,3,.8.4.8,2.9,1,10.4.4,10.5-.6,11.4-1.1,15.8-5.6,1.8-1.9,2.3-2.1,4.2-1.4,3.3,1.3,6.3.7,7.4-1.3.5-1.1,1.5-1.6,2.2-1.4.6.2,2.3-.2,3.6-1.1,2.9-1.7,5.9-1.3,5.2.7-.2.7-.6,2.1-.7,3.1-.2,1-1,2.6-1.7,3.9s-1.3,2.5-1.3,3-1.1,1.8-2.3,3.1c-1.9,1.9-2.2,2.8-1.7,4.4.4,1.4.2,2.8-.8,4.2-1.9,2.9-1.7,5.4.4,7.2,1.8,1.5,2.4,3.5,1.1,3.6-1.5,0-.7,2.4,1.1,3.2,2.4,1.2,2.4,4.4,0,5.3-1.8.6-1.9,1.1-1.7,5.5.4,5.5-.4,6.5-3.2,4h0Z"/>
      </g>
      <g id="g317">
        <g class="cls-33">
          <rect id="rect315" class="cls-17" x="292.3" y="173.3" width="304" height="343"/>
        </g>
      </g>
    </g>
    <g id="g327">
      <path id="SVGID-2" class="cls-15" d="M407.2,577.6l2.9,20.5h12.8v-16.9c0-1.7.8-3.2,2.6-3.2s2.5,1.5,2.5,3.2v17h15.6v-19.9c0-4-1-7-2.6-9.3-1.6-2.1-4.7-3.7-8.4-3.7s-4.9.8-6.2,1.9c-.8.6-1.4,1.2-2.2,1.9-.3.3-1.9,2-2.1,2h-.2l.6-5.2h-15.2v11.7h0Z"/>
      <path id="SVGID-3" class="cls-15" d="M361.8,583.4s.2,2.1.3,2.4c.1.7.3,1.5.5,2.1.2,1.1,1.1,2.9,1.6,3.6.7,1.2,1.5,1.9,2.4,3,1,1,1.9,1.5,3.1,2.2,1.8,1.2,5.5,2.2,8.5,2.1,2,0,3.1,0,4.9-.3,1.1-.2,3.4-.7,4.1-1.1l.6-13c-1.9,1-2.9,2.4-5.9,2.4s-3.4-1.3-4.1-2.6c-.8-1.7-.3-4,.6-5.1,1.1-1.1,3.1-2,5.1-1.4.8.3,1.7.5,2.3,1.1.7.4,1.3,1,1.9,1.5v-.7l-1-6.9,1-.3v-4.8l-.8-.5c-1.4-.3-2.5-.7-4.1-1-1.2-.2-3.4-.4-4.7-.4-5,0-9,2.1-11.5,4.7-1.3,1.3-2.6,3-3.3,4.8-.4,1-.7,2-1.1,3.1-.1.4-.4,3.5-.5,3.6v1.6h.1Z"/>
      <polygon id="SVGID-4" class="cls-8" points="389.1 579.6 392.9 606.5 393.2 606.5 408.6 601.8 408 598.2 405.3 577.6 403.8 567.9 403.9 567.9 389.1 572.4 388.2 572.7 389.1 579.6"/>
      <rect id="SVGID-5" class="cls-21" x="445.9" y="566" width="15.6" height="32.2"/>
      <path id="SVGID-6" class="cls-8" d="M388.3,567.1l.8.5c.8.4,1.9.7,3.1.7h.4c2.3,0,5.1-1.3,6.6-2.2.2,0,.8-.7,1.2-1.1.6-.5.5-.6,1-1.1s.6-.8.8-1.4c.1-.3.5-1.3.7-1.6l.3-2.5h0l-.3-2.2h-.1.1c-.1-.8-.8-2.1-1.2-2.6-.5-.7-1.4-1.4-2.2-1.8-1.9-1-4.8-.7-6.7,0-.4.2-1,.4-1.4.5-.5.2-.7.5-1.3.7-.2,0-1.1.7-1.2.8s-.3.3-.5.5c-.4.3-.2.2-.4.5-1.1,1.2-2.4,3.4-2.4,5.6s.1,1.5.2,2c0,.5.4,1.2.4,1.7.4,1.3,1.6,2.3,2.1,3"/>
      <path id="SVGID-7" class="cls-15" d="M453.9,563.7c2.4,0,4.3-.7,5.9-1.8,1.3-.8,2.5-3.1,2.5-5.2v-.5c0-1.3-.1-2.1-.5-3,.3,0-.8-1.7-1.1-1.9-.6-.6-1-1-1.7-1.5-1.3-.8-3.1-1.3-5.2-1.3s-4.5.7-6.1,2c-1.5,1.3-2.5,3.1-2.4,5.6.1,4.8,3.5,7.6,8.6,7.6"/>
    </g>
    <ellipse id="ellipse340" class="cls-13" cx="121.9" cy="525" rx="15" ry="15.1"/>
    <ellipse id="ellipse353" class="cls-27" cx="676.4" cy="525.1" rx="15" ry="15.1"/>
    <ellipse id="ellipse366" class="cls-14" cx="400" cy="36" rx="15" ry="15.1"/>
    <circle id="ellipse379" class="cls-28" cx="398.8" cy="622.2" r="7.5"/>
  </g>
  <g id="g433">
    <g id="g431">
      <path id="path383" class="cls-11" d="M76.9,596.9c-2.4-3.7-3.6-7.2-3.4-10.4s1.9-5.7,5.1-7.7c3.3-2,5-3.1,8.3-5.1,3.2-2,6.1-2.4,9-1.3,2.8,1.1,5.3,3.3,7.5,6.8,0,0,.1,0,.2.2,2.2,3.4,3.3,6.6,3.2,9.5,0,3-1.7,5.6-4.7,7.8-1.1-1.5-1.6-2.2-2.5-3.7,2.3-1.7,3.6-3.5,3.7-5.4.2-1.9-.5-4.1-2.2-6.7,0,0-.1,0-.2-.2-1.7-2.5-3.4-4.1-5.2-4.7-1.8-.6-3.9,0-6.3,1.4-3.3,2.1-4.9,3.1-8.1,5.2-2.4,1.6-3.7,3.3-3.9,5.3-.2,2,.6,4.3,2.3,7.1,0,0,0,.2.2.3,1.8,2.8,3.6,4.3,5.5,5,1.9.6,4,0,6.3-1.6,1.1,1.5,1.6,2.2,2.6,3.7-3.1,2.2-6,2.9-8.9,1.8-3-1.1-5.6-3.4-8-7.1q-.4,0-.5-.2h0Z"/>
      <path id="path385" class="cls-11" d="M96.5,623.5c4.1-3.4,6.2-5,10.4-8.4,2.3-8.5,3.6-12.6,6.3-20.7,1.1,1.5,1.7,2.2,2.8,3.7-2.2,6.5-3.3,9.7-5.2,16.4,0,.2.2.2.3.4,6.8-.5,10.2-.8,16.8-1.6,1.2,1.4,1.8,2.1,3,3.5-8.4,1-12.7,1.4-21.3,1.9-4.1,3.4-6.1,5.1-10.3,8.5-1.2-1.5-1.8-2.3-2.8-3.7h0Z"/>
      <path id="path387" class="cls-11" d="M137.1,646.1c2.6,3.9,2.6,7.2.1,10.1,0,0-.1,0-.2.2-1.8,1.9-4,2.8-6.5,2.3s-5.1-1.9-7.7-4.7c-4.1-4.2-6.1-6.5-10.1-10.9,7.6-7,15.2-14,22.7-20.9,3.3,3.7,4.9,5.5,8.3,9,2.4,2.5,3.9,5,4.2,7.3.4,2.3-.3,4.4-2,6.1-.1,0-.2.2-.3.3-2.2,2.3-5,2.6-8.4.7,0,.3,0,.4-.1.5h0ZM142.9,641.9c1.2-1.2,1.7-2.5,1.5-3.9s-1.2-2.9-2.8-4.7c-2.2-2.3-3.4-3.5-5.5-5.9-3.1,2.9-4.5,4.3-7.6,7.2,2.2,2.4,3.4,3.7,5.7,6.1,1.7,1.8,3.3,2.9,4.7,3.1,1.4.2,2.6-.3,3.9-1.6,0,0,0-.2.1-.3h0ZM134,653.1c0,0,.1,0,.2-.2,1.3-1.3,1.8-2.6,1.6-4.1-.2-1.4-1.2-3-3-4.9-2.8-2.9-4.1-4.3-6.8-7.2-3.2,3.1-4.9,4.5-8,7.5,2.8,3.1,4.1,4.5,7,7.4,1.8,1.9,3.4,2.9,4.9,3.1,1.4.4,2.7-.2,4.1-1.6Z"/>
      <path id="path389" class="cls-11" d="M173.8,663.2c-5.6-4.7-8.4-7-13.9-12-2.9,3.2-4.2,4.9-7.1,8,4.2,3.8,6.3,5.6,10.6,9.3-.8,1-1.2,1.5-2,2.4-4.3-3.6-6.5-5.5-10.7-9.3-2.9,3.3-4.3,4.9-7.2,8.1,5.8,5.3,8.8,7.8,14.8,12.8-.7,1-1.2,1.5-1.9,2.4-7.4-6-11.1-9.2-18.2-15.9,6.9-7.6,13.9-15.3,20.7-23,6.6,6.1,9.9,9,16.7,14.6-.6,1.2-1.1,1.7-1.8,2.6h0Z"/>
      <path id="path391" class="cls-11" d="M195.7,687.5c-3.2,4.8-7.6,5.5-13.1,2.1,0,0-.1,0-.1.2.2,6.1.4,9.2,1,15.3-1.6-1.1-2.4-1.7-4-2.8-.4-6.2-.5-9.4-.7-15.7-1.8-1.4-2.8-2-4.5-3.4-3,3.9-4.3,5.9-7.3,9.8-1.4-1.1-2.1-1.6-3.5-2.6,6.2-8.3,12.5-16.5,18.7-24.7,3.9,3.1,5.9,4.5,9.8,7.4,6,4.3,7.3,8.9,3.9,14.2-.1,0-.2,0-.2.2h0ZM192.4,685c1.3-1.9,1.7-3.6,1.4-5-.4-1.4-1.6-2.9-3.7-4.3-2.8-2-4-3-6.8-5-3,4-4.4,6-7.4,10.1,2.8,2.1,4.1,3.2,7,5.2,2.1,1.6,3.9,2.2,5.4,2.2s2.9-1.1,4.1-3v-.2Z"/>
      <path id="path393" class="cls-11" d="M200.1,716.5c-3.6-2.2-6-4.7-7.2-7.4-1.2-2.6-.8-5.5,1-8.4,1.4,1,2.1,1.4,3.6,2.3-1.4,2.1-1.7,4-1,5.7s2.4,3.4,5.2,5h.2c5,3,8.4,2.9,10.2-.2.3-.5.5-1.1.6-1.6s0-1.1-.2-1.7c-.2-.5-.4-1.1-.6-1.5-.2-.4-.5-1-1.1-1.6-.5-.6-1-1.1-1.3-1.5-.3-.3-.8-.8-1.5-1.6-.6-.7-1.2-1.2-1.4-1.4-1.2-1.3-2.1-2.3-2.8-3.1-.6-.8-1.3-1.9-2-3.2s-1.1-2.5-1-3.7.4-2.4,1.2-3.6c1.4-2.1,3.3-3.2,5.7-3.3s5.1.7,7.9,2.4h.2c3.1,1.9,5.2,4,6.2,6.6,1.1,2.5.8,5.2-.8,8.1-1.4-.8-2.1-1.2-3.5-2,1.3-2.2,1.5-4.1.8-5.7-.6-1.6-2.1-3.1-4.3-4.4h-.2c-4-2.4-6.9-2.3-8.6.4-.2.3-.3.6-.4,1.1-.1.3-.2.7-.2,1s0,.6.1,1.1c.1.4.2.7.3,1,.1.2.2.6.5,1.1.3.4.5.7.6,1,.1.2.4.5.8,1,.4.4.6.7.8,1,.1,0,.4.5,1,1,.4.5.7.8,1,1,2.6,2.8,4.4,4.8,5.3,6.1,1.8,2.9,2,5.6.6,8.1-1.3,2.3-3.3,3.6-6,3.7-2.8,0-5.9-.8-9.3-2.9h-.4Z"/>
      <path id="path395" class="cls-11" d="M252,711.7c-6.5-2.9-9.6-4.4-15.9-7.6-1.9,3.8-2.9,5.7-4.9,9.6,4.9,2.4,7.3,3.7,12.2,5.9-.5,1.2-.7,1.7-1.3,2.9-5-2.3-7.4-3.5-12.3-6-1.9,3.9-3,5.8-4.9,9.7,6.8,3.5,10.2,5.1,17,8.1-.5,1.2-.7,1.7-1.3,2.9-8.5-3.8-12.7-5.8-20.9-10.2,4.8-9.2,9.5-18.4,14.3-27.6,7.6,4,11.4,5.9,19.3,9.4-.6,1.1-.8,1.7-1.3,2.9h0Z"/>
      <path id="path397" class="cls-11" d="M258.4,745.1c-3.7-1.5-6.2-3.5-7.7-6-1.4-2.5-1.4-5.6.1-9.1,1.5-3.6,2.3-5.4,3.8-9,1.5-3.5,3.6-5.6,6.2-6.5s5.7-.6,9.1.7h.2c3.4,1.4,5.8,3.2,7.2,5.6,1.4,2.4,1.5,5.4.2,9-1.5-.5-2.2-.8-3.8-1.4,1-2.8,1.1-4.9.2-6.5-.8-1.6-2.4-2.9-5-3.9h-.2c-2.5-1-4.5-1.2-6.2-.5-1.7.6-3.1,2.3-4.1,5-1.5,3.6-2.2,5.4-3.7,9-1.1,2.6-1.3,4.9-.4,6.6.8,1.7,2.6,3.1,5.3,4.1h.3c2.6,1.1,5,1.3,6.7.5,1.7-.6,3.1-2.3,4-5.1,1.6.5,2.3.8,3.9,1.4-1.3,3.6-3.2,5.8-5.9,6.8-2.7,1-6,.7-9.7-.7h-.5Z"/>
      <path id="path399" class="cls-11" d="M291.6,756.4c-3.8-1.1-6.5-2.9-8-5.1-1.6-2.3-1.8-5.2-.6-8.6,2.5-8,3.8-12,6.3-20,1.5.5,2.2.7,3.7,1.2-2.4,8-3.7,12.1-6.1,20-.7,2.5-.7,4.5.2,6,1,1.5,2.8,2.6,5.5,3.4h.3c2.8.7,4.9.7,6.5,0s2.6-2.4,3.4-5.1c2.1-8.1,3.2-12.2,5.3-20.3,1.5.4,2.2.6,3.8,1-2,8.1-3.1,12.2-5.1,20.3-.8,3.5-2.5,5.7-5.1,6.9-2.5,1.2-5.7,1.2-9.5,0h-.6v.3Z"/>
      <path id="path401" class="cls-11" d="M341.9,744.9c-.8,5.6-4.4,8.3-10.8,7.6v.2c2.6,5.4,4,8.1,7,13.4-1.9-.3-2.8-.4-4.7-.7-2.9-5.5-4.2-8.3-6.9-13.8-2.1-.4-3.3-.6-5.4-1.1-1.1,4.8-1.5,7.2-2.5,12-1.7-.3-2.4-.5-4.1-.8,2.2-10.2,4.4-20.2,6.8-30.4,4.7,1.1,7,1.5,11.6,2.4,7,1.3,10.1,4.9,9.1,11-.1,0-.1.2-.1.2h0ZM338.1,744.2c.4-2.3.1-3.9-.8-5.1-1-1.1-2.5-1.8-5-2.3-3.2-.6-4.8-1-7.9-1.6-1.1,4.9-1.6,7.4-2.5,12.3,3.3.7,4.9,1.1,8.3,1.6,2.5.4,4.3.3,5.6-.4,1.1-.8,1.9-2.3,2.3-4.5h0Z"/>
      <path id="path403" class="cls-11" d="M347.1,767.6c1.4-10.3,2.8-20.5,4.1-30.8,1.6.2,2.3.3,3.8.5-1.3,10.3-2.5,20.6-3.8,30.9-1.6-.3-2.4-.4-4.1-.6h0Z"/>
      <path id="path405" class="cls-11" d="M385.8,739.6c0,1.3-.1,1.9-.1,3.2-4.1,0-6.2-.2-10.3-.5-.7,11.1-1.1,16.7-1.8,27.9-1.7,0-2.5-.2-4.2-.3.8-11.1,1.3-16.7,2.1-27.8-4.1-.3-6.1-.5-10.3-1,.1-1.3.2-1.9.3-3.2,9.7,1.1,14.6,1.4,24.3,1.7h0Z"/>
      <path id="path407" class="cls-11" d="M399.6,771.1v-13.4c-4.7-7.1-6.9-10.6-11-17.8h4.1c3.3,5.7,5.1,8.6,8.6,14.3h.5c3.5-5.7,5.2-8.6,8.5-14.4h4.1c-4.1,7.3-6.2,10.9-10.8,18,.1,5.4.1,8,.2,13.4h-4.2Z"/>
      <path id="path409" class="cls-21" d="M437.7,769c-1.1-10.4-2-20.6-3.1-31,2.3-.2,3.5-.3,5.8-.6,6.2,9.8,9.5,14.7,16.4,24.3h.5c-1.6-10.4-2.3-15.6-3.9-25.9,1.5-.2,2.2-.3,3.7-.6,1.7,10.3,3.4,20.4,5,30.7-2.4.4-3.7.6-6.1,1-7-9.6-10.3-14.5-16.5-24.3h-.4c1.2,10.5,1.7,15.7,2.9,26.1-1.9.2-2.7.3-4.3.4h0Z"/>
      <path id="path411" class="cls-21" d="M493.1,759.4c-2.1-3.4-3.3-5.2-5.4-8.6-4.9,1.2-7.2,1.7-12.1,2.8-.4,4-.7,6-1.3,10.1-1.8.3-2.6.5-4.4.8,1.7-10.8,3.1-21.7,4.1-32.6,2.3-.5,3.5-.7,5.8-1.3,5.5,9.4,11.4,18.6,17.5,27.7-1.5.5-2.4.7-4.2,1.1ZM476.1,750.2c4-.8,6-1.3,10.1-2.2-3.3-5.4-4.9-8.1-8-13.6h-.4c-.8,6.3-1.1,9.5-1.7,15.7h0Z"/>
      <path id="path413" class="cls-21" d="M513.4,721c.4,1.2.6,1.8,1,3-3.9,1.4-5.9,2-9.9,3.2,3.3,10.7,4.9,16.1,8.1,26.8-1.6.5-2.4.7-4,1.3-3.2-10.7-4.7-16.1-7.8-26.9-4,1.2-6,1.7-10.1,2.8-.3-1.3-.5-1.8-.8-3.1,9.6-2.4,14.2-3.9,23.5-7.1Z"/>
      <path id="path415" class="cls-21" d="M530,748.2c-3.5-9.7-7-19.6-10.5-29.3,1.5-.5,2.2-.8,3.7-1.4,3.6,9.7,7.2,19.5,10.8,29.2-1.5.7-2.4.9-4,1.5Z"/>
      <path id="path417" class="cls-21" d="M555.4,738.5c-3.7,1.6-6.9,2-9.7,1.2s-4.9-3-6.2-6.5c-1.5-3.6-2.1-5.4-3.6-9.1-1.4-3.5-1.4-6.5,0-9,1.3-2.5,3.6-4.4,7-5.9h.2c3.4-1.5,6.3-1.9,9.1-1.2s4.9,2.8,6.6,6.1c1.7,3.5,2.5,5.3,4.2,8.8,1.6,3.4,1.8,6.5.5,9.1s-3.8,4.8-7.4,6.5h-.7ZM554.2,735.6h.2c2.6-1.2,4.3-2.6,5.1-4.3.7-1.7.5-3.9-.6-6.5-1.7-3.6-2.5-5.4-4.1-8.9-1.2-2.5-2.6-4.1-4.3-4.7-1.7-.5-3.8-.2-6.2.8h-.2c-2.4,1.1-4.1,2.4-4.9,4.1-.7,1.6-.6,3.8.5,6.5,1.5,3.6,2.2,5.5,3.7,9.1,1.1,2.6,2.5,4.3,4.3,4.9,1.6.5,3.8.3,6.5-1h0Z"/>
      <path id="path419" class="cls-21" d="M576.2,728c-4.7-9.2-9.4-18.4-14.1-27.7,2.1-1.1,3.2-1.7,5.2-2.8,9.4,6.9,14.3,10.2,24.3,16.4.2,0,.3,0,.4-.2-5.3-9.1-7.9-13.6-13.1-22.7,1.4-.7,2-1.2,3.3-2,5.3,8.9,10.6,17.8,15.9,26.7-2.2,1.4-3.3,2-5.5,3.3-10.1-6.2-14.9-9.5-24.4-16.4-.1,0-.3,0-.4.2,4.9,9.3,7.3,14,12.2,23.3-1.6.7-2.3,1.2-3.8,1.9h0Z"/>
      <path id="path421" class="cls-21" d="M625.4,697.5c-3.3-2.3-5-3.5-8.1-5.9-4.1,3-6.2,4.4-10.5,7.3,1.1,3.9,1.5,5.9,2.4,9.8-1.6,1.1-2.3,1.6-3.9,2.5-2.3-10.7-4.9-21.5-7.8-32.1,2-1.4,3.1-2.1,5.1-3.5,8.7,6.6,17.6,12.9,26.7,18.9-1.7,1.3-2.4,1.9-3.9,3ZM605.8,695.6c3.5-2.3,5.3-3.6,8.7-6-5.1-3.8-7.6-5.7-12.6-9.6-.2,0-.2.2-.4.3,1.9,6.1,2.7,9.2,4.3,15.3Z"/>
      <path id="path423" class="cls-21" d="M637.3,684.4c5.4-4.3,8-6.6,13.2-11.2.8,1,1.3,1.4,2,2.3-6.6,5.8-9.9,8.7-16.8,14.1-6.2-8.3-12.6-16.4-18.8-24.7,1.3-1,1.9-1.5,3.2-2.5,6.9,8.8,10.4,13.2,17.2,22h0Z"/>
      <path id="path425" class="cls-21" d="M670.9,653.8c5-5.1,7.4-7.7,12.2-13,1,.8,1.4,1.3,2.3,2.1-6,6.8-9.1,10.1-15.3,16.3-7.2-7.4-14.4-14.8-21.6-22.2l3-3c7.6,8,11.5,11.9,19.4,19.8h0Z"/>
      <path id="path427" class="cls-21" d="M704.7,619.2c-3.9-1.3-5.8-1.9-9.6-3.2-3.4,4.3-5.1,6.5-8.5,10.6,2,3.6,3.1,5.3,5,8.9-1.3,1.5-1.9,2.2-3.2,3.8-5.1-9.8-10.4-19.5-16-29,1.7-2,2.4-3.1,4.1-5.1,10.3,3.7,20.7,7,31.2,10.1-1.2,1.5-1.7,2.3-3,3.9ZM685,623.8c2.9-3.5,4.2-5.2,7-8.8-6-2.1-9-3.2-14.9-5.4,0,.2-.2.2-.3.4,3.4,5.4,5,8.2,8.2,13.8Z"/>
      <path id="path429" class="cls-21" d="M711.2,582.4c3.4-3.7,6.7-4.5,9.8-2.6,0,0,.2,0,.3.2,2.2,1.4,3.5,3.4,3.5,6s-1,5.7-3.2,9c-3.4,5.2-5.1,7.8-8.7,12.8-8.4-6-16.7-12.1-25-18.1,2.9-4.1,4.3-6.2,7.1-10.5,2-3.2,4.1-5.2,6.3-6.1,2.2-1,4.3-.8,6.5.5.1,0,.3,0,.4.2,2.8,1.7,3.6,4.5,2.3,8.4.3,0,.6,0,.7.2h0ZM705.9,577.5c-1.4-1-2.8-1.1-4.1-.5-1.3.5-2.6,1.9-4,4-1.9,2.9-2.9,4.2-4.8,7.1,3.4,2.4,5.2,3.6,8.6,6,2-2.9,3-4.3,4.9-7.3,1.5-2.2,2.1-4.1,2.1-5.5s-.8-2.6-2.3-3.6c-.2,0-.3,0-.4-.2ZM718.7,583.9s-.2,0-.3-.2c-1.5-1-3-1.2-4.3-.6-1.4.5-2.8,2-4.1,4.2-2.2,3.5-3.4,5.2-5.7,8.6,3.6,2.5,5.4,3.8,9,6.3,2.4-3.5,3.6-5.3,5.9-8.9,1.5-2.3,2.2-4.2,2.1-5.7-.2-1.4-1-2.7-2.6-3.7h0Z"/>
    </g>
  </g>
  <g id="g483">
    <path id="path435" class="cls-11" d="M926.8,354.4c-15.4,0-27.5-4.4-36.4-13.3s-13.3-22.5-13.3-40.8v-47.5c0-18.4,4.4-32,13.3-40.8,8.9-8.9,21.1-13.3,36.4-13.3h1.1c15.4,0,27.5,4.4,36.4,13.3,8.9,8.9,13.3,22.5,13.3,40.8h-16.4c0-14.1-2.8-24.1-8.3-30.2-5.5-6-13.9-9-25.1-9h-1.1c-11.2,0-19.7,3-25.1,9-5.5,6-8.3,16.1-8.3,30.2v47.5c0,14.1,2.8,24.1,8.3,30.2,5.5,6,13.9,9,25.1,9h1.1c11.2,0,19.6-3,25.1-9s8.3-16.1,8.3-30.2h16.4c0,18.4-4.4,32-13.3,40.8-8.9,8.8-21.1,13.3-36.4,13.3h-1.1Z"/>
    <path id="path437" class="cls-11" d="M1032.3,352.2v-65.6l-46.9-86h17.8l36.2,69.1h2l36.4-69.1h17.8l-46.9,86.2v65.3h-16.4Z"/>
    <path id="path439" class="cls-11" d="M1184.6,275c17.7,4.3,26.5,15.8,26.5,34.4v1.8c0,13-3.7,23.1-11.2,30.3-7.5,7.1-18.2,10.7-32.1,10.7h-53.7v-151.5h48c14.1,0,24.9,3.4,32.4,10.2s11.2,16.2,11.2,28.4v2.4c0,15.9-7,26.3-20.8,31.5v1.9h-.3ZM1189,240.4c0-8.3-2.1-14.5-6.5-18.4-4.3-4-11.2-6-20.6-6h-31.7v51.5h31.7c9.6,0,16.5-2,20.7-6.1,4.2-4,6.3-10.5,6.3-19.3v-1.7h0ZM1194.5,310.2v-1.6c0-8.9-2.1-15.4-6.5-19.6s-11.2-6.2-20.6-6.2h-37.3v54h37.3c9.5,0,16.4-2.1,20.6-6.3,4.4-4.2,6.5-11,6.5-20.3Z"/>
    <path id="path441" class="cls-11" d="M1326.2,216h-73.1v52.4h54.7v15.3h-54.7v53.1h73.1v15.3h-89.5v-151.4h89.5v15.3h0Z"/>
    <path id="path443" class="cls-11" d="M1444.5,246.9c0,27.8-12.7,43-38.2,45.3v1.1l36.2,58.9h-18.4l-36.7-59.8h-22.2v59.8h-16.4v-151.5h50.5c30.3,0,45.3,15.2,45.3,45.5v.7h-.1ZM1428.2,246.2c0-11.2-2.2-19.2-6.8-23.6-4.6-4.4-12-6.7-22.3-6.7h-34v61h34c10.4,0,17.8-2.2,22.3-6.7,4.5-4.4,6.8-12.3,6.8-23.6v-.4h0Z"/>
    <path id="path445" class="cls-11" d="M1509.4,354.4c-16.2,0-28.9-3.9-38.1-11.9-9.3-7.9-13.9-20.2-13.9-36.8h16.4c0,12.3,2.9,20.9,8.7,26,5.8,5.1,14.7,7.5,26.9,7.5h1.2c22.3,0,33.5-8.7,33.5-26s-.4-5.9-1.2-8.4c-.7-2.4-2-4.7-3.8-6.6s-3.5-3.6-5-4.9c-1.6-1.4-3.8-2.6-6.9-4s-5.4-2.3-7.1-3c-1.7-.6-4.4-1.6-8.1-2.8-3.7-1.2-6.2-2-7.5-2.4-6.6-2.2-11.7-4.2-15.6-5.9-3.8-1.7-8.3-4.2-13.3-7.6-5.1-3.4-8.8-7.6-11.2-12.7-2.4-5.1-3.7-11-3.7-17.8,0-12.3,4.3-21.9,12.6-28.8,8.3-6.9,19.3-10.4,33-10.4h1.1c15.1,0,27.1,3.9,36,11.9s13.3,20.2,13.3,36.8h-16.4c0-12.3-2.8-20.9-8.4-26s-13.8-7.5-24.5-7.5h-1.1c-19.3,0-28.9,8-28.9,24s.2,3.8.6,5.6.8,3.4,1.4,4.7c.5,1.3,1.3,2.6,2.5,4,1.3,1.4,2.2,2.4,3,3.3.7.8,2,1.9,3.9,2.9,1.8,1.1,3.2,1.8,4.1,2.3.8.5,2.4,1.3,4.8,2.1,2.4.8,3.8,1.5,4.7,1.8.8.3,2.5.8,5.1,1.7,2.5.8,4.2,1.4,5,1.7,14.7,4.9,24.8,9.1,30.3,12.7,11.9,7.8,17.8,18.9,17.8,33.3s-4.5,23.2-13.5,30.4c-9,7.2-21.2,10.8-36.4,10.8h-1.3Z"/>
    <path id="path447" class="cls-11" d="M1673.8,216h-73.1v52.4h54.7v15.3h-54.7v53.1h73.1v15.3h-89.5v-151.4h89.5v15.3h0Z"/>
    <path id="path449" class="cls-11" d="M1738.7,354.4c-15.4,0-27.5-4.4-36.4-13.3s-13.3-22.5-13.3-40.8v-47.5c0-18.4,4.4-32,13.3-40.8,8.9-8.9,21.1-13.3,36.4-13.3h1.1c15.4,0,27.5,4.4,36.4,13.3,8.9,8.9,13.3,22.5,13.3,40.8h-16.4c0-14.1-2.8-24.1-8.3-30.2-5.5-6-13.9-9-25.1-9h-1.1c-11.2,0-19.7,3-25.1,9-5.5,6-8.3,16.1-8.3,30.2v47.5c0,14.1,2.8,24.1,8.3,30.2,5.5,6,13.9,9,25.1,9h1.1c11.2,0,19.6-3,25.1-9s8.3-16.1,8.3-30.2h16.4c0,18.4-4.4,32-13.3,40.8s-21.1,13.3-36.4,13.3h-1.1Z"/>
    <path id="path451" class="cls-11" d="M1864.5,354.4c-15.2,0-27.2-4.2-35.7-12.7-8.6-8.5-12.8-21.4-12.8-38.9v-102.1h16.4v102.2c0,13,2.5,22.3,7.6,28,5.1,5.6,13.2,8.5,24.3,8.5h1.2c11.1,0,19.3-2.9,24.3-8.5s7.6-14.9,7.6-28v-102.2h16.4v102.2c0,17.4-4.2,30.3-12.8,38.7-8.6,8.6-20.4,12.8-35.7,12.8h-.8Z"/>
    <path id="path453" class="cls-11" d="M2041.9,246.9c0,27.8-12.7,43-38.2,45.3v1.1l36.2,58.9h-18.4l-36.7-59.8h-22.2v59.8h-16.4v-151.5h50.5c30.3,0,45.3,15.2,45.3,45.5v.7h-.1ZM2025.7,246.2c0-11.2-2.2-19.2-6.8-23.6-4.5-4.4-12-6.7-22.3-6.7h-34v61h34c10.4,0,17.8-2.2,22.3-6.7,4.5-4.4,6.8-12.3,6.8-23.6v-.4h0Z"/>
    <path id="path455" class="cls-11" d="M2065.5,352.2v-151.5h16.4v151.5h-16.4Z"/>
    <path id="path457" class="cls-11" d="M2203.3,200.7v15.3h-43.6v136.2h-16.4v-136.2h-43.6v-15.3h103.6Z"/>
    <path id="path459" class="cls-11" d="M2251.5,352.2v-65.6l-46.9-86h17.8l36.2,69.1h2l36.4-69.1h17.8l-46.9,86.2v65.3h-16.4Z"/>
    <path id="path461" class="cls-21" d="M882.8,573.3v-151.5h24.7l53.3,128h2v-128h16v151.5h-24.4l-53.5-128h-2v128h-16.1Z"/>
    <path id="path463" class="cls-21" d="M1092.9,573.3l-12.5-46.9h-49.5l-12.7,46.9h-17.8l42.4-151.5h25.3l42,151.5h-17.2ZM1034.9,511.1h41.4l-19.6-73.7h-2l-19.8,73.7h0Z"/>
    <path id="path465" class="cls-21" d="M1205.4,421.8v15.3h-43.6v136.2h-16.4v-136.2h-43.6v-15.3h103.6Z"/>
    <path id="path467" class="cls-21" d="M1223,573.3v-151.5h16.4v151.5h-16.4Z"/>
    <path id="path469" class="cls-21" d="M1317.9,575.5c-15.4,0-27.5-4.4-36.4-13.3-8.9-8.9-13.3-22.5-13.3-40.8v-47.5c0-18.4,4.4-32,13.3-40.8s21.1-13.3,36.4-13.3h1.1c15.4,0,27.5,4.4,36.4,13.3s13.3,22.5,13.3,40.8v47.5c0,18.4-4.4,32-13.3,40.8-8.9,8.9-21.1,13.3-36.4,13.3h-1.1ZM1317.9,560.4h1.1c11.2,0,19.6-3,25.1-9s8.3-16.1,8.3-30.2v-48c0-14-2.8-23.8-8.3-29.7-5.5-5.9-13.9-8.9-25.1-8.9h-1.1c-11.2,0-19.7,3-25.1,8.9-5.5,5.9-8.3,15.9-8.3,29.7v48c0,14.1,2.8,24.1,8.3,30.2,5.4,6,13.7,9,25.1,9Z"/>
    <path id="path471" class="cls-21" d="M1397.3,573.3v-151.5h24.7l53.3,128h2v-128h16v151.5h-24.4l-53.5-128h-2v128h-16.1Z"/>
    <path id="path473" class="cls-21" d="M1607.6,573.3l-12.5-46.9h-49.5l-12.7,46.9h-17.8l42.4-151.5h25.3l42,151.5h-17.2ZM1549.6,511.1h41.4l-19.6-73.7h-2l-19.8,73.7h0Z"/>
    <path id="path475" class="cls-21" d="M1663.1,558h65.1v15.3h-81.6v-151.5h16.4v136.2h0Z"/>
    <path id="path477" class="cls-21" d="M1812.2,558h65.1v15.3h-81.6v-151.5h16.4v136.2h0Z"/>
    <path id="path479" class="cls-21" d="M1976.8,573.3l-12.5-46.9h-49.5l-12.7,46.9h-17.7l42.5-151.5h25.3l42,151.5h-17.4ZM1918.8,511.1h41.4l-19.6-73.7h-2l-19.8,73.7h0Z"/>
    <path id="path481" class="cls-21" d="M2086.5,496.2c17.7,4.3,26.5,15.8,26.5,34.5v1.8c0,13-3.7,23.1-11.2,30.3-7.5,7.1-18.2,10.7-32.1,10.7h-53.7v-151.7h48c14.1,0,24.9,3.4,32.4,10.2,7.5,6.8,11.2,16.2,11.2,28.4v2.4c0,15.9-7,26.3-20.8,31.5v1.9h-.3,0ZM2091,461.6c0-8.3-2.1-14.5-6.5-18.4-4.3-4-11.2-6-20.6-6h-31.7v51.5h31.7c9.6,0,16.5-2,20.7-6.1,4.2-4,6.3-10.5,6.3-19.3v-1.7h.1ZM2096.6,531.3v-1.6c0-8.9-2.1-15.4-6.5-19.6-4.4-4.2-11.2-6.2-20.6-6.2h-37.3v54h37.3c9.5,0,16.4-2.1,20.6-6.3,4.4-4.2,6.5-11,6.5-20.3h0Z"/>
  </g>
</svg>