<?xml version="1.0" encoding="UTF-8" standalone="no"?>
<!-- Generator: Adobe Illustrator 24.2.1, SVG Export Plug-In . SVG Version: 6.00 Build 0)  -->

<svg
   version="1.1"
   id="Livello_1"
   x="0px"
   y="0px"
   viewBox="0 0 2314.8001 797.9"
   xml:space="preserve"
   sodipodi:docname="logo-lab.svg"
   width="2314.8"
   height="797.90002"
   inkscape:version="1.2.1 (9c6d41e410, 2022-07-14)"
   inkscape:export-filename="logo-lab.png"
   inkscape:export-xdpi="96"
   inkscape:export-ydpi="96"
   xmlns:inkscape="http://www.inkscape.org/namespaces/inkscape"
   xmlns:sodipodi="http://sodipodi.sourceforge.net/DTD/sodipodi-0.dtd"
   xmlns:xlink="http://www.w3.org/1999/xlink"
   xmlns="http://www.w3.org/2000/svg"
   xmlns:svg="http://www.w3.org/2000/svg"><defs
   id="defs490" /><sodipodi:namedview
   id="namedview488"
   pagecolor="#ffffff"
   bordercolor="#000000"
   borderopacity="0.25"
   inkscape:showpageshadow="2"
   inkscape:pageopacity="0.0"
   inkscape:pagecheckerboard="0"
   inkscape:deskcolor="#d1d1d1"
   showgrid="false"
   inkscape:zoom="0.55503291"
   inkscape:cx="1197.2263"
   inkscape:cy="283.76696"
   inkscape:window-width="2147"
   inkscape:window-height="1360"
   inkscape:window-x="1711"
   inkscape:window-y="3"
   inkscape:window-maximized="0"
   inkscape:current-layer="g485"><inkscape:grid
     type="xygrid"
     id="grid4501" /></sodipodi:namedview>
<style
   type="text/css"
   id="style2">
	.st0{fill:#FFFFFF;}
	.st1{fill:url(#SVGID_1_);}
	.st2{fill:url(#SVGID_2_);}
	.st3{fill:url(#SVGID_3_);}
	.st4{fill:url(#SVGID_4_);}
	.st5{fill:url(#SVGID_5_);}
	.st6{fill:url(#SVGID_6_);}
	.st7{fill:url(#SVGID_7_);}
	.st8{fill:url(#SVGID_12_);}
	.st9{fill:url(#SVGID_13_);}
	.st10{fill:url(#SVGID_14_);}
	.st11{fill:url(#SVGID_15_);}
	.st12{fill:url(#SVGID_16_);}
	.st13{fill:url(#SVGID_17_);}
	.st14{fill:url(#SVGID_18_);}
	.st15{fill:url(#SVGID_22_);}
	.st16{fill:url(#SVGID_23_);}
	.st17{fill:url(#SVGID_24_);}
	.st18{fill:url(#SVGID_25_);}
	.st19{fill:url(#SVGID_26_);}
	.st20{fill:url(#SVGID_27_);}
	.st21{fill-rule:evenodd;clip-rule:evenodd;fill:url(#SVGID_28_);}
	.st22{clip-path:url(#SVGID_29_);fill:url(#SVGID_30_);}
	.st23{fill-rule:evenodd;clip-rule:evenodd;fill:#1D497A;}
	.st24{fill-rule:evenodd;clip-rule:evenodd;fill:#E73545;}
	.st25{fill:url(#SVGID_31_);}
	.st26{fill:url(#SVGID_32_);}
	.st27{fill:url(#SVGID_33_);}
	.st28{fill:url(#SVGID_34_);}
	.st29{fill:#E73545;}
	.st30{fill:#1D497A;}
</style>
<g
   id="g485"
   transform="translate(-33.6,-28)">
	<g
   id="g19">
		<circle
   class="st0"
   cx="432.5"
   cy="427"
   r="397.39999"
   id="circle4"
   style="fill:#ffffff;fill-opacity:0" />
		
			<linearGradient
   id="SVGID_1_"
   gradientUnits="userSpaceOnUse"
   x1="33.555599"
   y1="449.32529"
   x2="831.54138"
   y2="449.32529"
   gradientTransform="matrix(1,0,0,-1,0,876.3196)">
			<stop
   offset="0"
   style="stop-color:#1C3760"
   id="stop6" />
			<stop
   offset="0.1512"
   style="stop-color:#3D375B"
   id="stop8" />
			<stop
   offset="0.4797"
   style="stop-color:#773446"
   id="stop10" />
			<stop
   offset="0.9578"
   style="stop-color:#C81D1C"
   id="stop12" />
			<stop
   offset="0.9816"
   style="stop-color:#CD181B"
   id="stop14" />
		</linearGradient>
		<path
   class="st1"
   d="M 432.5,825.9 C 378.6,825.9 326.4,815.3 277.2,794.6 229.7,774.5 187.1,745.7 150.3,709.1 113.5,672.5 85,629.8 64.9,582.3 44,533.1 33.6,480.8 33.6,426.9 33.6,373 44.2,320.8 64.9,271.6 85,224.1 113.8,181.5 150.4,144.7 187,107.9 229.8,79.4 277.3,59.3 326.5,38.5 378.8,28 432.6,28 c 53.8,0 106.1,10.6 155.3,31.3 47.5,20.1 90.1,48.9 126.9,85.5 36.7,36.6 65.4,79.4 85.5,126.9 20.7,49.2 31.3,101.5 31.3,155.3 0,53.8 -10.6,106.2 -31.4,155.4 -20.1,47.5 -48.9,90.1 -85.5,126.9 -36.6,36.7 -79.4,65.4 -126.9,85.5 -49.1,20.7 -101.4,31.1 -155.3,31.1 z m 0,-794.7 C 214.3,31.2 36.7,208.8 36.7,427 36.7,645.2 214.2,822.8 432.5,822.8 650.8,822.8 828.4,645.3 828.4,427 828.4,208.7 650.8,31.2 432.5,31.2 Z"
   id="path17"
   style="fill:url(#SVGID_1_)" />
	</g>
	<g
   id="g381">
		<g
   id="g34">
			
				<linearGradient
   id="SVGID_2_"
   gradientUnits="userSpaceOnUse"
   x1="190.14149"
   y1="578.16248"
   x2="325.1008"
   y2="578.16248"
   gradientTransform="matrix(1.0324,0.01773184,-0.01963874,-1.0108,-29.4971,845.8496)">
				<stop
   offset="0"
   style="stop-color:#1C3760"
   id="stop21" />
				<stop
   offset="0.1512"
   style="stop-color:#3D375B"
   id="stop23" />
				<stop
   offset="0.4797"
   style="stop-color:#773446"
   id="stop25" />
				<stop
   offset="0.9578"
   style="stop-color:#C81D1C"
   id="stop27" />
				<stop
   offset="0.9816"
   style="stop-color:#CD181B"
   id="stop29" />
			</linearGradient>
			<polygon
   class="st2"
   points="155.7,224.7 295.5,305.7 294.6,307.3 154.7,226.3 "
   id="polygon32"
   style="fill:url(#SVGID_2_)" />
		</g>
		<g
   id="g49">
			
				<linearGradient
   id="SVGID_3_"
   gradientUnits="userSpaceOnUse"
   x1="186.7677"
   y1="589.93512"
   x2="470.92529"
   y2="589.93512"
   gradientTransform="matrix(0.9975,-0.00427813,-0.01293082,-0.9924,-24.6013,895.2976)">
				<stop
   offset="0"
   style="stop-color:#1C3760"
   id="stop36" />
				<stop
   offset="0.1512"
   style="stop-color:#3D375B"
   id="stop38" />
				<stop
   offset="0.4797"
   style="stop-color:#773446"
   id="stop40" />
				<stop
   offset="0.9578"
   style="stop-color:#C81D1C"
   id="stop42" />
				<stop
   offset="0.9816"
   style="stop-color:#CD181B"
   id="stop44" />
			</linearGradient>
			<polygon
   class="st3"
   points="432.8,63.5 434.3,64.5 158.8,553.4 157.2,552.4 "
   id="polygon47"
   style="fill:url(#SVGID_3_)" />
		</g>
		<g
   id="g64">
			
				<linearGradient
   id="SVGID_4_"
   gradientUnits="userSpaceOnUse"
   x1="420.45279"
   y1="555.34583"
   x2="700.07642"
   y2="555.34583"
   gradientTransform="matrix(1.0017,0.01048703,0.00444897,-1.0052,8.048,860.903)">
				<stop
   offset="0"
   style="stop-color:#1C3760"
   id="stop51" />
				<stop
   offset="0.1512"
   style="stop-color:#3D375B"
   id="stop53" />
				<stop
   offset="0.4797"
   style="stop-color:#773446"
   id="stop55" />
				<stop
   offset="0.9578"
   style="stop-color:#C81D1C"
   id="stop57" />
				<stop
   offset="0.9816"
   style="stop-color:#CD181B"
   id="stop59" />
			</linearGradient>
			<polygon
   class="st4"
   points="434.3,63.5 710.7,552.6 709.1,553.6 432.8,64.5 "
   id="polygon62"
   style="fill:url(#SVGID_4_)" />
		</g>
		<g
   id="g79">
			
				<linearGradient
   id="SVGID_5_"
   gradientUnits="userSpaceOnUse"
   x1="156.3351"
   y1="324.733"
   x2="708.2677"
   y2="324.733"
   gradientTransform="matrix(1.0001,0,0,-1,1.7381,877.6888)">
				<stop
   offset="0"
   style="stop-color:#1C3760"
   id="stop66" />
				<stop
   offset="0.1512"
   style="stop-color:#3D375B"
   id="stop68" />
				<stop
   offset="0.4797"
   style="stop-color:#773446"
   id="stop70" />
				<stop
   offset="0.9578"
   style="stop-color:#C81D1C"
   id="stop72" />
				<stop
   offset="0.9816"
   style="stop-color:#CD181B"
   id="stop74" />
			</linearGradient>
			<rect
   x="158.10001"
   y="552"
   class="st5"
   width="552"
   height="1.9"
   id="rect77"
   style="fill:url(#SVGID_5_)" />
		</g>
		<g
   id="g94">
			
				<linearGradient
   id="SVGID_6_"
   gradientUnits="userSpaceOnUse"
   x1="171.1391"
   y1="433.14441"
   x2="172.9951"
   y2="433.14441"
   gradientTransform="matrix(1,-0.00326392,-0.00330035,-1.0112,-14.9435,825.2925)">
				<stop
   offset="0"
   style="stop-color:#1C3760"
   id="stop81" />
				<stop
   offset="0.1512"
   style="stop-color:#3D375B"
   id="stop83" />
				<stop
   offset="0.4797"
   style="stop-color:#773446"
   id="stop85" />
				<stop
   offset="0.9578"
   style="stop-color:#C81D1C"
   id="stop87" />
				<stop
   offset="0.9816"
   style="stop-color:#CD181B"
   id="stop89" />
			</linearGradient>
			<polygon
   class="st6"
   points="156.1,225.6 157.1,547.9 155.3,547.9 154.3,225.6 "
   id="polygon92"
   style="fill:url(#SVGID_6_)" />
		</g>
		<g
   id="g109">
			
				<linearGradient
   id="SVGID_7_"
   gradientUnits="userSpaceOnUse"
   x1="443.57629"
   y1="733.47418"
   x2="719.85858"
   y2="733.47418"
   gradientTransform="matrix(0.9929,-0.01053151,-0.00218719,-0.9975,-4.1944,882.5242)">
				<stop
   offset="0"
   style="stop-color:#1C3760"
   id="stop96" />
				<stop
   offset="0.1512"
   style="stop-color:#3D375B"
   id="stop98" />
				<stop
   offset="0.4797"
   style="stop-color:#773446"
   id="stop100" />
				<stop
   offset="0.9578"
   style="stop-color:#C81D1C"
   id="stop102" />
				<stop
   offset="0.9816"
   style="stop-color:#CD181B"
   id="stop104" />
			</linearGradient>
			<polygon
   class="st7"
   points="435.3,64.7 709.1,223.3 708.2,224.9 434.5,66.3 "
   id="polygon107"
   style="fill:url(#SVGID_7_)" />
		</g>
		<g
   id="g124">
			
				<linearGradient
   id="SVGID_12_"
   gradientUnits="userSpaceOnUse"
   x1="569.56677"
   y1="609.14471"
   x2="704.68048"
   y2="609.14471"
   gradientTransform="matrix(1,0,0,-1,0,876.3196)">
				<stop
   offset="0"
   style="stop-color:#1C3760"
   id="stop111" />
				<stop
   offset="0.1512"
   style="stop-color:#3D375B"
   id="stop113" />
				<stop
   offset="0.4797"
   style="stop-color:#773446"
   id="stop115" />
				<stop
   offset="0.9578"
   style="stop-color:#C81D1C"
   id="stop117" />
				<stop
   offset="0.9816"
   style="stop-color:#CD181B"
   id="stop119" />
			</linearGradient>
			<polygon
   class="st8"
   points="703.8,227.7 704.7,229.4 570.4,306.6 569.6,305.1 "
   id="polygon122"
   style="fill:url(#SVGID_12_)" />
		</g>
		<g
   id="g139">
			
				<linearGradient
   id="SVGID_13_"
   gradientUnits="userSpaceOnUse"
   x1="417.10709"
   y1="252.08549"
   x2="693.14447"
   y2="252.08549"
   gradientTransform="matrix(0.9972,0.00545677,0.00230923,-0.9991,18.4285,879.7114)">
				<stop
   offset="0"
   style="stop-color:#1C3760"
   id="stop126" />
				<stop
   offset="0.1512"
   style="stop-color:#3D375B"
   id="stop128" />
				<stop
   offset="0.4797"
   style="stop-color:#773446"
   id="stop130" />
				<stop
   offset="0.9578"
   style="stop-color:#C81D1C"
   id="stop132" />
				<stop
   offset="0.9816"
   style="stop-color:#CD181B"
   id="stop134" />
			</linearGradient>
			<polygon
   class="st9"
   points="709.4,552.3 710.4,553.9 435.6,709.4 434.8,707.7 "
   id="polygon137"
   style="fill:url(#SVGID_13_)" />
		</g>
		
			<linearGradient
   id="SVGID_14_"
   gradientUnits="userSpaceOnUse"
   x1="-342.45001"
   y1="-6032.5449"
   x2="-312.36899"
   y2="-6032.5449"
   gradientTransform="matrix(-1,0,0,1,382.5452,6258.0327)">
			<stop
   offset="0"
   style="stop-color:#1C3760"
   id="stop141" />
			<stop
   offset="0.1512"
   style="stop-color:#3D375B"
   id="stop143" />
			<stop
   offset="0.4797"
   style="stop-color:#773446"
   id="stop145" />
			<stop
   offset="0.9578"
   style="stop-color:#C81D1C"
   id="stop147" />
			<stop
   offset="0.9816"
   style="stop-color:#CD181B"
   id="stop149" />
		</linearGradient>
		<ellipse
   class="st10"
   cx="710"
   cy="225.5"
   rx="15"
   ry="15.1"
   id="ellipse152"
   style="fill:url(#SVGID_14_)" />
		
			<linearGradient
   id="SVGID_15_"
   gradientUnits="userSpaceOnUse"
   x1="-433.58331"
   y1="-6191.144"
   x2="-403.50229"
   y2="-6191.144"
   gradientTransform="matrix(-1,0,0,1,15.0476,6899.7402)">
			<stop
   offset="0"
   style="stop-color:#1C3760"
   id="stop154" />
			<stop
   offset="0.1512"
   style="stop-color:#3D375B"
   id="stop156" />
			<stop
   offset="0.4797"
   style="stop-color:#773446"
   id="stop158" />
			<stop
   offset="0.9578"
   style="stop-color:#C81D1C"
   id="stop160" />
			<stop
   offset="0.9816"
   style="stop-color:#CD181B"
   id="stop162" />
		</linearGradient>
		<ellipse
   class="st11"
   cx="433.60001"
   cy="708.59998"
   rx="15"
   ry="15.1"
   id="ellipse165"
   style="fill:url(#SVGID_15_)" />
		
			<linearGradient
   id="SVGID_16_"
   gradientUnits="userSpaceOnUse"
   x1="2935.5452"
   y1="-5582.0107"
   x2="2965.7393"
   y2="-5582.0107"
   gradientTransform="matrix(-0.3525,-0.9358,-0.9358,0.3525,-4028.5081,4954.2251)">
			<stop
   offset="0"
   style="stop-color:#1C3760"
   id="stop167" />
			<stop
   offset="0.1512"
   style="stop-color:#3D375B"
   id="stop169" />
			<stop
   offset="0.4797"
   style="stop-color:#773446"
   id="stop171" />
			<stop
   offset="0.9578"
   style="stop-color:#C81D1C"
   id="stop173" />
			<stop
   offset="0.9816"
   style="stop-color:#CD181B"
   id="stop175" />
		</linearGradient>
		<ellipse
   class="st12"
   cx="155.10001"
   cy="225.60001"
   rx="15"
   ry="15.1"
   id="ellipse178"
   style="fill:url(#SVGID_16_)" />
		
			<linearGradient
   id="SVGID_17_"
   gradientUnits="userSpaceOnUse"
   x1="209.5508"
   y1="686.7002"
   x2="224.59129"
   y2="686.7002"
   gradientTransform="matrix(1,0,0,-1,0,876.3196)">
			<stop
   offset="0"
   style="stop-color:#1C3760"
   id="stop180" />
			<stop
   offset="0.1512"
   style="stop-color:#3D375B"
   id="stop182" />
			<stop
   offset="0.4797"
   style="stop-color:#773446"
   id="stop184" />
			<stop
   offset="0.9578"
   style="stop-color:#C81D1C"
   id="stop186" />
			<stop
   offset="0.9816"
   style="stop-color:#CD181B"
   id="stop188" />
		</linearGradient>
		<circle
   class="st13"
   cx="217"
   cy="189.60001"
   id="ellipse191"
   r="7.5"
   style="fill:url(#SVGID_17_)" />
		
			<linearGradient
   id="SVGID_18_"
   gradientUnits="userSpaceOnUse"
   x1="261.88409"
   y1="717.06641"
   x2="276.9245"
   y2="717.06641"
   gradientTransform="matrix(1,0,0,-1,0,876.3196)">
			<stop
   offset="0"
   style="stop-color:#1C3760"
   id="stop193" />
			<stop
   offset="0.1512"
   style="stop-color:#3D375B"
   id="stop195" />
			<stop
   offset="0.4797"
   style="stop-color:#773446"
   id="stop197" />
			<stop
   offset="0.9578"
   style="stop-color:#C81D1C"
   id="stop199" />
			<stop
   offset="0.9816"
   style="stop-color:#CD181B"
   id="stop201" />
		</linearGradient>
		<circle
   class="st14"
   cx="269.39999"
   cy="159.3"
   id="ellipse204"
   r="7.5"
   style="fill:url(#SVGID_18_)" />
		
			<linearGradient
   id="SVGID_22_"
   gradientUnits="userSpaceOnUse"
   x1="314.57529"
   y1="747.22101"
   x2="329.6156"
   y2="747.22101"
   gradientTransform="matrix(1,0,0,-1,0,876.3196)">
			<stop
   offset="0"
   style="stop-color:#1C3760"
   id="stop206" />
			<stop
   offset="0.1512"
   style="stop-color:#3D375B"
   id="stop208" />
			<stop
   offset="0.4797"
   style="stop-color:#773446"
   id="stop210" />
			<stop
   offset="0.9578"
   style="stop-color:#C81D1C"
   id="stop212" />
			<stop
   offset="0.9816"
   style="stop-color:#CD181B"
   id="stop214" />
		</linearGradient>
		<circle
   class="st15"
   cx="322.10001"
   cy="129.10001"
   id="ellipse217"
   r="7.5"
   style="fill:url(#SVGID_22_)" />
		
			<linearGradient
   id="SVGID_23_"
   gradientUnits="userSpaceOnUse"
   x1="366.2084"
   y1="777.58722"
   x2="381.2489"
   y2="777.58722"
   gradientTransform="matrix(1,0,0,-1,0,876.3196)">
			<stop
   offset="0"
   style="stop-color:#1C3760"
   id="stop219" />
			<stop
   offset="0.1512"
   style="stop-color:#3D375B"
   id="stop221" />
			<stop
   offset="0.4797"
   style="stop-color:#773446"
   id="stop223" />
			<stop
   offset="0.9578"
   style="stop-color:#C81D1C"
   id="stop225" />
			<stop
   offset="0.9816"
   style="stop-color:#CD181B"
   id="stop227" />
		</linearGradient>
		<circle
   class="st16"
   cx="373.70001"
   cy="98.699997"
   id="ellipse230"
   r="7.5"
   style="fill:url(#SVGID_23_)" />
		
			<linearGradient
   id="SVGID_24_"
   gradientUnits="userSpaceOnUse"
   x1="704.21478"
   y1="401.65991"
   x2="719.25891"
   y2="401.65991"
   gradientTransform="matrix(1,0,0,-1,0,876.3196)">
			<stop
   offset="0"
   style="stop-color:#1C3760"
   id="stop232" />
			<stop
   offset="0.1512"
   style="stop-color:#3D375B"
   id="stop234" />
			<stop
   offset="0.4797"
   style="stop-color:#773446"
   id="stop236" />
			<stop
   offset="0.9578"
   style="stop-color:#C81D1C"
   id="stop238" />
			<stop
   offset="0.9816"
   style="stop-color:#CD181B"
   id="stop240" />
		</linearGradient>
		<circle
   class="st17"
   cx="711.79999"
   cy="474.70001"
   id="ellipse243"
   r="7.5"
   style="fill:url(#SVGID_24_)" />
		
			<linearGradient
   id="SVGID_25_"
   gradientUnits="userSpaceOnUse"
   x1="704.21478"
   y1="463.45029"
   x2="719.25891"
   y2="463.45029"
   gradientTransform="matrix(1,0,0,-1,0,876.3196)">
			<stop
   offset="0"
   style="stop-color:#1C3760"
   id="stop245" />
			<stop
   offset="0.1512"
   style="stop-color:#3D375B"
   id="stop247" />
			<stop
   offset="0.4797"
   style="stop-color:#773446"
   id="stop249" />
			<stop
   offset="0.9578"
   style="stop-color:#C81D1C"
   id="stop251" />
			<stop
   offset="0.9816"
   style="stop-color:#CD181B"
   id="stop253" />
		</linearGradient>
		<circle
   class="st18"
   cx="711.79999"
   cy="412.89999"
   id="ellipse256"
   r="7.5"
   style="fill:url(#SVGID_25_)" />
		
			<linearGradient
   id="SVGID_26_"
   gradientUnits="userSpaceOnUse"
   x1="704.21478"
   y1="525.02917"
   x2="719.25891"
   y2="525.02917"
   gradientTransform="matrix(1,0,0,-1,0,876.3196)">
			<stop
   offset="0"
   style="stop-color:#1C3760"
   id="stop258" />
			<stop
   offset="0.1512"
   style="stop-color:#3D375B"
   id="stop260" />
			<stop
   offset="0.4797"
   style="stop-color:#773446"
   id="stop262" />
			<stop
   offset="0.9578"
   style="stop-color:#C81D1C"
   id="stop264" />
			<stop
   offset="0.9816"
   style="stop-color:#CD181B"
   id="stop266" />
		</linearGradient>
		<circle
   class="st19"
   cx="711.79999"
   cy="351.29999"
   id="ellipse269"
   r="7.5"
   style="fill:url(#SVGID_26_)" />
		
			<linearGradient
   id="SVGID_27_"
   gradientUnits="userSpaceOnUse"
   x1="704.21478"
   y1="583.32812"
   x2="719.25891"
   y2="583.32812"
   gradientTransform="matrix(1,0,0,-1,0,876.3196)">
			<stop
   offset="0"
   style="stop-color:#1C3760"
   id="stop271" />
			<stop
   offset="0.1512"
   style="stop-color:#3D375B"
   id="stop273" />
			<stop
   offset="0.4797"
   style="stop-color:#773446"
   id="stop275" />
			<stop
   offset="0.9578"
   style="stop-color:#C81D1C"
   id="stop277" />
			<stop
   offset="0.9816"
   style="stop-color:#CD181B"
   id="stop279" />
		</linearGradient>
		<circle
   class="st20"
   cx="711.79999"
   cy="293"
   id="ellipse282"
   r="7.5"
   style="fill:url(#SVGID_27_)" />
		<g
   id="g319">
			<g
   id="g296">
				
					<linearGradient
   id="SVGID_28_"
   gradientUnits="userSpaceOnUse"
   x1="328.85901"
   y1="503.33881"
   x2="626.87433"
   y2="503.33881"
   gradientTransform="matrix(1,0,0,-1,0,876.3196)">
					<stop
   offset="0"
   style="stop-color:#1C3760"
   id="stop284" />
					<stop
   offset="0.1512"
   style="stop-color:#3D375B"
   id="stop286" />
					<stop
   offset="0.4797"
   style="stop-color:#773446"
   id="stop288" />
					<stop
   offset="0.9578"
   style="stop-color:#C81D1C"
   id="stop290" />
					<stop
   offset="0.9816"
   style="stop-color:#CD181B"
   id="stop292" />
				</linearGradient>
				<path
   id="SVGID_21_"
   class="st21"
   d="m 382.8,474.4 c -0.8,-0.8 -1.4,-1 -2.1,-0.2 -1.5,1.4 -2.8,0.4 -3,-2.3 -0.1,-1.3 -0.5,-2.3 -1.1,-2.3 -0.4,0 -0.6,0.3 -0.4,0.6 0.7,1.1 -0.7,3 -2.1,2.5 -1.5,-0.4 -2.4,-6.9 -1,-7 0.4,0 0.6,-2.9 0.3,-6.9 -0.4,-6.2 -0.3,-7.1 1.7,-10.3 2.2,-3.5 2.1,-6 -0.1,-5.8 -1.6,0.1 -2.4,-2.1 -1.4,-3.6 0.6,-1 0.6,-2.9 0,-6.6 -1.5,-8.7 -2,-9.8 -4.4,-10.7 -2,-0.6 -2.3,-1.2 -2.5,-4.4 -0.2,-2.6 0.1,-4 1.1,-4.7 1.3,-0.8 1.3,-1.1 0,-1.8 -2.1,-1.3 -0.1,-5.6 2.8,-6.1 2.5,-0.5 3,0.7 0.8,2.9 -2.2,2.2 -1.7,3.9 1.5,4.9 2,0.5 3.8,0.5 6.1,-0.2 3.8,-1.2 3.5,-0.8 4.9,-4.1 0.6,-1.6 2.9,-3.7 5.7,-5.5 l 4.7,-3 3.2,3.1 c 1.7,1.7 3.2,3.6 3.3,4.2 0,0.6 0.8,1.2 1.7,1.1 1.2,-0.1 1.7,0.4 1.8,1.9 0.1,1.5 -0.3,2.1 -1.5,2.1 -0.8,0.1 -1.6,0.5 -1.6,1 0,0.5 1,0.7 2,0.6 2,-0.1 2.2,0.1 3.9,7.6 0.6,3 0.4,3.8 -1.5,6.7 -2.6,3.9 -3,6 -1.1,8.4 1.3,1.6 1.4,2.2 0.1,8.1 -1.1,4.8 -1.2,7.2 -0.5,9.6 0.7,2.6 0.6,3.5 -0.4,4.5 -0.7,0.7 -1.2,1.9 -1,2.8 0.2,0.7 -0.2,1.7 -0.8,2 -0.6,0.3 -1.2,1.5 -1.1,2.5 0.2,2.6 -1.5,2.5 -4.4,-0.2 -4.1,-3.7 -7.1,-2.3 -6.7,3.1 0.2,2.5 -0.2,3.3 -2.4,4.9 -3,2.1 -3,2.1 -4.5,0.6 z m 181.1,23 c -1.6,-0.5 -1.1,-8.5 0.8,-12.2 1.2,-2.2 1.3,-4.1 0.8,-8 -0.7,-5.8 0.4,-7.7 4.8,-8 3,-0.2 3.7,-4.1 1.3,-6.6 -1,-0.8 -2.4,-4.2 -3.5,-7.5 -1.3,-4.1 -2.5,-6.3 -4.1,-7.4 -1.7,-1.2 -2.8,-3.3 -4.2,-8.3 -2.9,-9.7 -5.6,-12.8 -7.5,-8.5 -0.4,1 -1.3,1.8 -1.8,1.8 -1.4,0.1 -5.1,-2.6 -5.2,-3.8 0,-0.5 -1.7,-1.3 -3.8,-1.7 -5.1,-1.1 -5.2,-1.3 -4.1,-5.3 0.8,-3.1 0.7,-3.8 -1.1,-6.9 -1.9,-3.3 -2,-3.4 -5,-2.5 -1.7,0.5 -4.4,1.3 -6.2,1.7 l -3.2,0.8 v -3.7 -3.7 h -3.7 c -3.1,0 -3.9,-0.4 -4.9,-2.2 -0.6,-1.3 -2.9,-4.1 -4.8,-6.6 -3.6,-4.2 -3.7,-4.3 -6.9,-3.5 -1.8,0.4 -3.8,0.4 -4.3,0 -1.3,-0.8 -5.7,0.1 -5.7,1.2 0,0.4 -0.8,0.8 -2,1 -1.6,0.1 -2.6,-0.7 -4.3,-3.2 -1.8,-2.6 -2.8,-3.4 -5.4,-3.6 -2.6,-0.2 -4.1,-1.3 -8.4,-5.7 -3.3,-3.5 -5.2,-6.2 -5.3,-7.7 -0.1,-1.5 -0.6,-2.2 -1.5,-2.1 -2.4,0.2 -9.2,-4.5 -11.2,-7.7 -1.4,-2.3 -2.9,-3.5 -5.6,-4.3 -2.5,-0.8 -3.8,-0.8 -4.2,-0.2 -0.3,0.6 -1.3,0.7 -3.3,0.2 -2.9,-0.7 -3.7,-2.8 -2.1,-4.7 1.2,-1.4 -3.5,-6.7 -6.2,-7.2 -1.4,-0.2 -2.2,-1.2 -2.8,-3.2 -0.6,-2.3 -1.3,-3 -3.5,-3.4 -2.8,-0.5 -2.8,-0.5 -3.7,-6.9 -0.5,-4 -1.5,-7.2 -2.5,-8.6 -1,-1.2 -1.8,-3.5 -1.9,-5.2 -0.3,-4.8 -2.4,-11.2 -4.2,-12.6 -0.8,-0.6 -3.3,-1.7 -5.4,-2.3 -2.1,-0.5 -5.4,-1.9 -7.4,-3 -2,-1.1 -6.1,-3.3 -9.1,-4.9 -3,-1.6 -7,-3 -8.9,-3.2 -3.4,-0.3 -3.7,-0.1 -7.4,4.4 -2.1,2.6 -4.5,5.8 -5.5,7.2 -2.5,3.8 -7.7,6.5 -13.5,6.9 l -5.1,0.3 0.4,-2.9 c 0.2,-1.6 1.1,-4 1.8,-5.3 1.8,-3.3 0.8,-3.9 -6.2,-4.1 l -5.9,-0.2 -3.3,-6.7 c -3,-5.9 -3.2,-6.8 -2,-7.7 1.6,-1.4 2.3,-7.4 0.8,-7.3 -0.5,0 -1.7,-1.3 -2.6,-2.9 -0.8,-1.6 -2.3,-3.1 -3.2,-3.3 -1.2,-0.3 -1.7,-1.3 -1.8,-3.4 l -0.2,-3.1 3.8,0.3 c 3.4,0.2 4,0 5.8,-2 1.2,-1.3 2.4,-2.3 3,-2.4 2.2,-0.1 0.4,-5.4 -3.3,-9.7 l -3.8,-4.5 2.6,-3.1 c 2.2,-2.6 3.2,-3.2 6.8,-3.4 2.3,-0.2 5.8,-0.8 7.9,-1.5 2.6,-0.8 4.3,-1.1 5.8,-0.5 3,1.2 6.7,-1.9 7.7,-6.3 0.4,-1.9 1.5,-3.9 2.4,-4.5 0.8,-0.5 1.6,-1.8 1.5,-2.8 -0.1,-2 1.4,-2.2 3.7,-0.6 1.3,0.8 1.6,1.8 1.4,3.9 -0.2,2.1 0.2,3.4 1.5,4.9 l 1.8,2 1.9,-2 c 2.1,-2.3 3.1,-2.5 4.7,-1.3 0.7,0.7 0.8,1.5 0,3.3 -1.2,2.6 -0.2,7 1.6,7.4 0.7,0.2 1,-1.1 0.7,-4 -0.2,-3.7 0,-4.5 2,-6.2 1.5,-1.3 2.6,-3.3 3.2,-5.8 0.7,-3.5 1.1,-4 3.3,-4.1 2.2,-0.1 2.4,0.1 2.6,3 0.2,2.9 0.4,3.1 2.1,2.4 1.1,-0.4 3.3,-1.1 5,-1.4 2.8,-0.6 3.3,-0.4 4.3,1.5 0.6,1.2 1.5,2.1 1.8,2.1 1.6,-0.1 1.3,-1.5 -1,-4.3 l -2.4,-3.2 2,-2.3 c 1.9,-2.2 2.3,-2.3 4.8,-1.5 3.6,1.3 4.4,0.3 4.1,-4.5 l -0.3,-4.2 3.6,-0.2 c 2.4,-0.2 4.2,0.3 5.6,1.5 2.5,2 4,1.1 5.2,-3.6 0.7,-2.8 1.1,-3 4.3,-3.3 2,-0.1 4.1,0.1 4.7,0.6 0.7,0.6 1.7,0.6 3.6,-0.3 1.9,-1 2.9,-1.1 3.7,-0.4 1,0.6 1.7,0.3 3.1,-1.4 2.4,-3 9.2,-3.8 9.3,-1.2 0.1,1 -1.1,2.5 -2.5,3.6 l -2.6,2 2.3,-0.1 c 1.7,-0.1 2.5,0.3 3,1.8 0.3,1.1 2.5,3.3 4.9,4.8 4.2,2.8 4.3,2.9 15.1,2.6 6,-0.1 11,0 11.2,0.3 0.2,0.3 0.2,1.5 0.1,2.8 -0.2,1.6 -1.2,2.8 -3.5,4 -3.4,1.8 -3.5,3.3 -0.1,3 1.2,-0.1 2.5,0.5 3.1,1.5 1.5,2.4 1.3,3.4 -0.6,3.5 -2.8,0.2 -2.9,2.6 -0.2,4.9 1.3,1.1 2.4,2.6 2.5,3.5 0.1,0.8 0.8,2.1 1.8,2.9 1.1,0.8 1.6,2.1 1.5,3.5 -0.3,2.8 -2,2.9 -3.9,0.3 -1.4,-1.8 -1.9,-1.9 -5.2,-1.3 -2,0.4 -4.4,0.4 -5.4,0 -2.4,-1.1 -4.1,-0.1 -2.4,1.4 0.7,0.6 1.4,1.6 1.4,2 0.1,1.2 -7.5,5.4 -9.2,5.2 -0.7,-0.1 -1.8,0.4 -2.3,1.1 -0.8,1.2 -1.3,1.2 -3.3,0.3 -3,-1.3 -3.5,-0.8 -4.4,3.4 -0.7,3.2 -0.6,3.6 1.2,5.3 1.1,1.1 2,2.6 2.1,3.6 0.1,1 0.7,2 1.5,2.2 0.8,0.3 1.4,1.6 1.6,3.8 0.2,3.3 -0.6,4.5 -1.9,2.8 -1.3,-1.8 -3.8,1.5 -3.5,4.5 0.3,4.3 3.1,13.3 4.5,14.9 6.1,6.9 7.8,8.3 9.7,8.1 1.3,-0.1 3.3,1 5.4,3 2,1.9 5,3.5 7.6,4.2 5.8,1.5 7.1,2.4 8.1,6 0.4,1.6 1.8,4.2 3,5.8 1.4,1.8 2.5,4.9 3.2,8.4 1.6,9.1 4.8,14.4 12.3,20.6 3.6,3.1 7,5.5 7.4,5.5 0.4,0 2.4,1.2 4.4,2.6 2,1.4 4.1,2.8 4.8,2.6 0.5,0 2.1,0.6 3.5,1.6 2.2,1.5 2.8,1.5 5.7,0.4 2.2,-0.8 4.3,-1.1 6.9,-0.6 2.6,0.4 4.4,0.2 6.8,-0.8 2.8,-1.2 3.4,-1.2 5.8,0.1 3.5,1.9 3.2,4.2 -1.1,7.3 -4.5,3.4 -3.7,8.4 1.3,8 1.1,-0.1 3,0.7 4,1.7 1.2,1.1 5.2,2.6 9.4,3.8 8.5,2.1 21.5,7.7 23.3,10.1 1.5,1.9 7.7,3.7 11.6,3.4 2.3,-0.2 3.2,0.2 4.1,2.1 0.6,1.3 3.4,4.1 6,6.5 5.6,4.9 6.2,6.5 5.9,14 -0.1,4.2 -0.6,5.8 -1.8,6.6 -2.3,1.5 -6.7,-1.5 -9,-5.9 -1.1,-2 -2.8,-4.8 -3.9,-6 -1.9,-2.2 -2.5,-2.4 -7.1,-2.1 -5.7,0.4 -9.7,-1.2 -10.7,-4 -0.5,-1.6 -3.9,-3.6 -5.8,-3.5 -0.8,0.1 -2,3.7 -2.5,7.5 -0.2,1.6 -1.1,3.1 -2.1,3.6 -1.5,0.7 -1.9,1.9 -2.1,5.5 -0.1,2.4 -1,5.9 -1.9,7.7 -1.6,3.1 -1.6,3.3 -0.1,4.8 1,1 3.3,1.7 5.8,1.8 3.1,0.2 4.3,0.7 4.8,1.8 0.3,0.8 1.7,2 3.1,2.6 2.2,1 2.5,1.6 3.4,7.3 0.5,3.4 1.2,7.1 1.4,8.3 0.3,1.9 0,2.2 -5.5,3.7 -7.6,2 -8.7,3.6 -8.3,11 0.3,5.3 0.2,5.6 -2.8,8.6 -1.8,1.8 -3.3,4.2 -3.5,5.7 -0.2,1.5 -1.3,3.8 -2.3,5.3 -1.7,2.3 -2.5,2.8 -6.3,3 -2.9,-0.5 -5.3,-0.5 -5.9,-0.7 z m -16,42.5 c -1.1,-1 -3.3,-1.3 -7.4,-1.3 -5.8,0 -5.8,0 -7.7,-3.1 -2.3,-3.8 -6.9,-5.9 -13,-5.9 -4.1,0 -4.8,-0.3 -6.7,-2.6 -1.8,-2.3 -2.5,-2.6 -5.5,-2.4 -3.1,0.2 -3.6,0 -4.7,-2.1 -1.4,-2.6 -5.1,-5.3 -7.4,-5.2 -0.8,0.1 -2,-0.3 -2.5,-0.7 -0.7,-0.6 -1.6,-0.6 -3.3,0.2 -2.1,1.1 -2.5,1 -5.4,-1.5 -4.2,-3.5 -4.9,-5.9 -3,-11 0.8,-2.2 2,-4.1 2.6,-4.2 0.6,0 1.5,-0.8 2,-1.8 1.2,-2.3 1.7,-2.2 3.1,0.6 1.6,3.1 4,3 5,-0.2 0.5,-1.9 1.3,-2.5 3.6,-3.1 1.6,-0.3 3.5,-1 4.2,-1.3 1,-0.4 1.5,0 1.9,1.8 0.5,2.1 1.1,2.4 3.2,2.2 1.4,-0.1 2.6,0.3 3,0.8 0.4,0.8 2.9,1 10.4,0.4 10.5,-0.6 11.4,-1.1 15.8,-5.6 1.8,-1.9 2.3,-2.1 4.2,-1.4 3.3,1.3 6.3,0.7 7.4,-1.3 0.5,-1.1 1.5,-1.6 2.2,-1.4 0.6,0.2 2.3,-0.2 3.6,-1.1 2.9,-1.7 5.9,-1.3 5.2,0.7 -0.2,0.7 -0.6,2.1 -0.7,3.1 -0.2,1 -1,2.6 -1.7,3.9 -0.7,1.3 -1.3,2.5 -1.3,3 0,0.5 -1.1,1.8 -2.3,3.1 -1.9,1.9 -2.2,2.8 -1.7,4.4 0.4,1.4 0.2,2.8 -0.8,4.2 -1.9,2.9 -1.7,5.4 0.4,7.2 1.8,1.5 2.4,3.5 1.1,3.6 -1.5,0.1 -0.7,2.4 1.1,3.2 2.4,1.2 2.4,4.4 0,5.3 -1.8,0.6 -1.9,1.1 -1.7,5.5 0.4,5.5 -0.4,6.5 -3.2,4 z"
   style="fill:url(#SVGID_28_)" />
			</g>
			<g
   id="g317">
				<defs
   id="defs299">
					<path
   id="SVGID_64_"
   d="m 382.8,474.4 c -0.8,-0.8 -1.4,-1 -2.1,-0.2 -1.5,1.4 -2.8,0.4 -3,-2.3 -0.1,-1.3 -0.5,-2.3 -1.1,-2.3 -0.4,0 -0.6,0.3 -0.4,0.6 0.7,1.1 -0.7,3 -2.1,2.5 -1.5,-0.4 -2.4,-6.9 -1,-7 0.4,0 0.6,-2.9 0.3,-6.9 -0.4,-6.2 -0.3,-7.1 1.7,-10.3 2.2,-3.5 2.1,-6 -0.1,-5.8 -1.6,0.1 -2.4,-2.1 -1.4,-3.6 0.6,-1 0.6,-2.9 0,-6.6 -1.5,-8.7 -2,-9.8 -4.4,-10.7 -2,-0.6 -2.3,-1.2 -2.5,-4.4 -0.2,-2.6 0.1,-4 1.1,-4.7 1.3,-0.8 1.3,-1.1 0,-1.8 -2.1,-1.3 -0.1,-5.6 2.8,-6.1 2.5,-0.5 3,0.7 0.8,2.9 -2.2,2.2 -1.7,3.9 1.5,4.9 2,0.5 3.8,0.5 6.1,-0.2 3.8,-1.2 3.5,-0.8 4.9,-4.1 0.6,-1.6 2.9,-3.7 5.7,-5.5 l 4.7,-3 3.2,3.1 c 1.7,1.7 3.2,3.6 3.3,4.2 0,0.6 0.8,1.2 1.7,1.1 1.2,-0.1 1.7,0.4 1.8,1.9 0.1,1.5 -0.3,2.1 -1.5,2.1 -0.8,0.1 -1.6,0.5 -1.6,1 0,0.5 1,0.7 2,0.6 2,-0.1 2.2,0.1 3.9,7.6 0.6,3 0.4,3.8 -1.5,6.7 -2.6,3.9 -3,6 -1.1,8.4 1.3,1.6 1.4,2.2 0.1,8.1 -1.1,4.8 -1.2,7.2 -0.5,9.6 0.7,2.6 0.6,3.5 -0.4,4.5 -0.7,0.7 -1.2,1.9 -1,2.8 0.2,0.7 -0.2,1.7 -0.8,2 -0.6,0.3 -1.2,1.5 -1.1,2.5 0.2,2.6 -1.5,2.5 -4.4,-0.2 -4.1,-3.7 -7.1,-2.3 -6.7,3.1 0.2,2.5 -0.2,3.3 -2.4,4.9 -3,2.1 -3,2.1 -4.5,0.6 z m 181.1,23 c -1.6,-0.5 -1.1,-8.5 0.8,-12.2 1.2,-2.2 1.3,-4.1 0.8,-8 -0.7,-5.8 0.4,-7.7 4.8,-8 3,-0.2 3.7,-4.1 1.3,-6.6 -1,-0.8 -2.4,-4.2 -3.5,-7.5 -1.3,-4.1 -2.5,-6.3 -4.1,-7.4 -1.7,-1.2 -2.8,-3.3 -4.2,-8.3 -2.9,-9.7 -5.6,-12.8 -7.5,-8.5 -0.4,1 -1.3,1.8 -1.8,1.8 -1.4,0.1 -5.1,-2.6 -5.2,-3.8 0,-0.5 -1.7,-1.3 -3.8,-1.7 -5.1,-1.1 -5.2,-1.3 -4.1,-5.3 0.8,-3.1 0.7,-3.8 -1.1,-6.9 -1.9,-3.3 -2,-3.4 -5,-2.5 -1.7,0.5 -4.4,1.3 -6.2,1.7 l -3.2,0.8 v -3.7 -3.7 h -3.7 c -3.1,0 -3.9,-0.4 -4.9,-2.2 -0.6,-1.3 -2.9,-4.1 -4.8,-6.6 -3.6,-4.2 -3.7,-4.3 -6.9,-3.5 -1.8,0.4 -3.8,0.4 -4.3,0 -1.3,-0.8 -5.7,0.1 -5.7,1.2 0,0.4 -0.8,0.8 -2,1 -1.6,0.1 -2.6,-0.7 -4.3,-3.2 -1.8,-2.6 -2.8,-3.4 -5.4,-3.6 -2.6,-0.2 -4.1,-1.3 -8.4,-5.7 -3.3,-3.5 -5.2,-6.2 -5.3,-7.7 -0.1,-1.5 -0.6,-2.2 -1.5,-2.1 -2.4,0.2 -9.2,-4.5 -11.2,-7.7 -1.4,-2.3 -2.9,-3.5 -5.6,-4.3 -2.5,-0.8 -3.8,-0.8 -4.2,-0.2 -0.3,0.6 -1.3,0.7 -3.3,0.2 -2.9,-0.7 -3.7,-2.8 -2.1,-4.7 1.2,-1.4 -3.5,-6.7 -6.2,-7.2 -1.4,-0.2 -2.2,-1.2 -2.8,-3.2 -0.6,-2.3 -1.3,-3 -3.5,-3.4 -2.8,-0.5 -2.8,-0.5 -3.7,-6.9 -0.5,-4 -1.5,-7.2 -2.5,-8.6 -1,-1.2 -1.8,-3.5 -1.9,-5.2 -0.3,-4.8 -2.4,-11.2 -4.2,-12.6 -0.8,-0.6 -3.3,-1.7 -5.4,-2.3 -2.1,-0.5 -5.4,-1.9 -7.4,-3 -2,-1.1 -6.1,-3.3 -9.1,-4.9 -3,-1.6 -7,-3 -8.9,-3.2 -3.4,-0.3 -3.7,-0.1 -7.4,4.4 -2.1,2.6 -4.5,5.8 -5.5,7.2 -2.5,3.8 -7.7,6.5 -13.5,6.9 l -5.1,0.3 0.4,-2.9 c 0.2,-1.6 1.1,-4 1.8,-5.3 1.8,-3.3 0.8,-3.9 -6.2,-4.1 l -5.9,-0.2 -3.3,-6.7 c -3,-5.9 -3.2,-6.8 -2,-7.7 1.6,-1.4 2.3,-7.4 0.8,-7.3 -0.5,0 -1.7,-1.3 -2.6,-2.9 -0.8,-1.6 -2.3,-3.1 -3.2,-3.3 -1.2,-0.3 -1.7,-1.3 -1.8,-3.4 l -0.2,-3.1 3.8,0.3 c 3.4,0.2 4,0 5.8,-2 1.2,-1.3 2.4,-2.3 3,-2.4 2.2,-0.1 0.4,-5.4 -3.3,-9.7 l -3.8,-4.5 2.6,-3.1 c 2.2,-2.6 3.2,-3.2 6.8,-3.4 2.3,-0.2 5.8,-0.8 7.9,-1.5 2.6,-0.8 4.3,-1.1 5.8,-0.5 3,1.2 6.7,-1.9 7.7,-6.3 0.4,-1.9 1.5,-3.9 2.4,-4.5 0.8,-0.5 1.6,-1.8 1.5,-2.8 -0.1,-2 1.4,-2.2 3.7,-0.6 1.3,0.8 1.6,1.8 1.4,3.9 -0.2,2.1 0.2,3.4 1.5,4.9 l 1.8,2 1.9,-2 c 2.1,-2.3 3.1,-2.5 4.7,-1.3 0.7,0.7 0.8,1.5 0,3.3 -1.2,2.6 -0.2,7 1.6,7.4 0.7,0.2 1,-1.1 0.7,-4 -0.2,-3.7 0,-4.5 2,-6.2 1.5,-1.3 2.6,-3.3 3.2,-5.8 0.7,-3.5 1.1,-4 3.3,-4.1 2.2,-0.1 2.4,0.1 2.6,3 0.2,2.9 0.4,3.1 2.1,2.4 1.1,-0.4 3.3,-1.1 5,-1.4 2.8,-0.6 3.3,-0.4 4.3,1.5 0.6,1.2 1.5,2.1 1.8,2.1 1.6,-0.1 1.3,-1.5 -1,-4.3 l -2.4,-3.2 2,-2.3 c 1.9,-2.2 2.3,-2.3 4.8,-1.5 3.6,1.3 4.4,0.3 4.1,-4.5 l -0.3,-4.2 3.6,-0.2 c 2.4,-0.2 4.2,0.3 5.6,1.5 2.5,2 4,1.1 5.2,-3.6 0.7,-2.8 1.1,-3 4.3,-3.3 2,-0.1 4.1,0.1 4.7,0.6 0.7,0.6 1.7,0.6 3.6,-0.3 1.9,-1 2.9,-1.1 3.7,-0.4 1,0.6 1.7,0.3 3.1,-1.4 2.4,-3 9.2,-3.8 9.3,-1.2 0.1,1 -1.1,2.5 -2.5,3.6 l -2.6,2 2.3,-0.1 c 1.7,-0.1 2.5,0.3 3,1.8 0.3,1.1 2.5,3.3 4.9,4.8 4.2,2.8 4.3,2.9 15.1,2.6 6,-0.1 11,0 11.2,0.3 0.2,0.3 0.2,1.5 0.1,2.8 -0.2,1.6 -1.2,2.8 -3.5,4 -3.4,1.8 -3.5,3.3 -0.1,3 1.2,-0.1 2.5,0.5 3.1,1.5 1.5,2.4 1.3,3.4 -0.6,3.5 -2.8,0.2 -2.9,2.6 -0.2,4.9 1.3,1.1 2.4,2.6 2.5,3.5 0.1,0.8 0.8,2.1 1.8,2.9 1.1,0.8 1.6,2.1 1.5,3.5 -0.3,2.8 -2,2.9 -3.9,0.3 -1.4,-1.8 -1.9,-1.9 -5.2,-1.3 -2,0.4 -4.4,0.4 -5.4,0 -2.4,-1.1 -4.1,-0.1 -2.4,1.4 0.7,0.6 1.4,1.6 1.4,2 0.1,1.2 -7.5,5.4 -9.2,5.2 -0.7,-0.1 -1.8,0.4 -2.3,1.1 -0.8,1.2 -1.3,1.2 -3.3,0.3 -3,-1.3 -3.5,-0.8 -4.4,3.4 -0.7,3.2 -0.6,3.6 1.2,5.3 1.1,1.1 2,2.6 2.1,3.6 0.1,1 0.7,2 1.5,2.2 0.8,0.3 1.4,1.6 1.6,3.8 0.2,3.3 -0.6,4.5 -1.9,2.8 -1.3,-1.8 -3.8,1.5 -3.5,4.5 0.3,4.3 3.1,13.3 4.5,14.9 6.1,6.9 7.8,8.3 9.7,8.1 1.3,-0.1 3.3,1 5.4,3 2,1.9 5,3.5 7.6,4.2 5.8,1.5 7.1,2.4 8.1,6 0.4,1.6 1.8,4.2 3,5.8 1.4,1.8 2.5,4.9 3.2,8.4 1.6,9.1 4.8,14.4 12.3,20.6 3.6,3.1 7,5.5 7.4,5.5 0.4,0 2.4,1.2 4.4,2.6 2,1.4 4.1,2.8 4.8,2.6 0.5,0 2.1,0.6 3.5,1.6 2.2,1.5 2.8,1.5 5.7,0.4 2.2,-0.8 4.3,-1.1 6.9,-0.6 2.6,0.4 4.4,0.2 6.8,-0.8 2.8,-1.2 3.4,-1.2 5.8,0.1 3.5,1.9 3.2,4.2 -1.1,7.3 -4.5,3.4 -3.7,8.4 1.3,8 1.1,-0.1 3,0.7 4,1.7 1.2,1.1 5.2,2.6 9.4,3.8 8.5,2.1 21.5,7.7 23.3,10.1 1.5,1.9 7.7,3.7 11.6,3.4 2.3,-0.2 3.2,0.2 4.1,2.1 0.6,1.3 3.4,4.1 6,6.5 5.6,4.9 6.2,6.5 5.9,14 -0.1,4.2 -0.6,5.8 -1.8,6.6 -2.3,1.5 -6.7,-1.5 -9,-5.9 -1.1,-2 -2.8,-4.8 -3.9,-6 -1.9,-2.2 -2.5,-2.4 -7.1,-2.1 -5.7,0.4 -9.7,-1.2 -10.7,-4 -0.5,-1.6 -3.9,-3.6 -5.8,-3.5 -0.8,0.1 -2,3.7 -2.5,7.5 -0.2,1.6 -1.1,3.1 -2.1,3.6 -1.5,0.7 -1.9,1.9 -2.1,5.5 -0.1,2.4 -1,5.9 -1.9,7.7 -1.6,3.1 -1.6,3.3 -0.1,4.8 1,1 3.3,1.7 5.8,1.8 3.1,0.2 4.3,0.7 4.8,1.8 0.3,0.8 1.7,2 3.1,2.6 2.2,1 2.5,1.6 3.4,7.3 0.5,3.4 1.2,7.1 1.4,8.3 0.3,1.9 0,2.2 -5.5,3.7 -7.6,2 -8.7,3.6 -8.3,11 0.3,5.3 0.2,5.6 -2.8,8.6 -1.8,1.8 -3.3,4.2 -3.5,5.7 -0.2,1.5 -1.3,3.8 -2.3,5.3 -1.7,2.3 -2.5,2.8 -6.3,3 -2.9,-0.5 -5.3,-0.5 -5.9,-0.7 z m -16,42.5 c -1.1,-1 -3.3,-1.3 -7.4,-1.3 -5.8,0 -5.8,0 -7.7,-3.1 -2.3,-3.8 -6.9,-5.9 -13,-5.9 -4.1,0 -4.8,-0.3 -6.7,-2.6 -1.8,-2.3 -2.5,-2.6 -5.5,-2.4 -3.1,0.2 -3.6,0 -4.7,-2.1 -1.4,-2.6 -5.1,-5.3 -7.4,-5.2 -0.8,0.1 -2,-0.3 -2.5,-0.7 -0.7,-0.6 -1.6,-0.6 -3.3,0.2 -2.1,1.1 -2.5,1 -5.4,-1.5 -4.2,-3.5 -4.9,-5.9 -3,-11 0.8,-2.2 2,-4.1 2.6,-4.2 0.6,0 1.5,-0.8 2,-1.8 1.2,-2.3 1.7,-2.2 3.1,0.6 1.6,3.1 4,3 5,-0.2 0.5,-1.9 1.3,-2.5 3.6,-3.1 1.6,-0.3 3.5,-1 4.2,-1.3 1,-0.4 1.5,0 1.9,1.8 0.5,2.1 1.1,2.4 3.2,2.2 1.4,-0.1 2.6,0.3 3,0.8 0.4,0.8 2.9,1 10.4,0.4 10.5,-0.6 11.4,-1.1 15.8,-5.6 1.8,-1.9 2.3,-2.1 4.2,-1.4 3.3,1.3 6.3,0.7 7.4,-1.3 0.5,-1.1 1.5,-1.6 2.2,-1.4 0.6,0.2 2.3,-0.2 3.6,-1.1 2.9,-1.7 5.9,-1.3 5.2,0.7 -0.2,0.7 -0.6,2.1 -0.7,3.1 -0.2,1 -1,2.6 -1.7,3.9 -0.7,1.3 -1.3,2.5 -1.3,3 0,0.5 -1.1,1.8 -2.3,3.1 -1.9,1.9 -2.2,2.8 -1.7,4.4 0.4,1.4 0.2,2.8 -0.8,4.2 -1.9,2.9 -1.7,5.4 0.4,7.2 1.8,1.5 2.4,3.5 1.1,3.6 -1.5,0.1 -0.7,2.4 1.1,3.2 2.4,1.2 2.4,4.4 0,5.3 -1.8,0.6 -1.9,1.1 -1.7,5.5 0.4,5.5 -0.4,6.5 -3.2,4 z" />
				</defs>
				<clipPath
   id="SVGID_29_">
					<use
   xlink:href="#SVGID_64_"
   style="overflow:visible"
   id="use301" />
				</clipPath>
				
					<linearGradient
   id="SVGID_30_"
   gradientUnits="userSpaceOnUse"
   x1="325.89651"
   y1="503.55069"
   x2="629.87598"
   y2="503.55069"
   gradientTransform="matrix(1,0,0,-1,0,876.3196)">
					<stop
   offset="0"
   style="stop-color:#1C3760"
   id="stop304" />
					<stop
   offset="0.1512"
   style="stop-color:#3D375B"
   id="stop306" />
					<stop
   offset="0.4797"
   style="stop-color:#773446"
   id="stop308" />
					<stop
   offset="0.9578"
   style="stop-color:#C81D1C"
   id="stop310" />
					<stop
   offset="0.9816"
   style="stop-color:#CD181B"
   id="stop312" />
				</linearGradient>
				<rect
   x="325.89999"
   y="201.3"
   class="st22"
   width="304"
   height="343"
   clip-path="url(#SVGID_29_)"
   id="rect315"
   style="fill:url(#SVGID_30_)" />
			</g>
		</g>
		<g
   id="g327">
			<path
   id="SVGID_20_"
   class="st23"
   d="m 440.8,605.6 2.9,20.5 h 12.8 v -16.9 c 0,-1.7 0.8,-3.2 2.6,-3.2 1.7,0 2.5,1.5 2.5,3.2 v 17 h 15.6 v -19.9 c 0,-4 -1,-7 -2.6,-9.3 -1.6,-2.1 -4.7,-3.7 -8.4,-3.7 -2.4,0 -4.9,0.8 -6.2,1.9 -0.8,0.6 -1.4,1.2 -2.2,1.9 -0.3,0.3 -1.9,2 -2.1,2 h -0.2 l 0.6,-5.2 h -15.2 z" />
			<path
   id="SVGID_19_"
   class="st23"
   d="m 395.4,611.4 c 0,0.1 0.2,2.1 0.3,2.4 0.1,0.7 0.3,1.5 0.5,2.1 0.2,1.1 1.1,2.9 1.6,3.6 0.7,1.2 1.5,1.9 2.4,3 1,1 1.9,1.5 3.1,2.2 1.8,1.2 5.5,2.2 8.5,2.1 2,0 3.1,0 4.9,-0.3 1.1,-0.2 3.4,-0.7 4.1,-1.1 l 0.6,-13 c -1.9,1 -2.9,2.4 -5.9,2.4 -2.1,0 -3.4,-1.3 -4.1,-2.6 -0.8,-1.7 -0.3,-4 0.6,-5.1 1.1,-1.1 3.1,-2 5.1,-1.4 0.8,0.3 1.7,0.5 2.3,1.1 0.7,0.4 1.3,1 1.9,1.5 v -0.7 l -1,-6.9 1,-0.3 v -4.8 l -0.8,-0.5 c -1.4,-0.3 -2.5,-0.7 -4.1,-1 -1.2,-0.2 -3.4,-0.4 -4.7,-0.4 -5,0 -9,2.1 -11.5,4.7 -1.3,1.3 -2.6,3 -3.3,4.8 -0.4,1 -0.7,2 -1.1,3.1 -0.1,0.4 -0.4,3.5 -0.5,3.6 v 1.6 h 0.1 z" />
			<polygon
   id="SVGID_11_"
   class="st24"
   points="422.7,607.6 426.5,634.5 426.8,634.5 442.2,629.8 441.6,626.2 438.9,605.6 437.4,595.9 437.5,595.9 422.7,600.4 421.8,600.7 " />
			<rect
   id="SVGID_10_"
   x="479.5"
   y="594"
   class="st23"
   width="15.6"
   height="32.200001" />
			<path
   id="SVGID_9_"
   class="st24"
   d="m 421.9,595.1 0.8,0.5 c 0.8,0.4 1.9,0.7 3.1,0.7 h 0.4 c 2.3,0 5.1,-1.3 6.6,-2.2 0.2,-0.1 0.8,-0.7 1.2,-1.1 0.6,-0.5 0.5,-0.6 1,-1.1 0.3,-0.3 0.6,-0.8 0.8,-1.4 0.1,-0.3 0.5,-1.3 0.7,-1.6 l 0.3,-2.5 v -0.1 l -0.3,-2.1 h -0.1 0.1 c -0.1,-0.8 -0.8,-2.1 -1.2,-2.6 -0.5,-0.7 -1.4,-1.4 -2.2,-1.8 -1.9,-1 -4.8,-0.7 -6.7,0 -0.4,0.2 -1,0.4 -1.4,0.5 -0.5,0.2 -0.7,0.5 -1.3,0.7 -0.2,0.1 -1.1,0.7 -1.2,0.8 -0.1,0.1 -0.3,0.3 -0.5,0.5 -0.4,0.3 -0.2,0.2 -0.4,0.5 -1.1,1.2 -2.4,3.4 -2.4,5.6 0,0.7 0.1,1.5 0.2,2 0,0.5 0.4,1.2 0.4,1.7 0.4,1.3 1.6,2.3 2.1,3" />
			<path
   id="SVGID_8_"
   class="st23"
   d="m 487.5,591.7 c 2.4,0 4.3,-0.7 5.9,-1.8 1.3,-0.8 2.5,-3.1 2.5,-5.2 v -0.5 c 0,-1.3 -0.1,-2.1 -0.5,-3 0.3,-0.1 -0.8,-1.7 -1.1,-1.9 -0.6,-0.6 -1,-1 -1.7,-1.5 -1.3,-0.8 -3.1,-1.3 -5.2,-1.3 -2.9,0 -4.5,0.7 -6.1,2 -1.5,1.3 -2.5,3.1 -2.4,5.6 0.1,4.8 3.5,7.6 8.6,7.6" />
		</g>
		
			<linearGradient
   id="SVGID_31_"
   gradientUnits="userSpaceOnUse"
   x1="-2481.0933"
   y1="-5212.5889"
   x2="-2450.9587"
   y2="-5212.5889"
   gradientTransform="matrix(-0.778,0.6282,0.6282,0.778,1511.2834,6157.7061)">
			<stop
   offset="0"
   style="stop-color:#1C3760"
   id="stop329" />
			<stop
   offset="0.1512"
   style="stop-color:#3D375B"
   id="stop331" />
			<stop
   offset="0.4797"
   style="stop-color:#773446"
   id="stop333" />
			<stop
   offset="0.9578"
   style="stop-color:#C81D1C"
   id="stop335" />
			<stop
   offset="0.9816"
   style="stop-color:#CD181B"
   id="stop337" />
		</linearGradient>
		<ellipse
   class="st25"
   cx="155.5"
   cy="553"
   rx="15"
   ry="15.1"
   id="ellipse340"
   style="fill:url(#SVGID_31_)" />
		
			<linearGradient
   id="SVGID_32_"
   gradientUnits="userSpaceOnUse"
   x1="-342.45001"
   y1="-6138.7778"
   x2="-312.36899"
   y2="-6138.7778"
   gradientTransform="matrix(-1,0,0,1,382.5452,6691.8398)">
			<stop
   offset="0"
   style="stop-color:#1C3760"
   id="stop342" />
			<stop
   offset="0.1512"
   style="stop-color:#3D375B"
   id="stop344" />
			<stop
   offset="0.4797"
   style="stop-color:#773446"
   id="stop346" />
			<stop
   offset="0.9578"
   style="stop-color:#C81D1C"
   id="stop348" />
			<stop
   offset="0.9816"
   style="stop-color:#CD181B"
   id="stop350" />
		</linearGradient>
		<ellipse
   class="st26"
   cx="710"
   cy="553.09998"
   rx="15"
   ry="15.1"
   id="ellipse353"
   style="fill:url(#SVGID_32_)" />
		
			<linearGradient
   id="SVGID_33_"
   gradientUnits="userSpaceOnUse"
   x1="-433.58331"
   y1="-5980.2041"
   x2="-403.50229"
   y2="-5980.2041"
   gradientTransform="matrix(-1,0,0,1,15.0476,6044.2324)">
			<stop
   offset="0"
   style="stop-color:#1C3760"
   id="stop355" />
			<stop
   offset="0.1512"
   style="stop-color:#3D375B"
   id="stop357" />
			<stop
   offset="0.4797"
   style="stop-color:#773446"
   id="stop359" />
			<stop
   offset="0.9578"
   style="stop-color:#C81D1C"
   id="stop361" />
			<stop
   offset="0.9816"
   style="stop-color:#CD181B"
   id="stop363" />
		</linearGradient>
		<ellipse
   class="st27"
   cx="433.60001"
   cy="64"
   rx="15"
   ry="15.1"
   id="ellipse366"
   style="fill:url(#SVGID_33_)" />
		
			<linearGradient
   id="SVGID_34_"
   gradientUnits="userSpaceOnUse"
   x1="424.91031"
   y1="226.1284"
   x2="439.95432"
   y2="226.1284"
   gradientTransform="matrix(1,0,0,-1,0,876.3196)">
			<stop
   offset="0"
   style="stop-color:#1C3760"
   id="stop368" />
			<stop
   offset="0.1512"
   style="stop-color:#3D375B"
   id="stop370" />
			<stop
   offset="0.4797"
   style="stop-color:#773446"
   id="stop372" />
			<stop
   offset="0.9578"
   style="stop-color:#C81D1C"
   id="stop374" />
			<stop
   offset="0.9816"
   style="stop-color:#CD181B"
   id="stop376" />
		</linearGradient>
		<circle
   class="st28"
   cx="432.39999"
   cy="650.20001"
   id="ellipse379"
   r="7.5"
   style="fill:url(#SVGID_34_)" />
	</g>
	<g
   id="g433">
		<g
   id="g431">
			<path
   class="st29"
   d="m 110.5,624.9 c -2.4,-3.7 -3.6,-7.2 -3.4,-10.4 0.2,-3.2 1.9,-5.7 5.1,-7.7 3.3,-2 5,-3.1 8.3,-5.1 3.2,-2 6.1,-2.4 9,-1.3 2.8,1.1 5.3,3.3 7.5,6.8 0.1,0.1 0.1,0.1 0.2,0.2 2.2,3.4 3.3,6.6 3.2,9.5 -0.1,3 -1.7,5.6 -4.7,7.8 -1.1,-1.5 -1.6,-2.2 -2.5,-3.7 2.3,-1.7 3.6,-3.5 3.7,-5.4 0.2,-1.9 -0.5,-4.1 -2.2,-6.7 -0.1,-0.1 -0.1,-0.1 -0.2,-0.2 -1.7,-2.5 -3.4,-4.1 -5.2,-4.7 -1.8,-0.6 -3.9,-0.1 -6.3,1.4 -3.3,2.1 -4.9,3.1 -8.1,5.2 -2.4,1.6 -3.7,3.3 -3.9,5.3 -0.2,2 0.6,4.3 2.3,7.1 0.1,0.1 0.1,0.2 0.2,0.3 1.8,2.8 3.6,4.3 5.5,5 1.9,0.6 4,0 6.3,-1.6 1.1,1.5 1.6,2.2 2.6,3.7 -3.1,2.2 -6,2.9 -8.9,1.8 -3,-1.1 -5.6,-3.4 -8,-7.1 -0.4,0 -0.4,-0.1 -0.5,-0.2 z"
   id="path383" />
			<path
   class="st29"
   d="m 130.1,651.5 c 4.1,-3.4 6.2,-5 10.4,-8.4 2.3,-8.5 3.6,-12.6 6.3,-20.7 1.1,1.5 1.7,2.2 2.8,3.7 -2.2,6.5 -3.3,9.7 -5.2,16.4 0.1,0.2 0.2,0.2 0.3,0.4 6.8,-0.5 10.2,-0.8 16.8,-1.6 1.2,1.4 1.8,2.1 3,3.5 -8.4,1 -12.7,1.4 -21.3,1.9 -4.1,3.4 -6.1,5.1 -10.3,8.5 -1.2,-1.5 -1.8,-2.3 -2.8,-3.7 z"
   id="path385" />
			<path
   class="st29"
   d="m 170.7,674.1 c 2.6,3.9 2.6,7.2 0.1,10.1 -0.1,0.1 -0.1,0.1 -0.2,0.2 -1.8,1.9 -4,2.8 -6.5,2.3 -2.5,-0.5 -5.1,-1.9 -7.7,-4.7 -4.1,-4.2 -6.1,-6.5 -10.1,-10.9 7.6,-7 15.2,-14 22.7,-20.9 3.3,3.7 4.9,5.5 8.3,9 2.4,2.5 3.9,5 4.2,7.3 0.4,2.3 -0.3,4.4 -2,6.1 -0.1,0.1 -0.2,0.2 -0.3,0.3 -2.2,2.3 -5,2.6 -8.4,0.7 0.1,0.4 0.1,0.4 -0.1,0.5 z m 5.8,-4.2 c 1.2,-1.2 1.7,-2.5 1.5,-3.9 -0.2,-1.4 -1.2,-2.9 -2.8,-4.7 -2.2,-2.3 -3.4,-3.5 -5.5,-5.9 -3.1,2.9 -4.5,4.3 -7.6,7.2 2.2,2.4 3.4,3.7 5.7,6.1 1.7,1.8 3.3,2.9 4.7,3.1 1.4,0.2 2.6,-0.3 3.9,-1.6 0,-0.1 0,-0.2 0.1,-0.3 z m -8.9,11.2 c 0.1,-0.1 0.1,-0.1 0.2,-0.2 1.3,-1.3 1.8,-2.6 1.6,-4.1 -0.2,-1.4 -1.2,-3 -3,-4.9 -2.8,-2.9 -4.1,-4.3 -6.8,-7.2 -3.2,3.1 -4.9,4.5 -8,7.5 2.8,3.1 4.1,4.5 7,7.4 1.8,1.9 3.4,2.9 4.9,3.1 1.4,0.4 2.7,-0.2 4.1,-1.6 z"
   id="path387" />
			<path
   class="st29"
   d="m 207.4,691.2 c -5.6,-4.7 -8.4,-7 -13.9,-12 -2.9,3.2 -4.2,4.9 -7.1,8 4.2,3.8 6.3,5.6 10.6,9.3 -0.8,1 -1.2,1.5 -2,2.4 -4.3,-3.6 -6.5,-5.5 -10.7,-9.3 -2.9,3.3 -4.3,4.9 -7.2,8.1 5.8,5.3 8.8,7.8 14.8,12.8 -0.7,1 -1.2,1.5 -1.9,2.4 -7.4,-6 -11.1,-9.2 -18.2,-15.9 6.9,-7.6 13.9,-15.3 20.7,-23 6.6,6.1 9.9,9 16.7,14.6 -0.6,1.2 -1.1,1.7 -1.8,2.6 z"
   id="path389" />
			<path
   class="st29"
   d="m 229.3,715.5 c -3.2,4.8 -7.6,5.5 -13.1,2.1 0,0.1 -0.1,0.1 -0.1,0.2 0.2,6.1 0.4,9.2 1,15.3 -1.6,-1.1 -2.4,-1.7 -4,-2.8 -0.4,-6.2 -0.5,-9.4 -0.7,-15.7 -1.8,-1.4 -2.8,-2 -4.5,-3.4 -3,3.9 -4.3,5.9 -7.3,9.8 -1.4,-1.1 -2.1,-1.6 -3.5,-2.6 6.2,-8.3 12.5,-16.5 18.7,-24.7 3.9,3.1 5.9,4.5 9.8,7.4 6,4.3 7.3,8.9 3.9,14.2 -0.2,0.1 -0.2,0.1 -0.2,0.2 z M 226,713 c 1.3,-1.9 1.7,-3.6 1.4,-5 -0.4,-1.4 -1.6,-2.9 -3.7,-4.3 -2.8,-2 -4,-3 -6.8,-5 -3,4 -4.4,6 -7.4,10.1 2.8,2.1 4.1,3.2 7,5.2 2.1,1.6 3.9,2.2 5.4,2.2 1.5,-0.1 2.9,-1.1 4.1,-3 0,-0.1 0,-0.2 0,-0.2 z"
   id="path391" />
			<path
   class="st29"
   d="m 233.7,744.5 c -3.6,-2.2 -6,-4.7 -7.2,-7.4 -1.2,-2.6 -0.8,-5.5 1,-8.4 1.4,1 2.1,1.4 3.6,2.3 -1.4,2.1 -1.7,4 -1,5.7 0.7,1.7 2.4,3.4 5.2,5 0.1,0.1 0.1,0.1 0.2,0.1 5,3 8.4,2.9 10.2,-0.2 0.3,-0.5 0.5,-1.1 0.6,-1.6 0.1,-0.5 0,-1.1 -0.2,-1.7 -0.2,-0.5 -0.4,-1.1 -0.6,-1.5 -0.2,-0.4 -0.5,-1 -1.1,-1.6 -0.5,-0.6 -1,-1.1 -1.3,-1.5 -0.3,-0.3 -0.8,-0.8 -1.5,-1.6 -0.6,-0.7 -1.2,-1.2 -1.4,-1.4 -1.2,-1.3 -2.1,-2.3 -2.8,-3.1 -0.6,-0.8 -1.3,-1.9 -2,-3.2 -0.7,-1.3 -1.1,-2.5 -1,-3.7 0.1,-1.2 0.4,-2.4 1.2,-3.6 1.4,-2.1 3.3,-3.2 5.7,-3.3 2.4,-0.1 5.1,0.7 7.9,2.4 0.1,0.1 0.1,0.1 0.2,0.1 3.1,1.9 5.2,4 6.2,6.6 1.1,2.5 0.8,5.2 -0.8,8.1 -1.4,-0.8 -2.1,-1.2 -3.5,-2 1.3,-2.2 1.5,-4.1 0.8,-5.7 -0.6,-1.6 -2.1,-3.1 -4.3,-4.4 -0.1,-0.1 -0.1,-0.1 -0.2,-0.1 -4,-2.4 -6.9,-2.3 -8.6,0.4 -0.2,0.3 -0.3,0.6 -0.4,1.1 -0.1,0.3 -0.2,0.7 -0.2,1 0,0.3 0,0.6 0.1,1.1 0.1,0.4 0.2,0.7 0.3,1 0.1,0.2 0.2,0.6 0.5,1.1 0.3,0.4 0.5,0.7 0.6,1 0.1,0.2 0.4,0.5 0.8,1 0.4,0.4 0.6,0.7 0.8,1 0.1,0.1 0.4,0.5 1,1 0.4,0.5 0.7,0.8 1,1 2.6,2.8 4.4,4.8 5.3,6.1 1.8,2.9 2,5.6 0.6,8.1 -1.3,2.3 -3.3,3.6 -6,3.7 -2.8,0.1 -5.9,-0.8 -9.3,-2.9 -0.1,0.1 -0.3,0.1 -0.4,0 z"
   id="path393" />
			<path
   class="st29"
   d="m 285.6,739.7 c -6.5,-2.9 -9.6,-4.4 -15.9,-7.6 -1.9,3.8 -2.9,5.7 -4.9,9.6 4.9,2.4 7.3,3.7 12.2,5.9 -0.5,1.2 -0.7,1.7 -1.3,2.9 -5,-2.3 -7.4,-3.5 -12.3,-6 -1.9,3.9 -3,5.8 -4.9,9.7 6.8,3.5 10.2,5.1 17,8.1 -0.5,1.2 -0.7,1.7 -1.3,2.9 -8.5,-3.8 -12.7,-5.8 -20.9,-10.2 4.8,-9.2 9.5,-18.4 14.3,-27.6 7.6,4 11.4,5.9 19.3,9.4 -0.6,1.1 -0.8,1.7 -1.3,2.9 z"
   id="path395" />
			<path
   class="st29"
   d="m 292,773.1 c -3.7,-1.5 -6.2,-3.5 -7.7,-6 -1.4,-2.5 -1.4,-5.6 0.1,-9.1 1.5,-3.6 2.3,-5.4 3.8,-9 1.5,-3.5 3.6,-5.6 6.2,-6.5 2.6,-0.9 5.7,-0.6 9.1,0.7 0.1,0 0.1,0.1 0.2,0.1 3.4,1.4 5.8,3.2 7.2,5.6 1.4,2.4 1.5,5.4 0.2,9 -1.5,-0.5 -2.2,-0.8 -3.8,-1.4 1,-2.8 1.1,-4.9 0.2,-6.5 -0.8,-1.6 -2.4,-2.9 -5,-3.9 -0.1,0 -0.1,-0.1 -0.2,-0.1 -2.5,-1 -4.5,-1.2 -6.2,-0.5 -1.7,0.6 -3.1,2.3 -4.1,5 -1.5,3.6 -2.2,5.4 -3.7,9 -1.1,2.6 -1.3,4.9 -0.4,6.6 0.8,1.7 2.6,3.1 5.3,4.1 0.1,0 0.2,0.1 0.3,0.1 2.6,1.1 5,1.3 6.7,0.5 1.7,-0.6 3.1,-2.3 4,-5.1 1.6,0.5 2.3,0.8 3.9,1.4 -1.3,3.6 -3.2,5.8 -5.9,6.8 -2.7,1 -6,0.7 -9.7,-0.7 -0.4,-0.1 -0.4,-0.1 -0.5,-0.1 z"
   id="path397" />
			<path
   class="st29"
   d="m 325.2,784.4 c -3.8,-1.1 -6.5,-2.9 -8,-5.1 -1.6,-2.3 -1.8,-5.2 -0.6,-8.6 2.5,-8 3.8,-12 6.3,-20 1.5,0.5 2.2,0.7 3.7,1.2 -2.4,8 -3.7,12.1 -6.1,20 -0.7,2.5 -0.7,4.5 0.2,6 1,1.5 2.8,2.6 5.5,3.4 0.1,0 0.2,0 0.3,0.1 2.8,0.7 4.9,0.7 6.5,0 1.6,-0.7 2.6,-2.4 3.4,-5.1 2.1,-8.1 3.2,-12.2 5.3,-20.3 1.5,0.4 2.2,0.6 3.8,1 -2,8.1 -3.1,12.2 -5.1,20.3 -0.8,3.5 -2.5,5.7 -5.1,6.9 -2.5,1.2 -5.7,1.2 -9.5,0.1 -0.4,0.1 -0.5,0.1 -0.6,0.1 z"
   id="path399" />
			<path
   class="st29"
   d="m 375.5,772.9 c -0.8,5.6 -4.4,8.3 -10.8,7.6 0,0.1 0,0.1 0,0.2 2.6,5.4 4,8.1 7,13.4 -1.9,-0.3 -2.8,-0.4 -4.7,-0.7 -2.9,-5.5 -4.2,-8.3 -6.9,-13.8 -2.1,-0.4 -3.3,-0.6 -5.4,-1.1 -1.1,4.8 -1.5,7.2 -2.5,12 -1.7,-0.3 -2.4,-0.5 -4.1,-0.8 2.2,-10.2 4.4,-20.2 6.8,-30.4 4.7,1.1 7,1.5 11.6,2.4 7,1.3 10.1,4.9 9.1,11 -0.1,0.1 -0.1,0.2 -0.1,0.2 z m -3.8,-0.7 c 0.4,-2.3 0.1,-3.9 -0.8,-5.1 -1,-1.1 -2.5,-1.8 -5,-2.3 -3.2,-0.6 -4.8,-1 -7.9,-1.6 -1.1,4.9 -1.6,7.4 -2.5,12.3 3.3,0.7 4.9,1.1 8.3,1.6 2.5,0.4 4.3,0.3 5.6,-0.4 1.1,-0.8 1.9,-2.3 2.3,-4.5 0,0.1 0,0 0,0 z"
   id="path401" />
			<path
   class="st29"
   d="m 380.7,795.6 c 1.4,-10.3 2.8,-20.5 4.1,-30.8 1.6,0.2 2.3,0.3 3.8,0.5 -1.3,10.3 -2.5,20.6 -3.8,30.9 -1.6,-0.3 -2.4,-0.4 -4.1,-0.6 z"
   id="path403" />
			<path
   class="st29"
   d="m 419.4,767.6 c 0,1.3 -0.1,1.9 -0.1,3.2 -4.1,-0.1 -6.2,-0.2 -10.3,-0.5 -0.7,11.1 -1.1,16.7 -1.8,27.9 -1.7,-0.1 -2.5,-0.2 -4.2,-0.3 0.8,-11.1 1.3,-16.7 2.1,-27.8 -4.1,-0.3 -6.1,-0.5 -10.3,-1 0.1,-1.3 0.2,-1.9 0.3,-3.2 9.7,1.1 14.6,1.4 24.3,1.7 z"
   id="path405" />
			<path
   class="st29"
   d="m 433.2,799.1 c 0,-5.4 0,-8 0,-13.4 -4.7,-7.1 -6.9,-10.6 -11,-17.8 1.7,0 2.5,0.1 4.1,0.1 3.3,5.7 5.1,8.6 8.6,14.3 0.2,0 0.3,0 0.5,0 3.5,-5.7 5.2,-8.6 8.5,-14.4 1.7,0 2.5,-0.1 4.1,-0.1 -4.1,7.3 -6.2,10.9 -10.8,18 0.1,5.4 0.1,8 0.2,13.4 -1.7,-0.1 -2.5,-0.1 -4.2,-0.1 z"
   id="path407" />
			<path
   class="st30"
   d="m 471.3,797 c -1.1,-10.4 -2,-20.6 -3.1,-31 2.3,-0.2 3.5,-0.3 5.8,-0.6 6.2,9.8 9.5,14.7 16.4,24.3 0.2,0 0.3,0 0.5,-0.1 -1.6,-10.4 -2.3,-15.6 -3.9,-25.9 1.5,-0.2 2.2,-0.3 3.7,-0.6 1.7,10.3 3.4,20.4 5,30.7 -2.4,0.4 -3.7,0.6 -6.1,1 -7,-9.6 -10.3,-14.5 -16.5,-24.3 -0.2,0 -0.3,0 -0.4,0 1.2,10.5 1.7,15.7 2.9,26.1 -1.9,0.2 -2.7,0.3 -4.3,0.4 z"
   id="path409" />
			<path
   class="st30"
   d="m 526.7,787.4 c -2.1,-3.4 -3.3,-5.2 -5.4,-8.6 -4.9,1.2 -7.2,1.7 -12.1,2.8 -0.4,4 -0.7,6 -1.3,10.1 -1.8,0.3 -2.6,0.5 -4.4,0.8 1.7,-10.8 3.1,-21.7 4.1,-32.6 2.3,-0.5 3.5,-0.7 5.8,-1.3 5.5,9.4 11.4,18.6 17.5,27.7 -1.5,0.5 -2.4,0.7 -4.2,1.1 z m -17,-9.2 c 4,-0.8 6,-1.3 10.1,-2.2 -3.3,-5.4 -4.9,-8.1 -8,-13.6 -0.2,0 -0.3,0.1 -0.4,0.1 -0.8,6.3 -1.1,9.5 -1.7,15.7 z"
   id="path411" />
			<path
   class="st30"
   d="m 547,749 c 0.4,1.2 0.6,1.8 1,3 -3.9,1.4 -5.9,2 -9.9,3.2 3.3,10.7 4.9,16.1 8.1,26.8 -1.6,0.5 -2.4,0.7 -4,1.3 -3.2,-10.7 -4.7,-16.1 -7.8,-26.9 -4,1.2 -6,1.7 -10.1,2.8 -0.3,-1.3 -0.5,-1.8 -0.8,-3.1 9.6,-2.4 14.2,-3.9 23.5,-7.1 z"
   id="path413" />
			<path
   class="st30"
   d="m 563.6,776.2 c -3.5,-9.7 -7,-19.6 -10.5,-29.3 1.5,-0.5 2.2,-0.8 3.7,-1.4 3.6,9.7 7.2,19.5 10.8,29.2 -1.5,0.7 -2.4,0.9 -4,1.5 z"
   id="path415" />
			<path
   class="st30"
   d="m 589,766.5 c -3.7,1.6 -6.9,2 -9.7,1.2 -2.8,-0.8 -4.9,-3 -6.2,-6.5 -1.5,-3.6 -2.1,-5.4 -3.6,-9.1 -1.4,-3.5 -1.4,-6.5 -0.1,-9 1.3,-2.5 3.6,-4.4 7,-5.9 0.1,0 0.1,-0.1 0.2,-0.1 3.4,-1.5 6.3,-1.9 9.1,-1.2 2.8,0.7 4.9,2.8 6.6,6.1 1.7,3.5 2.5,5.3 4.2,8.8 1.6,3.4 1.8,6.5 0.5,9.1 -1.3,2.6 -3.8,4.8 -7.4,6.5 -0.5,0.1 -0.5,0.1 -0.6,0.1 z m -1.2,-2.9 c 0.1,0 0.1,-0.1 0.2,-0.1 2.6,-1.2 4.3,-2.6 5.1,-4.3 0.7,-1.7 0.5,-3.9 -0.6,-6.5 -1.7,-3.6 -2.5,-5.4 -4.1,-8.9 -1.2,-2.5 -2.6,-4.1 -4.3,-4.7 -1.7,-0.5 -3.8,-0.2 -6.2,0.8 -0.1,0 -0.1,0.1 -0.2,0.1 -2.4,1.1 -4.1,2.4 -4.9,4.1 -0.7,1.6 -0.6,3.8 0.5,6.5 1.5,3.6 2.2,5.5 3.7,9.1 1.1,2.6 2.5,4.3 4.3,4.9 1.6,0.5 3.8,0.3 6.5,-1 z"
   id="path417" />
			<path
   class="st30"
   d="m 609.8,756 c -4.7,-9.2 -9.4,-18.4 -14.1,-27.7 2.1,-1.1 3.2,-1.7 5.2,-2.8 9.4,6.9 14.3,10.2 24.3,16.4 0.2,-0.1 0.3,-0.1 0.4,-0.2 -5.3,-9.1 -7.9,-13.6 -13.1,-22.7 1.4,-0.7 2,-1.2 3.3,-2 5.3,8.9 10.6,17.8 15.9,26.7 -2.2,1.4 -3.3,2 -5.5,3.3 -10.1,-6.2 -14.9,-9.5 -24.4,-16.4 -0.2,0.1 -0.2,0.1 -0.4,0.2 4.9,9.3 7.3,14 12.2,23.3 -1.6,0.7 -2.3,1.2 -3.8,1.9 z"
   id="path419" />
			<path
   class="st30"
   d="m 659,725.5 c -3.3,-2.3 -5,-3.5 -8.1,-5.9 -4.1,3 -6.2,4.4 -10.5,7.3 1.1,3.9 1.5,5.9 2.4,9.8 -1.6,1.1 -2.3,1.6 -3.9,2.5 -2.3,-10.7 -4.9,-21.5 -7.8,-32.1 2,-1.4 3.1,-2.1 5.1,-3.5 8.7,6.6 17.6,12.9 26.7,18.9 -1.7,1.3 -2.4,1.9 -3.9,3 z m -19.6,-1.9 c 3.5,-2.3 5.3,-3.6 8.7,-6 -5.1,-3.8 -7.6,-5.7 -12.6,-9.6 -0.2,0.1 -0.2,0.2 -0.4,0.3 1.9,6.1 2.7,9.2 4.3,15.3 z"
   id="path421" />
			<path
   class="st30"
   d="m 670.9,712.4 c 5.4,-4.3 8,-6.6 13.2,-11.2 0.8,1 1.3,1.4 2,2.3 -6.6,5.8 -9.9,8.7 -16.8,14.1 -6.2,-8.3 -12.6,-16.4 -18.8,-24.7 1.3,-1 1.9,-1.5 3.2,-2.5 6.9,8.8 10.4,13.2 17.2,22 z"
   id="path423" />
			<path
   class="st30"
   d="m 704.5,681.8 c 5,-5.1 7.4,-7.7 12.2,-13 1,0.8 1.4,1.3 2.3,2.1 -6,6.8 -9.1,10.1 -15.3,16.3 -7.2,-7.4 -14.4,-14.8 -21.6,-22.2 1.2,-1.2 1.8,-1.8 3,-3 7.6,8 11.5,11.9 19.4,19.8 z"
   id="path425" />
			<path
   class="st30"
   d="m 738.3,647.2 c -3.9,-1.3 -5.8,-1.9 -9.6,-3.2 -3.4,4.3 -5.1,6.5 -8.5,10.6 2,3.6 3.1,5.3 5,8.9 -1.3,1.5 -1.9,2.2 -3.2,3.8 -5.1,-9.8 -10.4,-19.5 -16,-29 1.7,-2 2.4,-3.1 4.1,-5.1 10.3,3.7 20.7,7 31.2,10.1 -1.2,1.5 -1.7,2.3 -3,3.9 z m -19.7,4.6 c 2.9,-3.5 4.2,-5.2 7,-8.8 -6,-2.1 -9,-3.2 -14.9,-5.4 -0.1,0.2 -0.2,0.2 -0.3,0.4 3.4,5.4 5,8.2 8.2,13.8 z"
   id="path427" />
			<path
   class="st30"
   d="m 744.8,610.4 c 3.4,-3.7 6.7,-4.5 9.8,-2.6 0.1,0.1 0.2,0.1 0.3,0.2 2.2,1.4 3.5,3.4 3.5,6 0.1,2.6 -1,5.7 -3.2,9 -3.4,5.2 -5.1,7.8 -8.7,12.8 -8.4,-6 -16.7,-12.1 -25,-18.1 2.9,-4.1 4.3,-6.2 7.1,-10.5 2,-3.2 4.1,-5.2 6.3,-6.1 2.2,-1 4.3,-0.8 6.5,0.5 0.2,0.1 0.2,0.1 0.4,0.2 2.8,1.7 3.6,4.5 2.3,8.4 0.5,0.1 0.5,0.1 0.7,0.2 z m -5.3,-4.9 c -1.4,-1 -2.8,-1.1 -4.1,-0.5 -1.3,0.5 -2.6,1.9 -4,4 -1.9,2.9 -2.9,4.2 -4.8,7.1 3.4,2.4 5.2,3.6 8.6,6 2,-2.9 3,-4.3 4.9,-7.3 1.5,-2.2 2.1,-4.1 2.1,-5.5 -0.1,-1.5 -0.8,-2.6 -2.3,-3.6 -0.3,-0.1 -0.3,-0.1 -0.4,-0.2 z m 12.8,6.4 c -0.1,-0.1 -0.2,-0.1 -0.3,-0.2 -1.5,-1 -3,-1.2 -4.3,-0.6 -1.4,0.5 -2.8,2 -4.1,4.2 -2.2,3.5 -3.4,5.2 -5.7,8.6 3.6,2.5 5.4,3.8 9,6.3 2.4,-3.5 3.6,-5.3 5.9,-8.9 1.5,-2.3 2.2,-4.2 2.1,-5.7 -0.2,-1.4 -1,-2.7 -2.6,-3.7 z"
   id="path429" />
		</g>
	</g>
	<g
   id="g483">
		<path
   class="st29"
   d="m 960.4,382.4 c -15.4,0 -27.5,-4.4 -36.4,-13.3 -8.9,-8.9 -13.3,-22.5 -13.3,-40.8 v -47.5 c 0,-18.4 4.4,-32 13.3,-40.8 8.9,-8.9 21.1,-13.3 36.4,-13.3 h 1.1 c 15.4,0 27.5,4.4 36.4,13.3 8.9,8.9 13.3,22.5 13.3,40.8 h -16.4 c 0,-14.1 -2.8,-24.1 -8.3,-30.2 -5.5,-6 -13.9,-9 -25.1,-9 h -1.1 c -11.2,0 -19.7,3 -25.1,9 -5.5,6 -8.3,16.1 -8.3,30.2 v 47.5 c 0,14.1 2.8,24.1 8.3,30.2 5.5,6 13.9,9 25.1,9 h 1.1 c 11.2,0 19.6,-3 25.1,-9 5.5,-6 8.3,-16.1 8.3,-30.2 h 16.4 c 0,18.4 -4.4,32 -13.3,40.8 -8.9,8.8 -21.1,13.3 -36.4,13.3 z"
   id="path435" />
		<path
   class="st29"
   d="m 1065.9,380.2 v -65.6 l -46.9,-86 h 17.8 l 36.2,69.1 h 2 l 36.4,-69.1 h 17.8 l -46.9,86.2 v 65.3 h -16.4 z"
   id="path437" />
		<path
   class="st29"
   d="m 1218.2,303 c 17.7,4.3 26.5,15.8 26.5,34.4 v 1.8 c 0,13 -3.7,23.1 -11.2,30.3 -7.5,7.1 -18.2,10.7 -32.1,10.7 h -53.7 V 228.7 h 48 c 14.1,0 24.9,3.4 32.4,10.2 7.5,6.8 11.2,16.2 11.2,28.4 v 2.4 c 0,15.9 -7,26.3 -20.8,31.5 v 1.9 h -0.3 z m 4.4,-34.6 c 0,-8.3 -2.1,-14.5 -6.5,-18.4 -4.3,-4 -11.2,-6 -20.6,-6 h -31.7 v 51.5 h 31.7 c 9.6,0 16.5,-2 20.7,-6.1 4.2,-4 6.3,-10.5 6.3,-19.3 v -1.7 z m 5.5,69.8 v -1.6 c 0,-8.9 -2.1,-15.4 -6.5,-19.6 -4.4,-4.2 -11.2,-6.2 -20.6,-6.2 h -37.3 v 54 h 37.3 c 9.5,0 16.4,-2.1 20.6,-6.3 4.4,-4.2 6.5,-11 6.5,-20.3 z"
   id="path439" />
		<path
   class="st29"
   d="m 1359.8,244 h -73.1 v 52.4 h 54.7 v 15.3 h -54.7 v 53.1 h 73.1 v 15.3 h -89.5 V 228.7 h 89.5 z"
   id="path441" />
		<path
   class="st29"
   d="m 1478.1,274.9 c 0,27.8 -12.7,43 -38.2,45.3 v 1.1 l 36.2,58.9 h -18.4 L 1421,320.4 h -22.2 v 59.8 h -16.4 V 228.7 h 50.5 c 30.3,0 45.3,15.2 45.3,45.5 v 0.7 z m -16.3,-0.7 c 0,-11.2 -2.2,-19.2 -6.8,-23.6 -4.6,-4.4 -12,-6.7 -22.3,-6.7 h -34 v 61 h 34 c 10.4,0 17.8,-2.2 22.3,-6.7 4.5,-4.4 6.8,-12.3 6.8,-23.6 z"
   id="path443" />
		<path
   class="st29"
   d="m 1543,382.4 c -16.2,0 -28.9,-3.9 -38.1,-11.9 -9.3,-7.9 -13.9,-20.2 -13.9,-36.8 h 16.4 c 0,12.3 2.9,20.9 8.7,26 5.8,5.1 14.7,7.5 26.9,7.5 h 1.2 c 22.3,0 33.5,-8.7 33.5,-26 0,-3.1 -0.4,-5.9 -1.2,-8.4 -0.7,-2.4 -2,-4.7 -3.8,-6.6 -1.8,-1.9 -3.5,-3.6 -5,-4.9 -1.6,-1.4 -3.8,-2.6 -6.9,-4 -3.1,-1.4 -5.4,-2.3 -7.1,-3 -1.7,-0.6 -4.4,-1.6 -8.1,-2.8 -3.7,-1.2 -6.2,-2 -7.5,-2.4 -6.6,-2.2 -11.7,-4.2 -15.6,-5.9 -3.8,-1.7 -8.3,-4.2 -13.3,-7.6 -5.1,-3.4 -8.8,-7.6 -11.2,-12.7 -2.4,-5.1 -3.7,-11 -3.7,-17.8 0.1,-12.3 4.3,-21.9 12.6,-28.8 8.3,-6.9 19.3,-10.4 33,-10.4 h 1.1 c 15.1,0 27.1,3.9 36,11.9 8.9,8 13.3,20.2 13.3,36.8 h -16.4 c 0,-12.3 -2.8,-20.9 -8.4,-26 -5.6,-5.1 -13.8,-7.5 -24.5,-7.5 h -1.1 c -19.3,0 -28.9,8 -28.9,24 0,1.9 0.2,3.8 0.6,5.6 0.4,1.8 0.8,3.4 1.4,4.7 0.5,1.3 1.3,2.6 2.5,4 1.3,1.4 2.2,2.4 3,3.3 0.7,0.8 2,1.9 3.9,2.9 1.8,1.1 3.2,1.8 4.1,2.3 0.8,0.5 2.4,1.3 4.8,2.1 2.4,0.8 3.8,1.5 4.7,1.8 0.8,0.3 2.5,0.8 5.1,1.7 2.5,0.8 4.2,1.4 5,1.7 14.7,4.9 24.8,9.1 30.3,12.7 11.9,7.8 17.8,18.9 17.8,33.3 0,13 -4.5,23.2 -13.5,30.4 -9,7.2 -21.2,10.8 -36.4,10.8 h -1.2 v 0 z"
   id="path445" />
		<path
   class="st29"
   d="m 1707.4,244 h -73.1 v 52.4 h 54.7 v 15.3 h -54.7 v 53.1 h 73.1 v 15.3 h -89.5 V 228.7 h 89.5 z"
   id="path447" />
		<path
   class="st29"
   d="m 1772.3,382.4 c -15.4,0 -27.5,-4.4 -36.4,-13.3 -8.9,-8.9 -13.3,-22.5 -13.3,-40.8 v -47.5 c 0,-18.4 4.4,-32 13.3,-40.8 8.9,-8.9 21.1,-13.3 36.4,-13.3 h 1.1 c 15.4,0 27.5,4.4 36.4,13.3 8.9,8.9 13.3,22.5 13.3,40.8 h -16.4 c 0,-14.1 -2.8,-24.1 -8.3,-30.2 -5.5,-6 -13.9,-9 -25.1,-9 h -1.1 c -11.2,0 -19.7,3 -25.1,9 -5.5,6 -8.3,16.1 -8.3,30.2 v 47.5 c 0,14.1 2.8,24.1 8.3,30.2 5.5,6 13.9,9 25.1,9 h 1.1 c 11.2,0 19.6,-3 25.1,-9 5.5,-6 8.3,-16.1 8.3,-30.2 h 16.4 c 0,18.4 -4.4,32 -13.3,40.8 -8.9,8.8 -21.1,13.3 -36.4,13.3 z"
   id="path449" />
		<path
   class="st29"
   d="m 1898.1,382.4 c -15.2,0 -27.2,-4.2 -35.7,-12.7 -8.6,-8.5 -12.8,-21.4 -12.8,-38.9 V 228.7 h 16.4 v 102.2 c 0,13 2.5,22.3 7.6,28 5.1,5.6 13.2,8.5 24.3,8.5 h 1.2 c 11.1,0 19.3,-2.9 24.3,-8.5 5,-5.6 7.6,-14.9 7.6,-28 V 228.7 h 16.4 v 102.2 c 0,17.4 -4.2,30.3 -12.8,38.7 -8.6,8.6 -20.4,12.8 -35.7,12.8 z"
   id="path451" />
		<path
   class="st29"
   d="m 2075.5,274.9 c 0,27.8 -12.7,43 -38.2,45.3 v 1.1 l 36.2,58.9 h -18.4 l -36.7,-59.8 h -22.2 v 59.8 h -16.4 V 228.7 h 50.5 c 30.3,0 45.3,15.2 45.3,45.5 v 0.7 z m -16.2,-0.7 c 0,-11.2 -2.2,-19.2 -6.8,-23.6 -4.5,-4.4 -12,-6.7 -22.3,-6.7 h -34 v 61 h 34 c 10.4,0 17.8,-2.2 22.3,-6.7 4.5,-4.4 6.8,-12.3 6.8,-23.6 z"
   id="path453" />
		<path
   class="st29"
   d="M 2099.1,380.2 V 228.7 h 16.4 v 151.5 z"
   id="path455" />
		<path
   class="st29"
   d="M 2236.9,228.7 V 244 h -43.6 v 136.2 h -16.4 V 244 h -43.6 v -15.3 z"
   id="path457" />
		<path
   class="st29"
   d="m 2285.1,380.2 v -65.6 l -46.9,-86 h 17.8 l 36.2,69.1 h 2 l 36.4,-69.1 h 17.8 l -46.9,86.2 v 65.3 h -16.4 z"
   id="path459" />
		<path
   class="st30"
   d="M 916.4,601.3 V 449.8 h 24.7 l 53.3,128 h 2 v -128 h 16 V 601.3 H 988 l -53.5,-128 h -2 v 128 z"
   id="path461" />
		<path
   class="st30"
   d="M 1126.5,601.3 1114,554.4 h -49.5 l -12.7,46.9 H 1034 l 42.4,-151.5 h 25.3 l 42,151.5 z m -58,-62.2 h 41.4 l -19.6,-73.7 h -2 z"
   id="path463" />
		<path
   class="st30"
   d="m 1239,449.8 v 15.3 h -43.6 V 601.3 H 1179 V 465.1 h -43.6 v -15.3 z"
   id="path465" />
		<path
   class="st30"
   d="M 1256.6,601.3 V 449.8 h 16.4 v 151.5 z"
   id="path467" />
		<path
   class="st30"
   d="m 1351.5,603.5 c -15.4,0 -27.5,-4.4 -36.4,-13.3 -8.9,-8.9 -13.3,-22.5 -13.3,-40.8 v -47.5 c 0,-18.4 4.4,-32 13.3,-40.8 8.9,-8.8 21.1,-13.3 36.4,-13.3 h 1.1 c 15.4,0 27.5,4.4 36.4,13.3 8.9,8.9 13.3,22.5 13.3,40.8 v 47.5 c 0,18.4 -4.4,32 -13.3,40.8 -8.9,8.9 -21.1,13.3 -36.4,13.3 z m 0,-15.1 h 1.1 c 11.2,0 19.6,-3 25.1,-9 5.5,-6 8.3,-16.1 8.3,-30.2 v -48 c 0,-14 -2.8,-23.8 -8.3,-29.7 -5.5,-5.9 -13.9,-8.9 -25.1,-8.9 h -1.1 c -11.2,0 -19.7,3 -25.1,8.9 -5.5,5.9 -8.3,15.9 -8.3,29.7 v 48 c 0,14.1 2.8,24.1 8.3,30.2 5.4,6 13.7,9 25.1,9 z"
   id="path469" />
		<path
   class="st30"
   d="M 1430.9,601.3 V 449.8 h 24.7 l 53.3,128 h 2 v -128 h 16 v 151.5 h -24.4 l -53.5,-128 h -2 v 128 z"
   id="path471" />
		<path
   class="st30"
   d="m 1641.2,601.3 -12.5,-46.9 h -49.5 l -12.7,46.9 h -17.8 l 42.4,-151.5 h 25.3 l 42,151.5 z m -58,-62.2 h 41.4 L 1605,465.4 h -2 z"
   id="path473" />
		<path
   class="st30"
   d="m 1696.7,586 h 65.1 v 15.3 h -81.6 V 449.8 h 16.4 V 586 Z"
   id="path475" />
		<path
   class="st30"
   d="m 1845.8,586 h 65.1 v 15.3 h -81.6 V 449.8 h 16.4 V 586 Z"
   id="path477" />
		<path
   class="st30"
   d="m 2010.4,601.3 -12.5,-46.9 h -49.5 l -12.7,46.9 H 1918 l 42.5,-151.5 h 25.3 l 42,151.5 z m -58,-62.2 h 41.4 l -19.6,-73.7 h -2 z"
   id="path479" />
		<path
   class="st30"
   d="m 2120.1,524.2 c 17.7,4.3 26.5,15.8 26.5,34.5 v 1.8 c 0,13 -3.7,23.1 -11.2,30.3 -7.5,7.1 -18.2,10.7 -32.1,10.7 h -53.7 V 449.8 h 48 c 14.1,0 24.9,3.4 32.4,10.2 7.5,6.8 11.2,16.2 11.2,28.4 v 2.4 c 0,15.9 -7,26.3 -20.8,31.5 v 1.9 z m 4.5,-34.6 c 0,-8.3 -2.1,-14.5 -6.5,-18.4 -4.3,-4 -11.2,-6 -20.6,-6 h -31.7 v 51.5 h 31.7 c 9.6,0 16.5,-2 20.7,-6.1 4.2,-4 6.3,-10.5 6.3,-19.3 v -1.7 z m 5.6,69.7 v -1.6 c 0,-8.9 -2.1,-15.4 -6.5,-19.6 -4.4,-4.2 -11.2,-6.2 -20.6,-6.2 h -37.3 v 54 h 37.3 c 9.5,0 16.4,-2.1 20.6,-6.3 4.4,-4.2 6.5,-11 6.5,-20.3 z"
   id="path481" />
	</g>
</g>
</svg>
