<?xml version="1.0" encoding="UTF-8"?>
<!DOCTYPE svg PUBLIC "-//W3C//DTD SVG 1.1//EN" "http://www.w3.org/Graphics/SVG/1.1/DTD/svg11.dtd">
<svg xmlns="http://www.w3.org/2000/svg" version="1.1" width="2315px" height="798px" style="shape-rendering:geometricPrecision; text-rendering:geometricPrecision; image-rendering:optimizeQuality; fill-rule:evenodd; clip-rule:evenodd" xmlns:xlink="http://www.w3.org/1999/xlink">
<g><path style="opacity:0.872" fill="#7e3242" d="M 381.5,-0.5 C 396.5,-0.5 411.5,-0.5 426.5,-0.5C 431.346,0.327025 436.346,0.993692 441.5,1.5C 441.5,2.83333 441.5,4.16667 441.5,5.5C 420.878,3.77365 400.212,3.10698 379.5,3.5C 380.167,2.16667 380.833,0.833333 381.5,-0.5 Z"/></g>
<g><path style="opacity:0.834" fill="#8d2e3a" d="M 441.5,1.5 C 469.428,4.35225 496.762,10.0189 523.5,18.5C 523.904,19.7564 524.571,20.9231 525.5,22C 525.43,22.7648 525.097,23.2648 524.5,23.5C 497.431,14.8166 469.764,8.81661 441.5,5.5C 441.5,4.16667 441.5,2.83333 441.5,1.5 Z"/></g>
<g><path style="opacity:0.842" fill="#69344a" d="M 370.5,-0.5 C 374.167,-0.5 377.833,-0.5 381.5,-0.5C 380.833,0.833333 380.167,2.16667 379.5,3.5C 350.015,5.24752 321.015,9.91419 292.5,17.5C 293.968,16.2209 294.635,14.5542 294.5,12.5C 319.589,5.98563 344.923,1.65229 370.5,-0.5 Z"/></g>
<g><path style="opacity:1" fill="#823040" d="M 400.5,19.5 C 400.5,30.1667 400.5,40.8333 400.5,51.5C 398.5,51.1667 396.5,50.8333 394.5,50.5C 394.827,40.6522 394.494,30.9856 393.5,21.5C 395.657,20.5933 397.99,19.9267 400.5,19.5 Z"/></g>
<g><path style="opacity:0.984" fill="#5f354d" d="M 400.5,19.5 C 403.096,20.0549 405.429,21.0549 407.5,22.5C 406.506,31.6517 406.173,40.985 406.5,50.5C 404.379,50.3253 402.379,50.6586 400.5,51.5C 400.5,40.8333 400.5,30.1667 400.5,19.5 Z"/></g>
<g><path style="opacity:1" fill="#a02830" d="M 393.5,21.5 C 394.494,30.9856 394.827,40.6522 394.5,50.5C 394.167,50.5 393.833,50.5 393.5,50.5C 393.027,49.0937 392.027,48.427 390.5,48.5C 390.5,48.1667 390.5,47.8333 390.5,47.5C 390.5,39.5 390.5,31.5 390.5,23.5C 390.973,22.0937 391.973,21.427 393.5,21.5 Z"/></g>
<g><path style="opacity:0.989" fill="#b92022" d="M 390.5,23.5 C 390.5,31.5 390.5,39.5 390.5,47.5C 385.907,44.9828 383.907,40.9828 384.5,35.5C 383.907,30.0172 385.907,26.0172 390.5,23.5 Z"/></g>
<g><path style="opacity:0.842" fill="#523552" d="M 294.5,12.5 C 294.635,14.5542 293.968,16.2209 292.5,17.5C 245.671,31.0797 202.671,52.0797 163.5,80.5C 163.5,78.8333 163.5,77.1667 163.5,75.5C 202.968,46.2697 246.634,25.2697 294.5,12.5 Z"/></g>
<g><path style="opacity:0.854" fill="#a1272f" d="M 523.5,18.5 C 556.382,29.2755 587.049,44.2755 615.5,63.5C 615.768,65.099 615.434,66.4324 614.5,67.5C 586.093,49.6302 556.093,34.9636 524.5,23.5C 525.097,23.2648 525.43,22.7648 525.5,22C 524.571,20.9231 523.904,19.7564 523.5,18.5 Z"/></g>
<g><path style="opacity:0.736" fill="#37365a" d="M 407.5,22.5 C 414.582,27.3931 416.582,33.8931 413.5,42C 424.075,48.7602 434.741,55.2602 445.5,61.5C 444.662,61.8417 444.328,62.5084 444.5,63.5C 433.612,57.9565 422.945,51.9565 412.5,45.5C 411.167,46.5 409.833,47.5 408.5,48.5C 430.698,86.8978 452.364,125.565 473.5,164.5C 473.737,165.791 473.404,166.791 472.5,167.5C 450.247,128.662 428.247,89.662 406.5,50.5C 406.173,40.985 406.506,31.6517 407.5,22.5 Z"/></g>
<g><path style="opacity:0.981" fill="#723347" d="M 337.5,62.5 C 338.5,62.5 339.5,62.5 340.5,62.5C 340.5,67.8333 340.5,73.1667 340.5,78.5C 339.209,78.7373 338.209,78.404 337.5,77.5C 337.5,72.5 337.5,67.5 337.5,62.5 Z"/></g>
<g><path style="opacity:0.932" fill="#463554" d="M 337.5,62.5 C 337.5,67.5 337.5,72.5 337.5,77.5C 331.842,75.1699 330.342,71.1699 333,65.5C 334.129,63.8588 335.629,62.8588 337.5,62.5 Z"/></g>
<g><path style="opacity:0.992" fill="#992a35" d="M 340.5,62.5 C 341.791,62.2627 342.791,62.596 343.5,63.5C 343.182,68.0323 343.515,72.3656 344.5,76.5C 343.329,77.3446 341.995,78.0113 340.5,78.5C 340.5,73.1667 340.5,67.8333 340.5,62.5 Z"/></g>
<g><path style="opacity:0.996" fill="#bd1f20" d="M 343.5,63.5 C 347.252,65.7943 348.419,69.1277 347,73.5C 346.623,74.9423 345.79,75.9423 344.5,76.5C 343.515,72.3656 343.182,68.0323 343.5,63.5 Z"/></g>
<g><path style="opacity:0.725" fill="#503450" d="M 445.5,61.5 C 468.097,74.1088 490.431,87.1088 512.5,100.5C 512.672,101.492 512.338,102.158 511.5,102.5C 488.903,89.8912 466.569,76.8912 444.5,63.5C 444.328,62.5084 444.662,61.8417 445.5,61.5 Z"/></g>
<g><path style="opacity:0.85" fill="#b02327" d="M 615.5,63.5 C 632.174,73.5159 647.84,85.0159 662.5,98C 667.729,103.397 673.062,108.564 678.5,113.5C 677.549,114.919 677.216,116.585 677.5,118.5C 657.923,99.5746 636.923,82.5746 614.5,67.5C 615.434,66.4324 615.768,65.099 615.5,63.5 Z"/></g>
<g><path style="opacity:0.717" fill="#bc2021" d="M 390.5,48.5 C 392.027,48.427 393.027,49.0937 393.5,50.5C 377.581,77.3363 361.914,104.336 346.5,131.5C 346.672,130.508 346.338,129.842 345.5,129.5C 360.234,102.366 375.234,75.366 390.5,48.5 Z"/></g>
<g><path style="opacity:0.934" fill="#6e3448" d="M 288.5,92.5 C 288.5,97.8333 288.5,103.167 288.5,108.5C 286.901,108.768 285.568,108.434 284.5,107.5C 284.5,102.833 284.5,98.1667 284.5,93.5C 285.708,92.7659 287.041,92.4326 288.5,92.5 Z"/></g>
<g><path style="opacity:0.955" fill="#942b36" d="M 288.5,92.5 C 290.153,92.6596 291.486,93.3263 292.5,94.5C 292.183,98.7016 292.517,102.702 293.5,106.5C 292.22,107.931 290.553,108.598 288.5,108.5C 288.5,103.167 288.5,97.8333 288.5,92.5 Z"/></g>
<g><path style="opacity:0.928" fill="#bf2022" d="M 292.5,94.5 C 296.803,98.3137 297.137,102.314 293.5,106.5C 292.517,102.702 292.183,98.7016 292.5,94.5 Z"/></g>
<g><path style="opacity:0.75" fill="#33365a" d="M 284.5,93.5 C 284.5,98.1667 284.5,102.833 284.5,107.5C 281.414,106.346 280.081,104.012 280.5,100.5C 280.159,97.1815 281.492,94.8482 284.5,93.5 Z"/></g>
<g><path style="opacity:0.853" fill="#753446" d="M 512.5,100.5 C 526.168,107.665 539.501,115.331 552.5,123.5C 552.672,124.492 552.338,125.158 551.5,125.5C 537.832,118.335 524.499,110.669 511.5,102.5C 512.338,102.158 512.672,101.492 512.5,100.5 Z"/></g>
<g><path style="opacity:0.986" fill="#763345" d="M 237.5,123.5 C 236.513,128.305 236.179,133.305 236.5,138.5C 235.5,138.5 234.5,138.5 233.5,138.5C 233.5,133.5 233.5,128.5 233.5,123.5C 234.833,122.167 236.167,122.167 237.5,123.5 Z"/></g>
<g><path style="opacity:0.954" fill="#ab252b" d="M 237.5,123.5 C 243.158,125.83 244.658,129.83 242,135.5C 240.736,137.607 238.903,138.607 236.5,138.5C 236.179,133.305 236.513,128.305 237.5,123.5 Z"/></g>
<g><path style="opacity:1" fill="#463658" d="M 233.5,123.5 C 233.5,128.5 233.5,133.5 233.5,138.5C 227.421,135.924 225.921,131.591 229,125.5C 230.11,123.963 231.61,123.297 233.5,123.5 Z"/></g>
<g><path style="opacity:0.771" fill="#932c36" d="M 552.5,123.5 C 567.671,131.917 582.671,140.584 597.5,149.5C 596.662,149.842 596.328,150.508 596.5,151.5C 581.002,143.588 566.002,134.921 551.5,125.5C 552.338,125.158 552.672,124.492 552.5,123.5 Z"/></g>
<g><path style="opacity:0.984" fill="#803140" d="M 186.5,154.5 C 186.5,159.167 186.5,163.833 186.5,168.5C 184.167,169.833 181.833,169.833 179.5,168.5C 179.5,163.833 179.5,159.167 179.5,154.5C 181.833,153.167 184.167,153.167 186.5,154.5 Z"/></g>
<g><path style="opacity:0.928" fill="#3b3759" d="M 179.5,154.5 C 179.5,159.167 179.5,163.833 179.5,168.5C 174.997,165.489 173.83,161.489 176,156.5C 176.816,155.177 177.983,154.511 179.5,154.5 Z"/></g>
<g><path style="opacity:0.975" fill="#b72325" d="M 186.5,154.5 C 189.586,155.654 190.919,157.988 190.5,161.5C 190.841,164.818 189.508,167.152 186.5,168.5C 186.5,163.833 186.5,159.167 186.5,154.5 Z"/></g>
<g><path style="opacity:0.861" fill="#36365b" d="M 163.5,75.5 C 163.5,77.1667 163.5,78.8333 163.5,80.5C 122.034,111.844 87.7009,149.51 60.5,193.5C 59.5386,191.735 59.2053,189.735 59.5,187.5C 80.4804,153.328 106.147,122.828 136.5,96C 145.377,88.9505 154.377,82.1172 163.5,75.5 Z"/></g>
<g><path style="opacity:0.806" fill="#a0272f" d="M 345.5,129.5 C 346.338,129.842 346.672,130.508 346.5,131.5C 333.59,156.327 319.923,180.66 305.5,204.5C 305.5,203.167 305.5,201.833 305.5,200.5C 318.077,176.34 331.41,152.673 345.5,129.5 Z"/></g>
<g><path style="opacity:0.997" fill="#6d3449" d="M 426.5,183.5 C 426.5,237.5 426.5,291.5 426.5,345.5C 422.564,343.234 419.231,340.234 416.5,336.5C 416.5,284.167 416.5,231.833 416.5,179.5C 419.192,176.657 422.526,175.491 426.5,176C 427.861,178.584 427.195,180.584 424.5,182C 425.416,182.278 426.082,182.778 426.5,183.5 Z"/></g>
<g><path style="opacity:0.997" fill="#67354b" d="M 416.5,179.5 C 416.5,231.833 416.5,284.167 416.5,336.5C 414.862,335.841 413.195,335.174 411.5,334.5C 405.155,336.7 402.488,334.7 403.5,328.5C 404.499,279.336 404.832,230.003 404.5,180.5C 408.519,180.354 412.519,180.021 416.5,179.5 Z"/></g>
<g><path style="opacity:0.995" fill="#60344e" d="M 404.5,180.5 C 404.832,230.003 404.499,279.336 403.5,328.5C 401.743,325.577 399.243,323.577 396,322.5C 395.153,320.807 394.32,319.14 393.5,317.5C 393.5,274.167 393.5,230.833 393.5,187.5C 394.675,187.719 395.675,187.386 396.5,186.5C 396.999,181.661 399.665,179.661 404.5,180.5 Z"/></g>
<g><path style="opacity:0.971" fill="#793244" d="M 673.5,181.5 C 674.833,181.5 676.167,181.5 677.5,181.5C 677.5,191.833 677.5,202.167 677.5,212.5C 676.167,212.5 674.833,212.5 673.5,212.5C 673.5,202.167 673.5,191.833 673.5,181.5 Z"/></g>
<g><path style="opacity:0.828" fill="#c21e1e" d="M 678.5,113.5 C 713.894,148.243 741.894,188.243 762.5,233.5C 761.833,235.833 761.167,238.167 760.5,240.5C 740.275,194.699 712.608,154.032 677.5,118.5C 677.216,116.585 677.549,114.919 678.5,113.5 Z"/></g>
<g><path style="opacity:0.835" fill="#b72124" d="M 597.5,149.5 C 619.704,161.54 641.538,174.207 663,187.5C 664.926,185.461 667.093,183.794 669.5,182.5C 669.5,192.167 669.5,201.833 669.5,211.5C 667.02,210.088 664.687,208.422 662.5,206.5C 655.779,210.191 649.112,213.858 642.5,217.5C 641.662,217.158 641.328,216.492 641.5,215.5C 647.685,211.149 654.185,207.149 661,203.5C 660.402,198.86 660.402,194.193 661,189.5C 639.355,176.933 617.855,164.266 596.5,151.5C 596.328,150.508 596.662,149.842 597.5,149.5 Z"/></g>
<g><path style="opacity:0.969" fill="#912c38" d="M 673.5,181.5 C 673.5,191.833 673.5,202.167 673.5,212.5C 672.167,212.167 670.833,211.833 669.5,211.5C 669.5,201.833 669.5,192.167 669.5,182.5C 670.833,182.167 672.167,181.833 673.5,181.5 Z"/></g>
<g><path style="opacity:0.98" fill="#60354e" d="M 677.5,181.5 C 679.553,181.402 681.22,182.069 682.5,183.5C 682.5,192.833 682.5,202.167 682.5,211.5C 680.883,212.038 679.216,212.371 677.5,212.5C 677.5,202.167 677.5,191.833 677.5,181.5 Z"/></g>
<g><path style="opacity:0.986" fill="#743346" d="M 426.5,183.5 C 431.622,190.551 438.622,193.551 447.5,192.5C 447.5,202.167 447.5,211.833 447.5,221.5C 447.062,221.435 446.728,221.601 446.5,222C 448.781,223.851 448.781,225.518 446.5,227C 441.15,230.519 435.484,232.019 429.5,231.5C 428.833,233.819 428.666,236.153 429,238.5C 431.58,242.118 433.747,245.952 435.5,250C 435.562,252.965 434.395,253.798 432,252.5C 430.916,253.665 430.083,254.998 429.5,256.5C 430.485,266.144 434.818,273.81 442.5,279.5C 442.5,306.833 442.5,334.167 442.5,361.5C 438.546,359.38 435.379,356.38 433,352.5C 431.991,350.975 431.491,349.308 431.5,347.5C 429.447,347.598 427.78,346.931 426.5,345.5C 426.5,291.5 426.5,237.5 426.5,183.5 Z"/></g>
<g><path style="opacity:1" fill="#bb2022" d="M 129.5,184.5 C 121.887,187.038 114.221,189.371 106.5,191.5C 111.989,181.668 119.656,179.335 129.5,184.5 Z"/></g>
<g><path style="opacity:0.992" fill="#583550" d="M 393.5,187.5 C 393.5,230.833 393.5,274.167 393.5,317.5C 391.97,316.933 390.47,316.267 389,315.5C 385.714,305.258 382.714,294.924 380,284.5C 377.987,282.752 375.82,281.418 373.5,280.5C 373.176,254.426 373.51,228.426 374.5,202.5C 375.833,202.167 375.833,201.833 374.5,201.5C 372.39,197.7 373.723,195.033 378.5,193.5C 380.071,194.309 381.738,194.643 383.5,194.5C 383.5,191.5 383.5,188.5 383.5,185.5C 386.187,185.336 388.854,185.503 391.5,186C 392.416,186.278 393.082,186.778 393.5,187.5 Z"/></g>
<g><path style="opacity:1" fill="#962b36" d="M 129.5,184.5 C 131.5,185.167 132.833,186.5 133.5,188.5C 124.378,192.585 115.045,196.252 105.5,199.5C 105.401,196.763 105.735,194.096 106.5,191.5C 114.221,189.371 121.887,187.038 129.5,184.5 Z"/></g>
<g><path style="opacity:0.786" fill="#35365b" d="M 682.5,183.5 C 691.382,188.658 693.549,195.992 689,205.5C 687.549,208.303 685.382,210.303 682.5,211.5C 682.5,202.167 682.5,192.833 682.5,183.5 Z"/></g>
<g><path style="opacity:1" fill="#753346" d="M 133.5,188.5 C 135.267,190.792 136.267,193.458 136.5,196.5C 127.413,200.307 118.079,203.307 108.5,205.5C 106.992,203.819 105.992,201.819 105.5,199.5C 115.045,196.252 124.378,192.585 133.5,188.5 Z"/></g>
<g><path style="opacity:0.711" fill="#5e344e" d="M 473.5,164.5 C 487.324,187.472 500.657,210.806 513.5,234.5C 512.596,235.209 512.263,236.209 512.5,237.5C 498.676,214.528 485.343,191.194 472.5,167.5C 473.404,166.791 473.737,165.791 473.5,164.5 Z"/></g>
<g><path style="opacity:0.974" fill="#e73445" d="M 920.5,197.5 C 958.821,195.821 977.821,214.154 977.5,252.5C 971.833,252.5 966.167,252.5 960.5,252.5C 959.552,220.005 943.219,207.838 911.5,216C 900.499,221.349 894.666,230.182 894,242.5C 893.333,264.833 893.333,287.167 894,309.5C 896.184,328.851 907.018,338.517 926.5,338.5C 940.499,339.423 950.666,333.756 957,321.5C 959.147,314.327 960.313,306.994 960.5,299.5C 966.167,299.5 971.833,299.5 977.5,299.5C 978.797,316.864 973.464,331.697 961.5,344C 946.501,353.779 930.168,356.779 912.5,353C 891.109,347.939 879.275,334.439 877,312.5C 876.333,288.167 876.333,263.833 877,239.5C 880.603,214.061 895.103,200.061 920.5,197.5 Z"/></g>
<g><path style="opacity:0.973" fill="#e73445" d="M 1504.5,196.5 C 1521.77,195.427 1536.27,201.094 1548,213.5C 1554.43,223.532 1557.26,234.532 1556.5,246.5C 1550.83,246.5 1545.17,246.5 1539.5,246.5C 1540.2,235.776 1536.87,226.61 1529.5,219C 1519.1,213.791 1508.1,212.124 1496.5,214C 1483.88,216.126 1477.54,223.626 1477.5,236.5C 1477.52,244.697 1480.85,251.197 1487.5,256C 1505.5,263.333 1523.5,270.667 1541.5,278C 1557.34,288.204 1563.51,302.704 1560,321.5C 1557,335.017 1549.16,344.517 1536.5,350C 1518.5,356 1500.5,356 1482.5,350C 1463.94,340.731 1455.27,325.564 1456.5,304.5C 1462.17,304.5 1467.83,304.5 1473.5,304.5C 1473.37,313.655 1475.87,321.988 1481,329.5C 1489.37,335.806 1498.87,338.806 1509.5,338.5C 1516.33,338.215 1522.99,337.049 1529.5,335C 1541.52,328.125 1545.68,317.958 1542,304.5C 1538.37,296.205 1532.2,290.705 1523.5,288C 1509.19,283.452 1495.19,278.119 1481.5,272C 1461.05,259.741 1454.88,242.241 1463,219.5C 1466.83,211.667 1472.67,205.833 1480.5,202C 1488.34,198.87 1496.34,197.036 1504.5,196.5 Z"/></g>
<g><path style="opacity:0.974" fill="#e73445" d="M 1732.5,197.5 C 1770.82,195.821 1789.82,214.154 1789.5,252.5C 1783.83,252.5 1778.17,252.5 1772.5,252.5C 1771.57,220.01 1755.23,207.843 1723.5,216C 1712.85,221.127 1707.01,229.627 1706,241.5C 1705.33,264.5 1705.33,287.5 1706,310.5C 1708.65,329.316 1719.48,338.65 1738.5,338.5C 1752.5,339.423 1762.67,333.756 1769,321.5C 1771.05,314.308 1772.22,306.975 1772.5,299.5C 1778.17,299.5 1783.83,299.5 1789.5,299.5C 1790.8,316.864 1785.46,331.697 1773.5,344C 1758.5,353.779 1742.17,356.779 1724.5,353C 1703.57,348.069 1691.74,334.902 1689,313.5C 1688.33,288.5 1688.33,263.5 1689,238.5C 1693.06,213.6 1707.56,199.933 1732.5,197.5 Z"/></g>
<g><path style="opacity:0.992" fill="#4c3555" d="M 374.5,201.5 C 374.5,201.833 374.5,202.167 374.5,202.5C 373.51,228.426 373.176,254.426 373.5,280.5C 366.425,277.799 359.425,274.799 352.5,271.5C 354.826,250.657 355.159,229.657 353.5,208.5C 355.82,205.731 357.487,202.564 358.5,199C 362.396,197.997 364.73,199.497 365.5,203.5C 368.399,202.358 371.399,201.692 374.5,201.5 Z"/></g>
<g><path style="opacity:0.967" fill="#e73445" d="M 984.5,199.5 C 990.868,199.17 997.202,199.504 1003.5,200.5C 1015.41,223.326 1027.58,245.992 1040,268.5C 1052.42,245.992 1064.59,223.326 1076.5,200.5C 1082.83,199.167 1089.17,199.167 1095.5,200.5C 1080.25,229.326 1064.75,257.993 1049,286.5C 1048.5,308.497 1048.33,330.497 1048.5,352.5C 1042.83,352.5 1037.17,352.5 1031.5,352.5C 1031.67,330.164 1031.5,307.831 1031,285.5C 1015.22,256.939 999.721,228.272 984.5,199.5 Z"/></g>
<g><path style="opacity:0.98" fill="#e73545" d="M 1113.5,199.5 C 1134.2,199.085 1154.87,199.585 1175.5,201C 1191.56,204.061 1201.39,213.561 1205,229.5C 1208.67,245.008 1204.84,258.175 1193.5,269C 1190.67,270.247 1188,271.747 1185.5,273.5C 1203.53,279.205 1212.2,291.538 1211.5,310.5C 1211.14,335.694 1198.47,349.527 1173.5,352C 1153.5,352.5 1133.5,352.667 1113.5,352.5C 1113.5,301.5 1113.5,250.5 1113.5,199.5 Z M 1130.5,216.5 C 1144.17,216.333 1157.84,216.5 1171.5,217C 1182.81,220.084 1188.48,227.584 1188.5,239.5C 1188.65,247.553 1186.32,254.719 1181.5,261C 1177.64,263.842 1173.31,265.509 1168.5,266C 1155.84,266.5 1143.17,266.667 1130.5,266.5C 1130.5,249.833 1130.5,233.167 1130.5,216.5 Z M 1130.5,282.5 C 1144.17,282.333 1157.84,282.5 1171.5,283C 1187.16,284.778 1194.49,293.611 1193.5,309.5C 1194.4,322.563 1188.73,331.063 1176.5,335C 1161.17,335.5 1145.84,335.667 1130.5,335.5C 1130.5,317.833 1130.5,300.167 1130.5,282.5 Z"/></g>
<g><path style="opacity:0.979" fill="#e73445" d="M 1347.5,199.5 C 1366.84,199.333 1386.17,199.5 1405.5,200C 1427.62,201.289 1440.46,212.789 1444,234.5C 1446.68,250.755 1443.68,265.755 1435,279.5C 1427.02,287.058 1417.52,291.558 1406.5,293C 1418.7,312.368 1430.7,331.868 1442.5,351.5C 1436.19,352.664 1429.86,352.831 1423.5,352C 1411.17,332.333 1398.83,312.667 1386.5,293C 1379.51,292.5 1372.51,292.334 1365.5,292.5C 1365.5,312.5 1365.5,332.5 1365.5,352.5C 1359.5,352.5 1353.5,352.5 1347.5,352.5C 1347.5,301.5 1347.5,250.5 1347.5,199.5 Z M 1365.5,215.5 C 1377.5,215.333 1389.5,215.5 1401.5,216C 1420.06,217.232 1428.72,227.232 1427.5,246C 1427.36,252.366 1426.19,258.533 1424,264.5C 1420.44,270.364 1415.27,273.864 1408.5,275C 1394.17,275.5 1379.84,275.667 1365.5,275.5C 1365.5,255.5 1365.5,235.5 1365.5,215.5 Z"/></g>
<g><path style="opacity:0.977" fill="#e73545" d="M 1945.5,199.5 C 1964.5,199.333 1983.5,199.5 2002.5,200C 2029.49,202.669 2042.83,217.669 2042.5,245C 2042.7,256.69 2039.87,267.524 2034,277.5C 2025.85,286.154 2016.02,291.488 2004.5,293.5C 2016.63,312.916 2028.63,332.416 2040.5,352C 2033.59,352.811 2026.75,352.645 2020,351.5C 2008.42,332 1996.58,312.666 1984.5,293.5C 1977.2,292.503 1969.86,292.169 1962.5,292.5C 1962.5,312.5 1962.5,332.5 1962.5,352.5C 1956.83,352.5 1951.17,352.5 1945.5,352.5C 1945.5,301.5 1945.5,250.5 1945.5,199.5 Z M 1962.5,215.5 C 1974.84,215.333 1987.17,215.5 1999.5,216C 2018.28,217.124 2026.61,227.124 2024.5,246C 2025.52,255.601 2022.85,263.935 2016.5,271C 2014.5,272 2012.5,273 2010.5,274C 1994.56,275.438 1978.56,275.938 1962.5,275.5C 1962.5,255.5 1962.5,235.5 1962.5,215.5 Z"/></g>
<g><path style="opacity:0.978" fill="#e63544" d="M 1235.5,199.5 C 1265.83,199.5 1296.17,199.5 1326.5,199.5C 1326.5,205.167 1326.5,210.833 1326.5,216.5C 1302.17,216.5 1277.83,216.5 1253.5,216.5C 1253.5,233.5 1253.5,250.5 1253.5,267.5C 1271.5,267.5 1289.5,267.5 1307.5,267.5C 1307.5,272.833 1307.5,278.167 1307.5,283.5C 1289.5,283.5 1271.5,283.5 1253.5,283.5C 1253.5,300.833 1253.5,318.167 1253.5,335.5C 1277.83,335.5 1302.17,335.5 1326.5,335.5C 1326.5,341.167 1326.5,346.833 1326.5,352.5C 1296.17,352.5 1265.83,352.5 1235.5,352.5C 1235.5,301.5 1235.5,250.5 1235.5,199.5 Z"/></g>
<g><path style="opacity:0.967" fill="#e63544" d="M 1583.5,199.5 C 1613.5,199.5 1643.5,199.5 1673.5,199.5C 1673.5,205.167 1673.5,210.833 1673.5,216.5C 1649.17,216.5 1624.83,216.5 1600.5,216.5C 1600.5,233.5 1600.5,250.5 1600.5,267.5C 1618.83,267.5 1637.17,267.5 1655.5,267.5C 1655.5,272.833 1655.5,278.167 1655.5,283.5C 1637.17,283.5 1618.83,283.5 1600.5,283.5C 1600.5,300.833 1600.5,318.167 1600.5,335.5C 1624.83,335.5 1649.17,335.5 1673.5,335.5C 1673.5,341.167 1673.5,346.833 1673.5,352.5C 1643.5,352.5 1613.5,352.5 1583.5,352.5C 1583.5,301.5 1583.5,250.5 1583.5,199.5 Z"/></g>
<g><path style="opacity:0.986" fill="#e73544" d="M 1815.5,199.5 C 1821.17,199.5 1826.83,199.5 1832.5,199.5C 1832.04,238.534 1832.54,277.534 1834,316.5C 1838.11,331.991 1848.28,339.324 1864.5,338.5C 1880.51,339.76 1890.68,332.76 1895,317.5C 1896.46,278.201 1896.96,238.868 1896.5,199.5C 1902.17,199.5 1907.83,199.5 1913.5,199.5C 1913.97,240.201 1913.47,280.868 1912,321.5C 1908.03,336.806 1898.53,346.972 1883.5,352C 1866.49,356.501 1850.16,354.834 1834.5,347C 1823.86,339.221 1817.69,328.721 1816,315.5C 1815.5,276.835 1815.33,238.168 1815.5,199.5 Z"/></g>
<g><path style="opacity:0.995" fill="#e63444" d="M 2064.5,199.5 C 2070.5,199.5 2076.5,199.5 2082.5,199.5C 2082.5,250.5 2082.5,301.5 2082.5,352.5C 2076.5,352.5 2070.5,352.5 2064.5,352.5C 2064.5,301.5 2064.5,250.5 2064.5,199.5 Z"/></g>
<g><path style="opacity:0.991" fill="#e73544" d="M 2314.5,199.5 C 2314.5,200.5 2314.5,201.5 2314.5,202.5C 2298.85,229.784 2283.69,257.451 2269,285.5C 2268.5,307.831 2268.33,330.164 2268.5,352.5C 2262.5,352.5 2256.5,352.5 2250.5,352.5C 2250.67,330.164 2250.5,307.831 2250,285.5C 2234.41,257.326 2219.08,228.993 2204,200.5C 2203.5,205.823 2203.33,211.156 2203.5,216.5C 2188.83,216.5 2174.17,216.5 2159.5,216.5C 2159.5,261.833 2159.5,307.167 2159.5,352.5C 2153.83,352.5 2148.17,352.5 2142.5,352.5C 2142.5,307.167 2142.5,261.833 2142.5,216.5C 2127.83,216.5 2113.17,216.5 2098.5,216.5C 2098.5,210.833 2098.5,205.167 2098.5,199.5C 2139.83,199.333 2181.17,199.5 2222.5,200C 2234.72,222.948 2247.06,245.781 2259.5,268.5C 2271.92,245.992 2284.09,223.326 2296,200.5C 2302.08,199.524 2308.24,199.19 2314.5,199.5 Z"/></g>
<g><path style="opacity:0.972" fill="#813141" d="M 447.5,192.5 C 451.5,192.5 455.5,192.5 459.5,192.5C 459.655,197.023 457.655,200.189 453.5,202C 459.918,202.926 460.918,205.593 456.5,210C 459.03,212.931 461.196,216.097 463,219.5C 463.946,221.956 463.446,223.956 461.5,225.5C 459.747,223.739 457.747,222.406 455.5,221.5C 452.777,222.722 450.11,222.722 447.5,221.5C 447.5,211.833 447.5,202.167 447.5,192.5 Z"/></g>
<g><path style="opacity:0.994" fill="#403659" d="M 353.5,208.5 C 355.159,229.657 354.826,250.657 352.5,271.5C 349.848,269.64 347.181,269.474 344.5,271C 340.95,274.883 337.783,279.049 335,283.5C 334.329,284.252 333.496,284.586 332.5,284.5C 331.502,259.005 331.169,233.339 331.5,207.5C 331.351,206.448 331.517,205.448 332,204.5C 333.592,202.507 335.092,200.507 336.5,198.5C 337.748,199.04 338.915,199.707 340,200.5C 340.147,203.571 340.98,206.404 342.5,209C 344.503,208.581 346.503,207.747 348.5,206.5C 349.478,206.977 350.311,207.643 351,208.5C 350.544,211.428 350.544,214.428 351,217.5C 351.204,214.203 352.037,211.203 353.5,208.5 Z"/></g>
<g><path style="opacity:0.994" fill="#30365c" d="M 331.5,207.5 C 331.169,233.339 331.502,259.005 332.5,284.5C 331.942,285.79 330.942,286.623 329.5,287C 325.249,288.195 320.915,288.695 316.5,288.5C 316.879,284.985 317.879,281.652 319.5,278.5C 319.291,277.914 318.957,277.414 318.5,277C 314.459,276.827 310.459,276.327 306.5,275.5C 304.364,271.394 302.364,267.228 300.5,263C 301.8,260.805 302.8,258.472 303.5,256C 300.94,253.029 298.273,250.196 295.5,247.5C 294.456,245.232 294.289,242.899 295,240.5C 299.969,242.36 303.969,241.027 307,236.5C 307.257,233.983 306.59,231.65 305,229.5C 302.81,227.612 300.977,225.445 299.5,223C 301.351,221.316 303.018,219.483 304.5,217.5C 311.786,215.335 319.119,214.169 326.5,214C 328.55,212.035 330.217,209.868 331.5,207.5 Z"/></g>
<g><path style="opacity:0.679" fill="#3e3659" d="M 136.5,196.5 C 136.108,199.146 136.108,201.646 136.5,204C 146.897,210.193 157.23,216.359 167.5,222.5C 167.5,223.5 167.5,224.5 167.5,225.5C 156.364,219.431 145.364,213.098 134.5,206.5C 131.304,210.098 127.304,212.098 122.5,212.5C 121.501,270.998 121.168,329.664 121.5,388.5C 121.832,429.003 121.499,469.337 120.5,509.5C 120.6,410.498 120.267,311.498 119.5,212.5C 114.47,212.108 110.803,209.775 108.5,205.5C 118.079,203.307 127.413,200.307 136.5,196.5 Z"/></g>
<g><path style="opacity:0.739" fill="#952b35" d="M 641.5,215.5 C 641.328,216.492 641.662,217.158 642.5,217.5C 632.165,224.003 621.498,230.003 610.5,235.5C 610.672,234.508 610.338,233.842 609.5,233.5C 619.835,226.997 630.502,220.997 641.5,215.5 Z"/></g>
<g><path style="opacity:0.713" fill="#6f3448" d="M 167.5,222.5 C 178.005,228.251 188.338,234.251 198.5,240.5C 198.672,241.492 198.338,242.158 197.5,242.5C 187.203,237.352 177.203,231.685 167.5,225.5C 167.5,224.5 167.5,223.5 167.5,222.5 Z"/></g>
<g><path style="opacity:0.74" fill="#8b2e3a" d="M 305.5,200.5 C 305.5,201.833 305.5,203.167 305.5,204.5C 296.337,222.164 286.67,239.497 276.5,256.5C 276.5,254.833 276.5,253.167 276.5,251.5C 285.411,234.005 295.078,217.005 305.5,200.5 Z"/></g>
<g><path style="opacity:0.756" fill="#6e3248" d="M 609.5,233.5 C 610.338,233.842 610.672,234.508 610.5,235.5C 602.836,240.668 594.836,245.335 586.5,249.5C 585.662,249.158 585.328,248.492 585.5,247.5C 593.218,242.47 601.218,237.803 609.5,233.5 Z"/></g>
<g><path style="opacity:0.738" fill="#723346" d="M 513.5,234.5 C 521.432,248.032 529.099,261.699 536.5,275.5C 535.34,277.203 536.007,277.869 538.5,277.5C 541.167,282.833 543.833,288.167 546.5,293.5C 546.5,294.833 546.5,296.167 546.5,297.5C 534.664,277.833 523.331,257.833 512.5,237.5C 512.263,236.209 512.596,235.209 513.5,234.5 Z"/></g>
<g><path style="opacity:0.849" fill="#972a34" d="M 198.5,240.5 C 207.501,244.998 216.168,249.998 224.5,255.5C 224.672,256.492 224.338,257.158 223.5,257.5C 214.499,253.002 205.832,248.002 197.5,242.5C 198.338,242.158 198.672,241.492 198.5,240.5 Z"/></g>
<g><path style="opacity:0.989" fill="#543551" d="M 677.5,256.5 C 677.5,261.833 677.5,267.167 677.5,272.5C 670.324,270.847 668.157,266.514 671,259.5C 672.734,257.549 674.901,256.549 677.5,256.5 Z"/></g>
<g><path style="opacity:0.961" fill="#892f3c" d="M 677.5,256.5 C 678.791,256.263 679.791,256.596 680.5,257.5C 680.5,262.167 680.5,266.833 680.5,271.5C 679.791,272.404 678.791,272.737 677.5,272.5C 677.5,267.167 677.5,261.833 677.5,256.5 Z"/></g>
<g><path style="opacity:0.889" fill="#b72124" d="M 680.5,257.5 C 684.083,258.422 685.75,260.756 685.5,264.5C 685.75,268.244 684.083,270.578 680.5,271.5C 680.5,266.833 680.5,262.167 680.5,257.5 Z"/></g>
<g><path style="opacity:0.784" fill="#b72123" d="M 224.5,255.5 C 236.968,262.235 249.302,269.235 261.5,276.5C 261.573,278.027 260.906,279.027 259.5,279.5C 247.5,272.167 235.5,264.833 223.5,257.5C 224.338,257.158 224.672,256.492 224.5,255.5 Z"/></g>
<g><path style="opacity:0.745" fill="#3d3558" d="M 585.5,247.5 C 585.328,248.492 585.662,249.158 586.5,249.5C 570.782,259.197 554.782,268.53 538.5,277.5C 536.007,277.869 535.34,277.203 536.5,275.5C 552.698,265.902 569.031,256.569 585.5,247.5 Z"/></g>
<g><path style="opacity:0.857" fill="#cb191b" d="M 762.5,233.5 C 810.722,344.997 810.222,456.33 761,567.5C 753.152,583.877 744.319,599.544 734.5,614.5C 733.539,612.735 733.205,610.735 733.5,608.5C 794.105,508.01 808.938,401.01 778,287.5C 773.24,271.38 767.406,255.713 760.5,240.5C 761.167,238.167 761.833,235.833 762.5,233.5 Z"/></g>
<g><path style="opacity:0.993" fill="#803141" d="M 442.5,279.5 C 448.518,282.531 454.518,285.531 460.5,288.5C 460.824,314.908 460.49,341.241 459.5,367.5C 457.84,369.248 455.84,369.748 453.5,369C 450.667,364.955 447,362.455 442.5,361.5C 442.5,334.167 442.5,306.833 442.5,279.5 Z"/></g>
<g><path style="opacity:0.827" fill="#22365e" d="M 59.5,187.5 C 59.2053,189.735 59.5386,191.735 60.5,193.5C -0.648197,298.635 -12.8149,409.302 24,525.5C 41.5736,576.351 68.0736,621.684 103.5,661.5C 103.5,663.5 103.5,665.5 103.5,667.5C 56.3435,616.539 24.8435,556.873 9,488.5C 4.65,468.204 1.48333,447.87 -0.5,427.5C -0.5,408.167 -0.5,388.833 -0.5,369.5C 4.73129,303.886 24.7313,243.22 59.5,187.5 Z"/></g>
<g><path style="opacity:0.987" fill="#8a2e3b" d="M 460.5,288.5 C 462.017,288.511 463.184,289.177 464,290.5C 468.557,297.494 471.557,305.161 473,313.5C 475.269,318.256 478.103,322.59 481.5,326.5C 481.83,344.008 481.497,361.341 480.5,378.5C 477.365,375.192 474.365,371.692 471.5,368C 467.514,367.501 463.514,367.334 459.5,367.5C 460.49,341.241 460.824,314.908 460.5,288.5 Z"/></g>
<g><path style="opacity:0.728" fill="#892f3d" d="M 546.5,293.5 C 555.67,308.501 564.336,323.834 572.5,339.5C 572.768,341.099 572.434,342.432 571.5,343.5C 563.138,328.15 554.805,312.816 546.5,297.5C 546.5,296.167 546.5,294.833 546.5,293.5 Z"/></g>
<g><path style="opacity:0.98" fill="#7f3141" d="M 680.5,315.5 C 680.5,320.5 680.5,325.5 680.5,330.5C 678.5,330.5 676.5,330.5 674.5,330.5C 674.5,325.5 674.5,320.5 674.5,315.5C 676.549,314.359 678.549,314.359 680.5,315.5 Z"/></g>
<g><path style="opacity:0.945" fill="#b02327" d="M 680.5,315.5 C 684.003,316.649 685.669,319.149 685.5,323C 685.682,326.82 684.015,329.32 680.5,330.5C 680.5,325.5 680.5,320.5 680.5,315.5 Z"/></g>
<g><path style="opacity:0.865" fill="#3a3557" d="M 674.5,315.5 C 674.5,320.5 674.5,325.5 674.5,330.5C 667.833,325.5 667.833,320.5 674.5,315.5 Z"/></g>
<g><path style="opacity:0.719" fill="#6c3348" d="M 276.5,251.5 C 276.5,253.167 276.5,254.833 276.5,256.5C 260.087,286.328 243.42,315.995 226.5,345.5C 225.566,344.432 225.232,343.099 225.5,341.5C 236.846,320.806 248.179,300.14 259.5,279.5C 260.906,279.027 261.573,278.027 261.5,276.5C 266.248,268.001 271.248,259.668 276.5,251.5 Z"/></g>
<g><path style="opacity:0.992" fill="#962b35" d="M 481.5,326.5 C 488.564,331.692 495.898,336.359 503.5,340.5C 504.824,356.931 504.824,373.265 503.5,389.5C 502.399,388.152 501.399,386.652 500.5,385C 496.147,384.781 491.981,385.615 488,387.5C 487.503,384.854 487.336,382.187 487.5,379.5C 484.941,379.802 482.607,379.468 480.5,378.5C 481.497,361.341 481.83,344.008 481.5,326.5 Z"/></g>
<g><path style="opacity:0.993" fill="#9e2831" d="M 516.5,339.5 C 515.512,361.091 515.178,382.758 515.5,404.5C 511.95,401.127 507.783,398.794 503,397.5C 502.57,394.808 502.737,392.141 503.5,389.5C 504.824,373.265 504.824,356.931 503.5,340.5C 507.824,340.073 512.158,339.739 516.5,339.5 Z"/></g>
<g><path style="opacity:0.996" fill="#aa252b" d="M 537.5,358.5 C 538.157,383.523 537.49,408.189 535.5,432.5C 529.801,423.095 525.134,413.095 521.5,402.5C 521.167,402.167 520.833,401.833 520.5,401.5C 519.305,403.297 517.638,404.297 515.5,404.5C 515.178,382.758 515.512,361.091 516.5,339.5C 519.836,339.533 523.003,338.866 526,337.5C 528.391,338.429 530.225,339.929 531.5,342C 530.422,345.075 528.588,347.575 526,349.5C 525.333,350.833 525.333,352.167 526,353.5C 530.324,354.25 534.157,355.917 537.5,358.5 Z"/></g>
<g><path style="opacity:0.99" fill="#b42226" d="M 537.5,358.5 C 550.456,361.585 562.456,366.585 573.5,373.5C 571.558,378.056 570.892,383.056 571.5,388.5C 570.209,388.263 569.209,388.596 568.5,389.5C 566.345,389.628 564.345,389.128 562.5,388C 560.295,385.46 557.795,383.293 555,381.5C 553.692,384.73 552.692,388.064 552,391.5C 551,392.5 550,393.5 549,394.5C 548.771,399.416 547.604,404.082 545.5,408.5C 545.977,409.478 546.643,410.311 547.5,411C 553.329,411.05 558.162,413.217 562,417.5C 563.869,423.041 564.535,428.707 564,434.5C 561.001,436.044 557.834,437.211 554.5,438C 553.667,438.833 552.833,439.667 552,440.5C 551.667,444.5 551.333,448.5 551,452.5C 547.113,457.779 543.613,463.279 540.5,469C 536.613,470.229 532.613,470.396 528.5,469.5C 528.057,463.257 529.057,457.257 531.5,451.5C 530.56,448.868 530.393,446.202 531,443.5C 533.665,441.538 536.165,439.371 538.5,437C 537.685,435.357 536.685,433.857 535.5,432.5C 537.49,408.189 538.157,383.523 537.5,358.5 Z"/></g>
<g><path style="opacity:0.748" fill="#9a2a34" d="M 572.5,339.5 C 581.071,353.634 589.404,367.967 597.5,382.5C 596.834,383.912 596.501,385.245 596.5,386.5C 587.929,372.366 579.596,358.033 571.5,343.5C 572.434,342.432 572.768,341.099 572.5,339.5 Z"/></g>
<g><path style="opacity:0.991" fill="#463657" d="M 359.5,370.5 C 362.934,373.949 366.601,376.949 370.5,379.5C 371.631,384.378 372.631,389.378 373.5,394.5C 373.144,398.378 371.811,401.878 369.5,405C 370.958,407.058 371.625,409.391 371.5,412C 370.882,418.156 370.382,424.323 370,430.5C 368.869,433.445 368.036,436.445 367.5,439.5C 364.121,439.147 361.121,437.813 358.5,435.5C 357.186,439.075 355.52,442.575 353.5,446C 352.391,446.638 351.225,447.138 350,447.5C 347.901,446.713 345.734,446.38 343.5,446.5C 343.649,445.448 343.483,444.448 343,443.5C 341.644,444.38 340.144,444.714 338.5,444.5C 338.38,442.801 338.046,441.135 337.5,439.5C 338.243,433.863 338.743,428.196 339,422.5C 340.039,420.254 341.206,418.087 342.5,416C 338.433,414.302 337.433,411.469 339.5,407.5C 338.859,403.46 338.025,399.46 337,395.5C 335.846,394.257 334.512,393.257 333,392.5C 332.859,387.73 332.859,383.063 333,378.5C 334.911,375.232 337.078,374.899 339.5,377.5C 338.5,378.833 337.5,380.167 336.5,381.5C 336.709,382.086 337.043,382.586 337.5,383C 340.167,383.667 342.833,383.667 345.5,383C 349.714,378.283 354.381,374.117 359.5,370.5 Z"/></g>
<g><path style="opacity:0.928" fill="#67344c" d="M 677.5,376.5 C 677.5,381.833 677.5,387.167 677.5,392.5C 675.447,392.598 673.78,391.931 672.5,390.5C 673.485,386.366 673.818,382.032 673.5,377.5C 674.708,376.766 676.041,376.433 677.5,376.5 Z"/></g>
<g><path style="opacity:0.921" fill="#892f3c" d="M 677.5,376.5 C 678.791,376.263 679.791,376.596 680.5,377.5C 680.5,382.167 680.5,386.833 680.5,391.5C 679.791,392.404 678.791,392.737 677.5,392.5C 677.5,387.167 677.5,381.833 677.5,376.5 Z"/></g>
<g><path style="opacity:0.952" fill="#c91b1c" d="M 573.5,373.5 C 575.857,373.337 578.19,373.503 580.5,374C 583.965,378.467 587.798,382.633 592,386.5C 593.555,391.382 593.888,396.382 593,401.5C 591.23,403.418 589.063,403.918 586.5,403C 582.682,399.027 579.349,394.694 576.5,390C 573.854,389.503 571.187,389.336 568.5,389.5C 569.209,388.596 570.209,388.263 571.5,388.5C 570.892,383.056 571.558,378.056 573.5,373.5 Z"/></g>
<g><path style="opacity:0.94" fill="#35375c" d="M 673.5,377.5 C 673.818,382.032 673.485,386.366 672.5,390.5C 668.413,385.841 668.746,381.508 673.5,377.5 Z"/></g>
<g><path style="opacity:0.816" fill="#b92124" d="M 680.5,377.5 C 684.083,378.422 685.75,380.756 685.5,384.5C 685.75,388.244 684.083,390.578 680.5,391.5C 680.5,386.833 680.5,382.167 680.5,377.5 Z"/></g>
<g><path style="opacity:0.715" fill="#533452" d="M 225.5,341.5 C 225.232,343.099 225.566,344.432 226.5,345.5C 213.657,369.194 200.324,392.528 186.5,415.5C 186.5,414.167 186.5,412.833 186.5,411.5C 198.996,387.836 211.996,364.503 225.5,341.5 Z"/></g>
<g><path style="opacity:0.816" fill="#aa252c" d="M 597.5,382.5 C 606.433,398.033 615.099,413.7 623.5,429.5C 623.768,431.099 623.434,432.432 622.5,433.5C 613.567,417.967 604.901,402.3 596.5,386.5C 596.501,385.245 596.834,383.912 597.5,382.5 Z"/></g>
<g><path style="opacity:0.958" fill="#1d4879" d="M 1313.5,418.5 C 1328.28,417.691 1341.61,421.525 1353.5,430C 1361.68,438.532 1366.52,448.699 1368,460.5C 1368.67,485.167 1368.67,509.833 1368,534.5C 1364.48,558.015 1350.98,571.515 1327.5,575C 1308.22,578.23 1291.72,573.063 1278,559.5C 1272.16,551.482 1268.83,542.482 1268,532.5C 1267.33,508.833 1267.33,485.167 1268,461.5C 1271.6,434.805 1286.76,420.472 1313.5,418.5 Z M 1311.5,434.5 C 1321.38,433.709 1330.71,435.542 1339.5,440C 1346.57,446.187 1350.4,454.021 1351,463.5C 1351.94,487.869 1351.61,512.203 1350,536.5C 1346.93,549.571 1338.76,557.071 1325.5,559C 1301.13,562.926 1287.63,552.759 1285,528.5C 1284.33,507.167 1284.33,485.833 1285,464.5C 1286.02,447.331 1294.85,437.331 1311.5,434.5 Z"/></g>
<g><path style="opacity:0.936" fill="#1c497a" d="M 1100.5,420.5 C 1135.5,420.5 1170.5,420.5 1205.5,420.5C 1205.5,426.167 1205.5,431.833 1205.5,437.5C 1190.83,437.5 1176.17,437.5 1161.5,437.5C 1161.5,482.833 1161.5,528.167 1161.5,573.5C 1155.83,573.5 1150.17,573.5 1144.5,573.5C 1144.5,528.167 1144.5,482.833 1144.5,437.5C 1129.83,437.5 1115.17,437.5 1100.5,437.5C 1100.5,431.833 1100.5,426.167 1100.5,420.5 Z"/></g>
<g><path style="opacity:0.956" fill="#1c4979" d="M 1222.5,420.5 C 1228.17,420.5 1233.83,420.5 1239.5,420.5C 1239.5,471.5 1239.5,522.5 1239.5,573.5C 1233.83,573.5 1228.17,573.5 1222.5,573.5C 1222.5,522.5 1222.5,471.5 1222.5,420.5 Z"/></g>
<g><path style="opacity:0.958" fill="#1d4879" d="M 1556.5,420.5 C 1565.42,420.183 1574.25,420.516 1583,421.5C 1597.46,472.016 1611.3,522.683 1624.5,573.5C 1618.5,573.5 1612.5,573.5 1606.5,573.5C 1602.66,557.791 1598.66,542.124 1594.5,526.5C 1578.17,526.5 1561.83,526.5 1545.5,526.5C 1541.34,542.13 1537.34,557.797 1533.5,573.5C 1527.17,573.5 1520.83,573.5 1514.5,573.5C 1528.34,522.462 1542.34,471.462 1556.5,420.5 Z M 1569.5,437.5 C 1577.23,461.422 1583.9,485.756 1589.5,510.5C 1576.5,510.5 1563.5,510.5 1550.5,510.5C 1556.36,486.045 1562.7,461.711 1569.5,437.5 Z"/></g>
<g><path style="opacity:0.948" fill="#1d497a" d="M 1645.5,420.5 C 1651.5,420.5 1657.5,420.5 1663.5,420.5C 1663.5,466.167 1663.5,511.833 1663.5,557.5C 1685.17,557.5 1706.83,557.5 1728.5,557.5C 1728.5,562.833 1728.5,568.167 1728.5,573.5C 1700.83,573.5 1673.17,573.5 1645.5,573.5C 1645.5,522.5 1645.5,471.5 1645.5,420.5 Z"/></g>
<g><path style="opacity:0.951" fill="#1d497a" d="M 1794.5,420.5 C 1800.5,420.5 1806.5,420.5 1812.5,420.5C 1812.5,466.167 1812.5,511.833 1812.5,557.5C 1834.17,557.5 1855.83,557.5 1877.5,557.5C 1877.5,562.833 1877.5,568.167 1877.5,573.5C 1849.83,573.5 1822.17,573.5 1794.5,573.5C 1794.5,522.5 1794.5,471.5 1794.5,420.5 Z"/></g>
<g><path style="opacity:0.981" fill="#1d4879" d="M 881.5,420.5 C 890.418,420.183 899.251,420.516 908,421.5C 925.391,463.948 943.057,506.281 961,548.5C 961.5,505.835 961.667,463.168 961.5,420.5C 967.167,420.5 972.833,420.5 978.5,420.5C 978.5,471.5 978.5,522.5 978.5,573.5C 969.915,573.817 961.415,573.483 953,572.5C 935.701,529.906 917.867,487.573 899.5,445.5C 898.5,488.161 898.167,530.828 898.5,573.5C 892.833,573.5 887.167,573.5 881.5,573.5C 881.5,522.5 881.5,471.5 881.5,420.5 Z"/></g>
<g><path style="opacity:0.957" fill="#1d4879" d="M 1041.5,420.5 C 1050.5,420.5 1059.5,420.5 1068.5,420.5C 1081.89,471.327 1095.89,521.993 1110.5,572.5C 1104.2,573.496 1097.87,573.83 1091.5,573.5C 1088.13,558.014 1084.13,542.681 1079.5,527.5C 1063.18,526.501 1046.85,526.167 1030.5,526.5C 1026.66,542.209 1022.66,557.876 1018.5,573.5C 1012.17,573.5 1005.83,573.5 999.5,573.5C 1013.66,522.538 1027.66,471.538 1041.5,420.5 Z M 1054.5,437.5 C 1055.97,438.347 1056.8,439.68 1057,441.5C 1062.94,464.427 1069.11,487.26 1075.5,510C 1062.17,510.5 1048.84,510.667 1035.5,510.5C 1041.68,486.124 1048.01,461.79 1054.5,437.5 Z"/></g>
<g><path style="opacity:0.948" fill="#1d4979" d="M 1396.5,420.5 C 1405.17,420.5 1413.83,420.5 1422.5,420.5C 1439.5,463.509 1457.34,506.176 1476,548.5C 1476.5,505.835 1476.67,463.168 1476.5,420.5C 1482.17,420.5 1487.83,420.5 1493.5,420.5C 1493.5,471.5 1493.5,522.5 1493.5,573.5C 1484.83,573.5 1476.17,573.5 1467.5,573.5C 1450.5,530.491 1432.66,487.824 1414,445.5C 1413.5,488.165 1413.33,530.832 1413.5,573.5C 1407.83,573.5 1402.17,573.5 1396.5,573.5C 1396.5,522.5 1396.5,471.5 1396.5,420.5 Z"/></g>
<g><path style="opacity:0.958" fill="#1d4879" d="M 1926.5,420.5 C 1935.17,420.5 1943.83,420.5 1952.5,420.5C 1966.29,471.211 1980.29,521.878 1994.5,572.5C 1988.2,573.496 1981.87,573.83 1975.5,573.5C 1972.12,558.017 1968.12,542.684 1963.5,527.5C 1947.18,526.501 1930.85,526.167 1914.5,526.5C 1910.66,542.209 1906.66,557.876 1902.5,573.5C 1896.17,573.5 1889.83,573.5 1883.5,573.5C 1897.64,522.427 1911.97,471.427 1926.5,420.5 Z M 1938.5,437.5 C 1939.97,438.347 1940.8,439.68 1941,441.5C 1946.94,464.427 1953.11,487.26 1959.5,510C 1946.17,510.5 1932.84,510.667 1919.5,510.5C 1925.68,486.124 1932.01,461.79 1938.5,437.5 Z"/></g>
<g><path style="opacity:0.959" fill="#1d4879" d="M 2015.5,420.5 C 2035.86,420.116 2056.2,420.616 2076.5,422C 2093.11,424.605 2103.27,434.105 2107,450.5C 2110.66,466.045 2106.83,479.212 2095.5,490C 2092.63,491.935 2089.63,493.601 2086.5,495C 2105.08,499.974 2114.08,512.141 2113.5,531.5C 2113.54,555.29 2101.87,569.123 2078.5,573C 2057.5,573.5 2036.5,573.667 2015.5,573.5C 2015.5,522.5 2015.5,471.5 2015.5,420.5 Z M 2032.5,437.5 C 2047.23,437.068 2061.89,437.568 2076.5,439C 2086.08,443.298 2090.74,450.798 2090.5,461.5C 2090.33,467.857 2088.83,473.857 2086,479.5C 2083.44,482.531 2080.27,484.698 2076.5,486C 2061.89,487.432 2047.23,487.932 2032.5,487.5C 2032.5,470.833 2032.5,454.167 2032.5,437.5 Z M 2032.5,503.5 C 2045.5,503.333 2058.5,503.5 2071.5,504C 2088.55,504.575 2096.55,513.409 2095.5,530.5C 2096.8,541.746 2092.46,549.913 2082.5,555C 2065.89,556.441 2049.22,556.941 2032.5,556.5C 2032.5,538.833 2032.5,521.167 2032.5,503.5 Z"/></g>
<g><path style="opacity:0.928" fill="#67344c" d="M 677.5,438.5 C 677.5,443.833 677.5,449.167 677.5,454.5C 675.847,454.34 674.514,453.674 673.5,452.5C 673.5,448.167 673.5,443.833 673.5,439.5C 674.708,438.766 676.041,438.433 677.5,438.5 Z"/></g>
<g><path style="opacity:0.975" fill="#892f3c" d="M 677.5,438.5 C 678.5,438.5 679.5,438.5 680.5,438.5C 680.5,443.5 680.5,448.5 680.5,453.5C 679.609,454.11 678.609,454.443 677.5,454.5C 677.5,449.167 677.5,443.833 677.5,438.5 Z"/></g>
<g><path style="opacity:0.893" fill="#b72124" d="M 680.5,438.5 C 685.65,441.651 686.817,445.984 684,451.5C 683.184,452.823 682.017,453.489 680.5,453.5C 680.5,448.5 680.5,443.5 680.5,438.5 Z"/></g>
<g><path style="opacity:0.933" fill="#30355a" d="M 673.5,439.5 C 673.5,443.833 673.5,448.167 673.5,452.5C 668.283,448.293 668.283,443.96 673.5,439.5 Z"/></g>
<g><path style="opacity:0.989" fill="#a02830" d="M 503.5,510.5 C 504.833,494.833 504.833,479.167 503.5,463.5C 507.844,465.662 511.511,464.828 514.5,461C 517.263,460.45 519.93,459.617 522.5,458.5C 524,458.453 525,459.119 525.5,460.5C 524.044,466.079 521.544,471.079 518,475.5C 517.765,479.32 516.932,482.987 515.5,486.5C 516.277,488.447 517.277,490.28 518.5,492C 518.265,492.873 517.931,493.707 517.5,494.5C 522.296,497.372 522.463,500.372 518,503.5C 517.667,506.5 517.333,509.5 517,512.5C 516.586,512.957 516.086,513.291 515.5,513.5C 511.96,510.885 507.96,509.885 503.5,510.5 Z"/></g>
<g><path style="opacity:0.983" fill="#882f3c" d="M 481.5,470.5 C 481.5,480.833 481.5,491.167 481.5,501.5C 479.704,500.207 478.037,498.707 476.5,497C 474.167,496.667 471.833,496.333 469.5,496C 468.167,493.333 466.167,491.333 463.5,490C 459.554,488.338 455.554,488.004 451.5,489C 443.585,481.812 443.919,474.812 452.5,468C 454.22,468.71 455.887,469.877 457.5,471.5C 460.583,466.975 464.75,465.308 470,466.5C 470.483,467.448 470.649,468.448 470.5,469.5C 474.179,469.724 477.846,470.058 481.5,470.5 Z"/></g>
<g><path style="opacity:0.995" fill="#952b36" d="M 503.5,463.5 C 504.833,479.167 504.833,494.833 503.5,510.5C 500.185,510.028 497.851,508.195 496.5,505C 491.901,502.133 486.901,500.966 481.5,501.5C 481.5,491.167 481.5,480.833 481.5,470.5C 490.144,471.847 497.477,469.514 503.5,463.5 Z"/></g>
<g><path style="opacity:0.381" fill="#c01f21" d="M 122.5,212.5 C 122.873,311.5 123.206,410.5 123.5,509.5C 122.833,469.167 122.167,428.833 121.5,388.5C 121.168,329.664 121.501,270.998 122.5,212.5 Z"/></g>
<g><path style="opacity:0.996" fill="#85303e" d="M 670.5,510.5 C 671.919,509.549 673.585,509.216 675.5,509.5C 675.5,519.833 675.5,530.167 675.5,540.5C 674.167,540.167 672.833,539.833 671.5,539.5C 671.827,529.652 671.494,519.986 670.5,510.5 Z"/></g>
<g><path style="opacity:0.987" fill="#69344a" d="M 675.5,509.5 C 677.95,509.298 680.283,509.631 682.5,510.5C 682.5,519.833 682.5,529.167 682.5,538.5C 680.401,539.612 678.067,540.279 675.5,540.5C 675.5,530.167 675.5,519.833 675.5,509.5 Z"/></g>
<g><path style="opacity:0.995" fill="#a02830" d="M 669.5,510.5 C 669.833,510.5 670.167,510.5 670.5,510.5C 671.494,519.986 671.827,529.652 671.5,539.5C 669.847,539.34 668.514,538.674 667.5,537.5C 667.334,529.16 667.5,520.827 668,512.5C 668.717,511.956 669.217,511.289 669.5,510.5 Z"/></g>
<g><path style="opacity:0.906" fill="#37365a" d="M 682.5,510.5 C 691.624,516.053 693.791,523.72 689,533.5C 687.223,535.79 685.056,537.457 682.5,538.5C 682.5,529.167 682.5,519.833 682.5,510.5 Z"/></g>
<g><path style="opacity:0.912" fill="#bf1f20" d="M 623.5,429.5 C 639.071,456.302 654.404,483.302 669.5,510.5C 669.217,511.289 668.717,511.956 668,512.5C 667.5,520.827 667.334,529.16 667.5,537.5C 665.871,536.375 664.371,535.041 663,533.5C 650.182,541.491 637.015,548.824 623.5,555.5C 623.557,554.391 623.89,553.391 624.5,552.5C 636.437,545.527 648.437,538.527 660.5,531.5C 661.231,529.599 661.231,527.599 660.5,525.5C 637.833,525.5 615.167,525.5 592.5,525.5C 592.5,524.833 592.5,524.167 592.5,523.5C 615.167,523.5 637.833,523.5 660.5,523.5C 660.902,518.696 662.902,514.696 666.5,511.5C 651.821,485.473 637.155,459.473 622.5,433.5C 623.434,432.432 623.768,431.099 623.5,429.5 Z"/></g>
<g><path style="opacity:0.953" fill="#453657" d="M 121.5,388.5 C 122.167,428.833 122.833,469.167 123.5,509.5C 125.949,510.057 128.282,510.057 130.5,509.5C 148.83,476.537 167.497,443.87 186.5,411.5C 186.5,412.833 186.5,414.167 186.5,415.5C 168.944,447.607 151.111,479.607 133,511.5C 134.811,515.12 135.978,519.12 136.5,523.5C 187.833,523.5 239.167,523.5 290.5,523.5C 290.5,524.167 290.5,524.833 290.5,525.5C 239.167,525.5 187.833,525.5 136.5,525.5C 136.483,527.565 136.15,529.565 135.5,531.5C 129.794,524.136 124.128,516.803 118.5,509.5C 119.167,509.5 119.833,509.5 120.5,509.5C 121.499,469.337 121.832,429.003 121.5,388.5 Z"/></g>
<g><path style="opacity:0.953" fill="#67344b" d="M 290.5,523.5 C 316.5,523.5 342.5,523.5 368.5,523.5C 368.5,524.167 368.5,524.833 368.5,525.5C 342.5,525.5 316.5,525.5 290.5,525.5C 290.5,524.833 290.5,524.167 290.5,523.5 Z"/></g>
<g><path style="opacity:0.953" fill="#7a3243" d="M 368.5,523.5 C 390.833,523.5 413.167,523.5 435.5,523.5C 435.5,524.167 435.5,524.833 435.5,525.5C 413.167,525.5 390.833,525.5 368.5,525.5C 368.5,524.833 368.5,524.167 368.5,523.5 Z"/></g>
<g><path style="opacity:0.953" fill="#932c37" d="M 435.5,523.5 C 460.833,523.5 486.167,523.5 511.5,523.5C 511.5,524.167 511.5,524.833 511.5,525.5C 486.167,525.5 460.833,525.5 435.5,525.5C 435.5,524.833 435.5,524.167 435.5,523.5 Z"/></g>
<g><path style="opacity:0.953" fill="#ac252a" d="M 511.5,523.5 C 538.5,523.5 565.5,523.5 592.5,523.5C 592.5,524.167 592.5,524.833 592.5,525.5C 565.5,525.5 538.5,525.5 511.5,525.5C 511.5,524.833 511.5,524.167 511.5,523.5 Z"/></g>
<g><path style="opacity:1" fill="#b62225" d="M 106.5,521.5 C 107.583,521.539 108.583,521.873 109.5,522.5C 111.739,526.984 114.905,530.65 119,533.5C 119.744,535.9 120.577,538.233 121.5,540.5C 110.048,539.066 105.048,532.732 106.5,521.5 Z"/></g>
<g><path style="opacity:1" fill="#6d3449" d="M 118.5,509.5 C 124.128,516.803 129.794,524.136 135.5,531.5C 134.386,534.404 132.386,536.404 129.5,537.5C 123.856,532.335 119.023,526.335 115,519.5C 113.008,518.335 111.175,517.002 109.5,515.5C 111.366,511.993 114.366,509.993 118.5,509.5 Z"/></g>
<g><path style="opacity:1" fill="#9c2932" d="M 109.5,515.5 C 111.175,517.002 113.008,518.335 115,519.5C 119.023,526.335 123.856,532.335 129.5,537.5C 127.152,539.097 124.486,540.097 121.5,540.5C 120.577,538.233 119.744,535.9 119,533.5C 114.905,530.65 111.739,526.984 109.5,522.5C 108.583,521.873 107.583,521.539 106.5,521.5C 106.461,518.911 107.461,516.911 109.5,515.5 Z"/></g>
<g><path style="opacity:0.911" fill="#1d4878" d="M 449.5,547.5 C 461.529,546.765 464.862,551.598 459.5,562C 448.928,566.076 444.095,562.576 445,551.5C 446.397,549.93 447.897,548.596 449.5,547.5 Z"/></g>
<g><path style="opacity:0.952" fill="#e73444" d="M 387.5,567.5 C 387.167,566.5 386.5,565.833 385.5,565.5C 383.372,553.379 388.372,548.712 400.5,551.5C 404.296,555.663 404.462,559.996 401,564.5C 397.048,568.098 392.548,569.098 387.5,567.5 Z"/></g>
<g><path style="opacity:0.934" fill="#1c4979" d="M 385.5,565.5 C 386.5,565.833 387.167,566.5 387.5,567.5C 387.5,568.833 387.5,570.167 387.5,571.5C 387.5,571.833 387.5,572.167 387.5,572.5C 386.167,572.833 386.167,573.167 387.5,573.5C 387.5,575.167 387.5,576.833 387.5,578.5C 387.631,579.239 387.464,579.906 387,580.5C 383.177,576.293 380.01,576.627 377.5,581.5C 379.639,586.03 382.806,586.697 387,583.5C 387.167,585.833 387.333,588.167 387.5,590.5C 387.426,593.287 386.76,595.787 385.5,598C 371.319,601.425 362.986,596.092 360.5,582C 362.818,567.53 371.151,562.03 385.5,565.5 Z"/></g>
<g><path style="opacity:0.953" fill="#1d4879" d="M 408.5,597.5 C 408.806,594.615 408.473,591.948 407.5,589.5C 407.802,586.941 407.468,584.607 406.5,582.5C 406.5,582.167 406.5,581.833 406.5,581.5C 406.5,575.833 406.5,570.167 406.5,564.5C 411.833,564.5 417.167,564.5 422.5,564.5C 422.343,565.873 422.51,567.207 423,568.5C 429.62,562.938 435.953,563.272 442,569.5C 443.42,579.086 443.92,588.753 443.5,598.5C 438.167,598.5 432.833,598.5 427.5,598.5C 427.666,592.491 427.499,586.491 427,580.5C 425.667,577.833 424.333,577.833 423,580.5C 422.501,586.491 422.334,592.491 422.5,598.5C 417.737,598.774 413.07,598.441 408.5,597.5 Z"/></g>
<g><path style="opacity:0.948" fill="#1d497a" d="M 444.5,565.5 C 450.167,565.5 455.833,565.5 461.5,565.5C 461.5,576.5 461.5,587.5 461.5,598.5C 455.833,598.5 450.167,598.5 444.5,598.5C 444.5,587.5 444.5,576.5 444.5,565.5 Z"/></g>
<g><path style="opacity:0.962" fill="#e73445" d="M 406.5,581.5 C 406.5,581.833 406.5,582.167 406.5,582.5C 406.198,585.059 406.532,587.393 407.5,589.5C 407.194,592.385 407.527,595.052 408.5,597.5C 408.5,599.167 408.5,600.833 408.5,602.5C 402.839,603.831 397.173,605.164 391.5,606.5C 390.801,596.943 389.468,587.61 387.5,578.5C 387.5,576.833 387.5,575.167 387.5,573.5C 387.5,573.167 387.5,572.833 387.5,572.5C 387.5,572.167 387.5,571.833 387.5,571.5C 392.831,570.334 397.998,568.667 403,566.5C 404.392,571.564 405.559,576.564 406.5,581.5 Z"/></g>
<g><path style="opacity:0.728" fill="#a02830" d="M 624.5,552.5 C 623.89,553.391 623.557,554.391 623.5,555.5C 609.834,564.002 595.834,572.002 581.5,579.5C 581.672,578.508 581.338,577.842 580.5,577.5C 594.834,568.664 609.5,560.331 624.5,552.5 Z"/></g>
<g><path style="opacity:0.903" fill="#e73444" d="M 90.5,570.5 C 102.314,573.123 107.481,580.457 106,592.5C 103.198,597.536 100.698,597.536 98.5,592.5C 103.779,585.277 102.112,579.61 93.5,575.5C 88.2687,577.906 83.4354,580.906 79,584.5C 77.2465,590.523 79.0799,595.356 84.5,599C 86.9203,599.687 89.087,599.187 91,597.5C 94.6149,599.987 94.7816,602.154 91.5,604C 81.8036,604.67 75.6369,600.17 73,590.5C 71.5341,585.265 73.0341,581.099 77.5,578C 81.6017,574.954 85.935,572.454 90.5,570.5 Z"/></g>
<g><path style="opacity:0.854" fill="#1d4877" d="M 700.5,571.5 C 706.842,570.67 710.842,573.337 712.5,579.5C 716.833,576.88 720.666,577.547 724,581.5C 724.667,584.5 724.667,587.5 724,590.5C 721.124,596.423 717.624,601.923 713.5,607C 712.5,607.667 711.5,607.667 710.5,607C 702.5,601 694.5,595 686.5,589C 690.356,582.419 695.023,576.585 700.5,571.5 Z M 701.5,576.5 C 704.699,576.696 706.699,578.363 707.5,581.5C 705.917,585.672 703.583,589.339 700.5,592.5C 698.167,590.667 695.833,588.833 693.5,587C 696.054,583.38 698.721,579.88 701.5,576.5 Z M 714.5,582.5 C 717.288,583.226 719.288,584.893 720.5,587.5C 718.599,592.302 715.932,596.636 712.5,600.5C 709.696,598.862 707.029,597.029 704.5,595C 707.348,590.332 710.681,586.166 714.5,582.5 Z"/></g>
<g><path style="opacity:0.715" fill="#8c2e3b" d="M 580.5,577.5 C 581.338,577.842 581.672,578.508 581.5,579.5C 570.498,586.337 559.164,592.67 547.5,598.5C 547.672,597.508 547.338,596.842 546.5,596.5C 557.502,589.663 568.836,583.33 580.5,577.5 Z"/></g>
<g><path style="opacity:0.899" fill="#e73444" d="M 112.5,593.5 C 114.714,594.392 115.714,596.058 115.5,598.5C 114.162,603.512 112.828,608.512 111.5,613.5C 117.185,613.197 122.852,613.03 128.5,613C 130.394,614.079 130.727,615.413 129.5,617C 122.833,617.667 116.167,618.333 109.5,619C 106,621.833 102.5,624.667 99,627.5C 97.0173,626.234 96.0173,624.568 96,622.5C 99.6317,619.87 102.965,616.87 106,613.5C 107.876,606.707 110.042,600.04 112.5,593.5 Z"/></g>
<g><path style="opacity:0.858" fill="#1d4878" d="M 675.5,604.5 C 685.845,607.559 696.178,610.726 706.5,614C 707.311,616.291 706.477,618.125 704,619.5C 701.428,618.308 698.761,617.308 696,616.5C 694.395,617.101 693.062,618.101 692,619.5C 690.267,621.723 688.767,624.056 687.5,626.5C 688.951,629.237 690.284,632.07 691.5,635C 690.73,636.775 689.563,638.275 688,639.5C 682.667,630.167 677.333,620.833 672,611.5C 671.333,610.5 671.333,609.5 672,608.5C 673.376,607.295 674.542,605.962 675.5,604.5 Z M 678.5,610.5 C 682.515,611.895 686.515,613.395 690.5,615C 688.607,617.303 686.607,619.47 684.5,621.5C 682.221,617.939 680.221,614.273 678.5,610.5 Z"/></g>
<g><path style="opacity:0.946" fill="#6b344a" d="M 398.5,613.5 C 398.5,618.833 398.5,624.167 398.5,629.5C 396.901,629.768 395.568,629.434 394.5,628.5C 394.5,623.833 394.5,619.167 394.5,614.5C 395.833,614.167 397.167,613.833 398.5,613.5 Z"/></g>
<g><path style="opacity:0.929" fill="#8e2d3a" d="M 398.5,613.5 C 400.153,613.66 401.486,614.326 402.5,615.5C 402.5,619.833 402.5,624.167 402.5,628.5C 401.292,629.234 399.959,629.567 398.5,629.5C 398.5,624.167 398.5,618.833 398.5,613.5 Z"/></g>
<g><path style="opacity:0.882" fill="#ba1f22" d="M 402.5,615.5 C 407.807,619.749 407.807,624.082 402.5,628.5C 402.5,624.167 402.5,619.833 402.5,615.5 Z"/></g>
<g><path style="opacity:0.739" fill="#683349" d="M 546.5,596.5 C 547.338,596.842 547.672,597.508 547.5,598.5C 529.862,609.324 511.862,619.657 493.5,629.5C 493.5,628.5 493.5,627.5 493.5,626.5C 510.997,616.25 528.663,606.25 546.5,596.5 Z"/></g>
<g><path style="opacity:0.937" fill="#32375c" d="M 394.5,614.5 C 394.5,619.167 394.5,623.833 394.5,628.5C 390.213,625.378 389.379,621.378 392,616.5C 392.708,615.619 393.542,614.953 394.5,614.5 Z"/></g>
<g><path style="opacity:0.894" fill="#e73444" d="M 133.5,621.5 C 138.728,624.891 143.228,629.225 147,634.5C 149.652,642.656 146.819,646.656 138.5,646.5C 140.535,655.633 136.868,659.467 127.5,658C 126.167,657.333 124.833,656.667 123.5,656C 119.686,651.351 115.686,646.851 111.5,642.5C 118.88,635.451 126.214,628.451 133.5,621.5 Z M 134.5,628.5 C 138.099,630.263 140.932,632.93 143,636.5C 143.269,641.091 141.103,642.924 136.5,642C 133.403,639.609 131.237,636.776 130,633.5C 131.707,631.963 133.207,630.296 134.5,628.5 Z M 124.5,637.5 C 125.239,637.369 125.906,637.536 126.5,638C 129.118,640.739 131.618,643.573 134,646.5C 135.167,652 133,654.167 127.5,653C 124.5,650 121.5,647 118.5,644C 120.706,641.963 122.706,639.797 124.5,637.5 Z"/></g>
<g><path style="opacity:0.849" fill="#1d4a79" d="M 649.5,633.5 C 650.552,633.351 651.552,633.517 652.5,634C 658.348,640.015 664.348,645.848 670.5,651.5C 674.818,647.682 678.985,643.682 683,639.5C 684.022,640.354 684.855,641.354 685.5,642.5C 680.871,648.797 675.538,654.463 669.5,659.5C 662.542,652.041 655.375,644.708 648,637.5C 647.7,635.934 648.2,634.601 649.5,633.5 Z"/></g>
<g><path style="opacity:0.719" fill="#4c3555" d="M 493.5,626.5 C 493.5,627.5 493.5,628.5 493.5,629.5C 477.5,638.5 461.5,647.5 445.5,656.5C 444.662,656.158 444.328,655.492 444.5,654.5C 460.337,644.411 476.67,635.078 493.5,626.5 Z"/></g>
<g><path style="opacity:0.88" fill="#e73444" d="M 157.5,645.5 C 159.255,646.072 160.922,646.906 162.5,648C 166.875,652.176 171.209,656.342 175.5,660.5C 174.855,661.646 174.022,662.646 173,663.5C 168.645,659.644 164.145,655.977 159.5,652.5C 157.167,654.167 155.167,656.167 153.5,658.5C 156.72,661.375 159.887,664.375 163,667.5C 163.301,670.091 162.134,670.925 159.5,670C 156.354,667.688 153.354,665.188 150.5,662.5C 147.158,664.308 145.325,666.975 145,670.5C 149.5,674.333 154,678.167 158.5,682C 158.002,683.158 157.169,683.991 156,684.5C 148.971,680.225 142.805,674.891 137.5,668.5C 144.189,660.814 150.856,653.147 157.5,645.5 Z"/></g>
<g><path style="opacity:0.816" fill="#bb2022" d="M 733.5,608.5 C 733.205,610.735 733.539,612.735 734.5,614.5C 719.169,639.507 700.836,662.174 679.5,682.5C 678.1,681.9 677.1,680.9 676.5,679.5C 698.152,657.804 717.152,634.137 733.5,608.5 Z"/></g>
<g><path style="opacity:0.831" fill="#1d4878" d="M 618.5,661.5 C 620.017,661.511 621.184,662.177 622,663.5C 627,670.167 632,676.833 637,683.5C 641.345,679.82 645.678,676.153 650,672.5C 651.169,673.009 652.002,673.842 652.5,675C 647.205,680.307 641.539,685.141 635.5,689.5C 628.864,682.238 622.697,674.572 617,666.5C 616.387,664.505 616.887,662.838 618.5,661.5 Z"/></g>
<g><path style="opacity:0.969" fill="#733347" d="M 397.5,664.5 C 399.735,664.205 401.735,664.539 403.5,665.5C 403.5,675.5 403.5,685.5 403.5,695.5C 401.5,695.5 399.5,695.5 397.5,695.5C 397.5,685.167 397.5,674.833 397.5,664.5 Z"/></g>
<g><path style="opacity:0.896" fill="#e73444" d="M 181.5,664.5 C 186.059,667.702 190.559,671.036 195,674.5C 200.038,683.329 197.705,688.996 188,691.5C 186.439,691.397 184.939,691.063 183.5,690.5C 182.91,695.468 182.743,700.468 183,705.5C 181.488,704.743 180.154,703.743 179,702.5C 178.693,697.118 178.026,691.785 177,686.5C 176,685.5 175,684.5 174,683.5C 171.308,686.692 168.808,690.025 166.5,693.5C 164.833,692.5 163.5,691.167 162.5,689.5C 169.085,681.316 175.418,672.983 181.5,664.5 Z M 182.5,671.5 C 186.052,673.204 189.219,675.538 192,678.5C 192.978,682.7 191.478,685.7 187.5,687.5C 183.422,685.586 179.755,683.086 176.5,680C 178.72,677.287 180.72,674.454 182.5,671.5 Z"/></g>
<g><path style="opacity:0.985" fill="#8e2d3a" d="M 397.5,664.5 C 397.5,674.833 397.5,685.167 397.5,695.5C 396.041,695.567 394.708,695.234 393.5,694.5C 393.827,684.985 393.494,675.652 392.5,666.5C 393.93,665.463 395.597,664.796 397.5,664.5 Z"/></g>
<g><path style="opacity:0.997" fill="#ad2429" d="M 392.5,666.5 C 393.494,675.652 393.827,684.985 393.5,694.5C 387.337,691.681 384.337,686.848 384.5,680C 384.238,673.682 386.904,669.182 392.5,666.5 Z"/></g>
<g><path style="opacity:0.957" fill="#3f3658" d="M 444.5,654.5 C 444.328,655.492 444.662,656.158 445.5,656.5C 435.479,662.6 425.312,668.6 415,674.5C 416.71,684.536 412.877,691.536 403.5,695.5C 403.5,685.5 403.5,675.5 403.5,665.5C 405.308,665.491 406.975,665.991 408.5,667C 410.017,668.685 411.684,670.185 413.5,671.5C 423.614,665.375 433.947,659.709 444.5,654.5 Z"/></g>
<g><path style="opacity:0.852" fill="#1d4878" d="M 601.5,674.5 C 610.935,680.755 620.269,687.255 629.5,694C 628.275,695.563 626.775,696.73 625,697.5C 622.165,696.084 619.498,694.417 617,692.5C 614.433,693.868 611.933,695.368 609.5,697C 608.196,697.804 607.529,698.971 607.5,700.5C 608.012,702.884 608.679,705.217 609.5,707.5C 608.472,709.361 606.972,710.695 605,711.5C 602.093,700.704 599.259,689.871 596.5,679C 598.043,677.287 599.709,675.787 601.5,674.5 Z M 602.5,681.5 C 605.956,683.783 609.29,686.283 612.5,689C 610.679,690.743 608.679,692.243 606.5,693.5C 604.557,689.737 603.223,685.737 602.5,681.5 Z"/></g>
<g><path style="opacity:0.876" fill="#e73445" d="M 206.5,684.5 C 210.847,685.115 214.847,686.615 218.5,689C 222.588,693.283 223.421,698.116 221,703.5C 219.414,702.624 217.914,701.624 216.5,700.5C 217.934,694.398 215.434,690.731 209,689.5C 204.952,690.591 203.952,692.924 206,696.5C 211.151,700.661 214.651,705.828 216.5,712C 215.976,716.688 213.31,719.188 208.5,719.5C 202.429,718.548 197.262,715.881 193,711.5C 190.856,707.35 191.023,703.35 193.5,699.5C 194.833,700.5 196.167,701.5 197.5,702.5C 195.674,706.526 196.674,709.693 200.5,712C 203.511,714.502 206.845,715.002 210.5,713.5C 211.485,711.902 211.651,710.235 211,708.5C 205.928,704.008 202.094,698.675 199.5,692.5C 200.48,688.527 202.814,685.86 206.5,684.5 Z"/></g>
<g><path style="opacity:0.844" fill="#1d4878" d="M 579.5,688.5 C 580.822,688.33 581.989,688.663 583,689.5C 588.167,698 593.333,706.5 598.5,715C 596.595,716.87 594.428,718.37 592,719.5C 584.493,714.747 577.16,709.747 570,704.5C 573.026,711.721 576.526,718.888 580.5,726C 578.919,726.707 577.419,727.54 576,728.5C 570.776,719.218 565.942,709.718 561.5,700C 562.786,698.351 564.453,697.185 566.5,696.5C 573.5,701.167 580.5,705.833 587.5,710.5C 588.041,708.477 587.541,706.477 586,704.5C 583.542,699.747 580.708,695.247 577.5,691C 578.381,690.292 579.047,689.458 579.5,688.5 Z"/></g>
<g><path style="opacity:0.894" fill="#e73446" d="M 232.5,698.5 C 239.63,701.565 246.63,704.899 253.5,708.5C 253.135,709.902 252.301,710.902 251,711.5C 245.812,709.55 240.812,707.216 236,704.5C 234.627,707.412 233.127,710.246 231.5,713C 235.66,714.912 239.66,717.079 243.5,719.5C 243.135,720.902 242.301,721.902 241,722.5C 237.439,720.97 233.939,719.303 230.5,717.5C 228.474,719.705 226.808,722.205 225.5,725C 230.474,728.321 235.807,730.821 241.5,732.5C 241.769,734.429 241.269,736.095 240,737.5C 232.63,734.232 225.463,730.565 218.5,726.5C 223.705,717.423 228.372,708.09 232.5,698.5 Z"/></g>
<g><path style="opacity:0.856" fill="#1d4877" d="M 545.5,706.5 C 550.74,705.538 554.907,707.205 558,711.5C 561.144,716.62 563.311,722.12 564.5,728C 564.049,730.568 563.049,732.902 561.5,735C 557.644,737.927 553.31,739.761 548.5,740.5C 545.236,740.026 542.402,738.693 540,736.5C 537.437,730.81 535.27,724.977 533.5,719C 535.002,712.333 539.002,708.167 545.5,706.5 Z M 547.5,710.5 C 549.03,711.067 550.53,711.733 552,712.5C 554.874,717.409 557.04,722.576 558.5,728C 557.631,732.8 554.631,735.3 549.5,735.5C 547.626,735.61 546.126,734.944 545,733.5C 542.443,728.496 540.276,723.329 538.5,718C 538.903,716.527 539.57,715.194 540.5,714C 542.925,712.787 545.259,711.621 547.5,710.5 Z"/></g>
<g><path style="opacity:0.892" fill="#af2429" d="M 676.5,679.5 C 677.1,680.9 678.1,681.9 679.5,682.5C 660.552,702.123 639.552,719.123 616.5,733.5C 615.833,732.167 615.167,730.833 614.5,729.5C 636.589,714.76 657.255,698.094 676.5,679.5 Z"/></g>
<g><path style="opacity:0.874" fill="#e73444" d="M 259.5,713.5 C 267.498,712.213 273.665,714.88 278,721.5C 278.667,723.833 278.667,726.167 278,728.5C 273.441,730.439 271.941,729.106 273.5,724.5C 271.451,718.972 267.451,716.805 261.5,718C 257.879,723.187 255.212,728.854 253.5,735C 255.66,740.416 259.66,742.749 265.5,742C 267.731,740.723 269.398,738.889 270.5,736.5C 274.433,737.354 275.266,739.354 273,742.5C 268.485,746.796 263.319,747.63 257.5,745C 250.894,742.752 248.061,738.252 249,731.5C 250.333,728.167 251.667,724.833 253,721.5C 254.305,718.039 256.471,715.372 259.5,713.5 Z"/></g>
<g><path style="opacity:0.848" fill="#1d4877" d="M 521.5,716.5 C 522.75,716.577 523.583,717.244 524,718.5C 527.112,727.84 530.612,737.006 534.5,746C 533,747.115 531.333,747.948 529.5,748.5C 525.234,738.368 521.567,728.035 518.5,717.5C 519.791,717.737 520.791,717.404 521.5,716.5 Z"/></g>
<g><path style="opacity:0.833" fill="#1d4979" d="M 509.5,720.5 C 512.95,719.756 514.616,721.09 514.5,724.5C 511.5,725.167 508.5,725.833 505.5,726.5C 507.517,735.903 509.851,745.236 512.5,754.5C 510.669,755.052 509.003,755.052 507.5,754.5C 505.033,745.767 502.367,737.101 499.5,728.5C 496.548,729.654 493.548,730.654 490.5,731.5C 489.738,730.372 489.071,729.205 488.5,728C 495.657,725.782 502.657,723.282 509.5,720.5 Z"/></g>
<g><path style="opacity:0.901" fill="#e73544" d="M 288.5,721.5 C 290.086,722.148 291.753,722.648 293.5,723C 290.862,730.548 288.528,738.215 286.5,746C 286.696,749.198 288.363,751.198 291.5,752C 294.429,752.777 297.263,752.61 300,751.5C 303.104,743.748 305.271,735.748 306.5,727.5C 308.167,727.5 309.833,727.5 311.5,727.5C 310.276,736.397 308.109,745.064 305,753.5C 300.431,757.596 295.264,758.429 289.5,756C 284.528,754.375 281.861,751.042 281.5,746C 283.332,737.674 285.665,729.507 288.5,721.5 Z"/></g>
<g><path style="opacity:0.836" fill="#473656" d="M 103.5,661.5 C 135.601,696.955 172.601,725.955 214.5,748.5C 213.1,749.1 212.1,750.1 211.5,751.5C 179.901,734.743 150.901,714.243 124.5,690C 116.928,682.932 109.928,675.432 103.5,667.5C 103.5,665.5 103.5,663.5 103.5,661.5 Z"/></g>
<g><path style="opacity:0.843" fill="#1d4879" d="M 477.5,729.5 C 479.017,729.511 480.184,730.177 481,731.5C 486.25,740.336 491.75,749.002 497.5,757.5C 496.441,758.696 495.107,759.363 493.5,759.5C 491.161,757.353 489.161,754.853 487.5,752C 483.445,751.844 479.445,752.344 475.5,753.5C 475.475,756.96 474.808,760.294 473.5,763.5C 471.902,764.485 470.235,764.651 468.5,764C 470.58,753.293 472.08,742.46 473,731.5C 474.622,730.901 476.122,730.234 477.5,729.5 Z M 477.5,735.5 C 480.059,738.933 482.392,742.599 484.5,746.5C 482.067,748.054 479.4,748.72 476.5,748.5C 476.739,744.158 477.073,739.824 477.5,735.5 Z"/></g>
<g><path style="opacity:0.911" fill="#e73444" d="M 320.5,730.5 C 325.895,731.346 331.228,732.512 336.5,734C 342.509,737.348 344.009,742.182 341,748.5C 338.552,751.473 335.386,752.973 331.5,753C 334.357,757.51 336.357,762.01 337.5,766.5C 335.618,765.907 333.785,765.24 332,764.5C 330,760.5 328,756.5 326,752.5C 324.667,751.833 323.333,751.167 322,750.5C 320.398,753.984 319.232,757.651 318.5,761.5C 316.994,762.747 315.494,762.747 314,761.5C 315.682,751.1 317.849,740.767 320.5,730.5 Z M 324.5,735.5 C 328.833,735.915 332.833,737.248 336.5,739.5C 337.61,742.686 336.943,745.52 334.5,748C 330.523,748.531 326.69,748.031 323,746.5C 322.687,742.742 323.187,739.076 324.5,735.5 Z"/></g>
<g><path style="opacity:0.839" fill="#1d4878" d="M 452.5,734.5 C 454.167,734.5 455.833,734.5 457.5,734.5C 458.794,744.762 460.46,754.928 462.5,765C 460.045,766.54 457.379,766.874 454.5,766C 449.295,759.092 444.462,751.926 440,744.5C 440.176,752.413 441.009,760.247 442.5,768C 440.782,768.346 439.115,768.846 437.5,769.5C 435.605,758.877 434.438,748.21 434,737.5C 436.064,736.409 438.231,736.242 440.5,737C 445.21,744.253 450.043,751.42 455,758.5C 454.688,750.473 453.854,742.473 452.5,734.5 Z"/></g>
<g><path style="opacity:0.903" fill="#e73445" d="M 350.5,735.5 C 352.086,736.148 353.753,736.648 355.5,737C 353.638,747.393 352.305,757.893 351.5,768.5C 348.17,768.837 346.504,767.337 346.5,764C 347.697,754.458 349.03,744.958 350.5,735.5 Z"/></g>
<g><path style="opacity:0.88" fill="#e73545" d="M 360.5,737.5 C 368.831,737.884 377.164,738.218 385.5,738.5C 385.5,739.833 385.5,741.167 385.5,742.5C 382.167,742.5 378.833,742.5 375.5,742.5C 374.833,751.833 374.167,761.167 373.5,770.5C 371.856,770.714 370.356,770.38 369,769.5C 369.232,760.489 369.565,751.489 370,742.5C 366.943,741.549 363.777,741.216 360.5,741.5C 360.5,740.167 360.5,738.833 360.5,737.5 Z"/></g>
<g><path style="opacity:0.907" fill="#e73445" d="M 409.5,738.5 C 411.288,738.215 412.955,738.548 414.5,739.5C 411.252,745.664 407.752,751.664 404,757.5C 403.501,762.155 403.334,766.821 403.5,771.5C 401.833,771.5 400.167,771.5 398.5,771.5C 398.666,766.489 398.499,761.489 398,756.5C 394.5,751 391,745.5 387.5,740C 389.579,739.192 391.579,739.359 393.5,740.5C 395.75,744.668 398.25,748.668 401,752.5C 404.096,747.972 406.929,743.305 409.5,738.5 Z"/></g>
<g><path style="opacity:0.829" fill="#a2272e" d="M 614.5,729.5 C 615.167,730.833 615.833,732.167 616.5,733.5C 598.414,745.88 579.081,756.214 558.5,764.5C 558.719,763.325 558.386,762.325 557.5,761.5C 556.264,762.246 554.93,762.579 553.5,762.5C 574.533,752.816 594.866,741.816 614.5,729.5 Z"/></g>
<g><path style="opacity:0.84" fill="#5a3450" d="M 214.5,748.5 C 240.224,761.737 266.891,772.403 294.5,780.5C 294.737,781.791 294.404,782.791 293.5,783.5C 264.633,776.548 237.3,765.882 211.5,751.5C 212.1,750.1 213.1,749.1 214.5,748.5 Z"/></g>
<g><path style="opacity:0.856" fill="#972b34" d="M 558.5,764.5 C 541.844,772.388 524.511,778.722 506.5,783.5C 504.507,782.528 504.174,781.195 505.5,779.5C 521.555,774.258 537.555,768.591 553.5,762.5C 554.93,762.579 556.264,762.246 557.5,761.5C 558.386,762.325 558.719,763.325 558.5,764.5 Z"/></g>
<g><path style="opacity:0.819" fill="#892e3c" d="M 505.5,779.5 C 504.174,781.195 504.507,782.528 506.5,783.5C 485.181,789.331 463.514,793.331 441.5,795.5C 441.5,794.167 441.5,792.833 441.5,791.5C 463.101,788.913 484.435,784.913 505.5,779.5 Z"/></g>
<g><path style="opacity:0.798" fill="#6e3449" d="M 294.5,780.5 C 323.058,787.723 352.058,792.056 381.5,793.5C 380.167,794.833 380.167,796.167 381.5,797.5C 377.833,797.5 374.167,797.5 370.5,797.5C 356.605,796.009 342.605,794.175 328.5,792C 316.476,790.1 304.809,787.267 293.5,783.5C 294.404,782.791 294.737,781.791 294.5,780.5 Z"/></g>
<g><path style="opacity:0.889" fill="#7e3242" d="M 441.5,791.5 C 441.5,792.833 441.5,794.167 441.5,795.5C 436.346,796.006 431.346,796.673 426.5,797.5C 411.5,797.5 396.5,797.5 381.5,797.5C 380.167,796.167 380.167,794.833 381.5,793.5C 401.549,793.902 421.549,793.235 441.5,791.5 Z"/></g>
</svg>
